<?xml version="1.0" encoding="UTF-8"?> <svg xmlns="http://www.w3.org/2000/svg" xmlns:xlink="http://www.w3.org/1999/xlink" width="580px" height="580px" viewBox="0 0 580 580"> <!-- Generator: Sketch 59.1 (86144) - https://sketch.com --> <title>Jinn2</title> <desc>Created with Sketch.</desc> <g id="Jinn2" stroke="none" stroke-width="1" fill="none" fill-rule="evenodd"> <g id="Group-15" transform="translate(44.000000, 71.000000)"> <g id="XMLID_102_" transform="translate(178.000000, 229.000000)" fill-rule="nonzero"> <path d="M12.6310214,37.5 C12.6310214,33.478697 8.56371858,18.2705266 37.0766272,3.44424072 C65.5895359,-11.3820452 78.0608681,27 78.0608681,27 C78.0608681,27 115.23228,12.6906219 131.769647,31.4554332 C148.307015,50.2202445 133.263442,41.5331558 136.017695,42.595282 C137.278462,43.0814736 146.211443,39.6888589 153.127847,44.6650791 C155.23223,46.179142 157.363015,50.9591268 159.520203,59.0050335 C51.186799,71.4042658 0.346731358,77.2950734 7,76.6774563 C3.29271454,68.7997105 -9.32442301,42.3649511 12.6310214,37.5 Z" id="XMLID_3_" fill="#1689C9"></path> <path d="M16.5330368,40.0073565 C16.5330368,40.0073565 12.3665943,24.6328019 30.4903543,12.208591 C48.6141143,-0.215619971 66.1439492,-2.98598427 90.3558316,13.4562866 C100.610397,9.98261634 109.678669,36.7650327 101.133198,36.7650327 C92.587727,36.7650327 83.1877091,29.5863457 88.8849745,26.3440219 C79.4849566,20.0914154 68.0912804,18.0072132 51.5694671,24.4911662 C35.0485084,30.9751191 32.7694314,44.1750661 32.7694314,44.1750661 C32.7694314,44.1750661 33.6239784,42.090864 39.8903722,41.6274764 C46.1567659,41.1640887 42.7385776,53.6693017 30.4903543,55.290811 C18.242131,56.9116256 23.3694135,49.7329386 23.3694135,49.7329386 C23.3694135,49.7329386 13.9693956,56.4489327 10.2666431,50.6590191 C6.56303602,44.8704949 11.6903185,40.933437 16.5330368,40.0073565 Z" id="XMLID_14_" fill="#1CADFF"></path> </g> <g id="Group-16"> <path d="M59,145.176423 C59,145.176423 53.0617057,137.64231 49.9421805,136.978047 C42.4518659,135.382736 32.8651922,128 32.8651922,128 C32.8651922,128 30.7640688,135.933391 37.8267738,137.442671 C39.9103284,139.261302 42.1162698,141.186946 42.1162698,141.186946 C42.1162698,141.186946 39.1655849,143.12578 34.9639335,142.963011 C30.7622821,142.800243 27.1237294,141.85091 26.1729234,142.241794 C25.2221174,142.632678 17.824114,137.124329 10.3323105,140.659373 C10.3323105,140.659373 2.31165272,139.224132 4.54747351e-13,143.354495 L10.0121988,145.421325 C10.0121988,145.421325 3.81543299,144.497772 1.61068267,148.528615 L11.8637841,150.538791 C11.8637841,150.538791 8.37769388,151.581049 7.5483814,154.022277 C7.5483814,154.022277 21.5243068,155.780057 27.833335,159.997649 C27.833335,159.997649 32.4941605,160.078884 33.4288865,161.171201 C34.3636125,162.263519 48.2138755,163.323163 51.4822898,166 L59,145.176423 Z" id="Path" fill="#1AA2EF" fill-rule="nonzero"></path> <path d="M8.06756156,152.999894 C12.866341,152.997205 16.7214422,153.362452 19.6328653,154.095634 C22.5442884,154.828817 25.465447,155.938358 28.3963411,157.424258 C32.3476288,157.908375 34.7839271,158.410434 35.705236,158.930436 C37.0871993,159.710438 46.4284994,160.958632 48.2142497,161.479376 C49.4047499,161.826539 50.9161296,162.389325 52.7483889,163.167735 L52,166 C48.2068453,164.111823 45.865326,163.167735 44.9754423,163.167735 C44.0855585,163.167735 41.349235,162.754855 36.7664717,161.929095 L31.8348468,160.509549 L27.8015773,159.880602 L19.6328653,156.458253 C13.9943493,154.834269 9.96618798,154.022277 7.5483814,154.022277 C7.09409534,153.860931 6.86695232,153.780258 6.86695232,153.780258 L7.28206263,153.150282 L8.06756156,152.999894 Z" id="Path-20" fill="#1577B1"></path> <path d="M10.4564476,145.394952 C10.4564476,145.394952 5.35109165,145.071231 1,148 C2.99479759,144.148456 12,145.10547 12,145.10547 L10.4564476,145.394952 Z" id="Path" fill="#1AA2EF" fill-rule="nonzero" opacity="0.4"></path> <path d="M2.29084861,147.5 C11.2064009,147.166667 18.4427847,148.26592 24,150.797759 C24.3302356,151.472766 24.4953533,151.81027 24.4953533,151.81027 C20.9070201,150.825249 19.1128535,150.332739 19.1128535,150.332739 C14.2975082,150.167398 11.8898356,150.084728 11.8898356,150.084728 L1.08841687,148.161439 L2.29084861,147.5 Z" id="Path-40" fill="#1577B1"></path> <path d="M1,143 C10.5081895,142.892606 18.040892,144.104829 23.5981073,146.636669 C23.6917484,146.784259 23.7385689,147.191387 23.7385689,147.858054 C15.1138021,145.714616 10.8014187,144.642898 10.8014187,144.642898 L1.27897692e-13,143.354495 L1,143 Z" id="Path-40" fill="#1577B1"></path> <path d="M15.1474301,150.000204 C15.1474301,150.000204 11.3510917,150.071231 7,153 C8.99479759,149.148456 18,150.10547 18,150.10547 L15.1474301,150.000204 Z" id="Path" fill="#1AA2EF" fill-rule="nonzero" opacity="0.4"></path> <path d="M25.2210583,151.941564 C25.2210583,151.941564 11.1809644,146.506493 7,153.823388 C7,153.823388 19.753597,155.147064 27.8015773,159.880602 C27.8015773,159.880602 31.5569201,160.099152 33.7500452,161.196429 C36.272169,162.458223 45.9293239,162.763106 52,166" id="Path" stroke="#091526" stroke-width="1.5" stroke-linecap="round" stroke-linejoin="round"></path> <path d="M59.2309486,145.628307 L50,172.083303 L61.7931831,177.171459 L62.2368834,170.34614 C99.8385369,182.630516 105.36828,178.293445 119.778034,176.936464 C157.644767,180.625729 173.674118,174.109645 173.674118,174.109645 C178.254018,201.009783 209.097797,230.583471 209.588329,272.051175 C240.163426,282.27658 265.985105,277.309364 281.354609,272.051175 C283.897331,250.633444 285.908092,238.937601 293.390056,226.033258 C315.511131,187.880624 316.890564,174.284169 316.890564,174.284169 C316.890564,174.284169 328.648023,182.053358 367.384445,177.04543 C374.030344,177.091231 384.04092,179.046625 397.398462,178.130895 C408.620659,177.36155 420.705939,172.951436 427.51695,170.416189 C427.920723,172.951436 428.024293,174.547303 428.206817,177.352569 C429.597959,176.513175 437.462082,173.359458 440,172.264414 C437.242333,164.349738 431.512655,147.903414 430.720118,145.628607 C429.239516,145.891441 427.419684,146.127035 426.196056,146.43118 C416.34939,148.880213 381.916982,136.766768 367.607496,145.628607 C348.657168,141.644177 326.053667,117.001782 326.053667,117.001782 C309.149824,113.063753 295.71513,110.77338 279.853593,103 C279.853593,103 273.129041,137.051755 246.250346,165.136446 C246.250346,165.136446 214.993488,137.660646 211.25836,103 C194.942915,109.700188 181.102046,113.350836 164.604378,117.001782 C144.187858,139.001462 120.526441,146.05968 120.526441,146.05968 C108.328284,142.475489 76.9396361,148.601811 59.2309486,145.628307 Z" id="Path" fill="#013C6D" fill-rule="nonzero"></path> <path d="M211,102.54604 L213.496435,101.050938 C213.496435,101.050938 220.383903,101.050938 227.041568,83.89413 C230.753456,74.3289709 256.025826,77.295103 260.372166,77.9435118 C260.372166,77.9435118 267.879288,98.5307191 276.895989,101.050938 C276.895989,101.050938 278.028097,101.750799 280,102.54604 C280,102.54604 274.922274,135.527635 246.198319,165 C246.198319,165 243.606158,163.758846 228.118716,144.566244 C212.631274,125.373643 211,102.54604 211,102.54604 Z" id="Path" fill="#F6CD52" fill-rule="nonzero"></path> <path d="M268.40495,94.6 C271.281075,96.9896592 273.479425,98.7229925 275,99.8 C276.520575,100.877007 278.187241,101.881226 280,102.812655 L279.223792,105 C276.278881,103.269025 274.121252,101.952671 272.750903,101.050938 C271.380555,100.149206 269.485695,98.6322263 267.066324,96.5 L268.40495,94.6 Z" id="Path" fill="#FFEEBD" fill-rule="nonzero"></path> <path d="M281.025882,133 L287,136.702797 C287,136.702797 272.258485,159.945447 240,174 C240,174 268.324575,160.170564 284.355644,136.896488 L281.025882,133 Z" id="Path" fill="#085A93" fill-rule="nonzero"></path> <path d="M240,174 C240,174 265.567804,164.618257 286.274008,136.833411 C281.725647,132.45374 281.008567,132.108396 281.008567,132.108396 L291,129 L282.70202,133.398322 L286.730603,136.775653 L286.321992,137.863427 L287.428012,138.589912 C287.642898,138.602547 287.859571,138.818537 287.764795,139.013771 C284.364477,146.016612 278.749736,151.845344 271.63914,157.853366 C255.087886,171.838291 240,174 240,174 Z" id="Path" fill="#091526" fill-rule="nonzero" opacity="0.4"></path> <polygon id="Path" fill="#091526" fill-rule="nonzero" opacity="0.4" points="202 130 202.343952 132.842361 207.067638 134 209 132.255672"></polygon> <path d="M165.212056,116.893986 C177.639076,115.036353 197.98561,108.470363 211.315686,103 L211.026805,105.589741 C204.893978,108.728047 195.075334,113.778101 195.075334,113.778101 C195.075334,113.778101 195.548676,121.536575 201.129868,130.090239 L199.803973,129.65438 L192.222134,114.609163 C192.222134,114.609163 182.632177,116.982175 167.048049,119.772212 C167.048049,119.772212 143.437128,142.643166 121,146 C141.852448,140.361033 165.212056,116.893986 165.212056,116.893986 Z" id="Path" fill="#085A93" fill-rule="nonzero"></path> <path d="M325.986259,115.966225 C313.551437,114.098934 293.19213,107.498805 279.853388,102 L279.575736,105.380524 C285.712712,108.535148 295.5,114.239867 295.93559,114.239867 C296.371179,114.239867 293.869399,123.5 290.045899,129.23139 L291.372627,128.793265 L298.743636,115.172611 C298.743636,115.172611 308.339912,117.557961 323.933823,120.362505 C323.933823,120.362505 344.548787,141.626013 367,145 C346.134461,139.331414 325.986259,115.966225 325.986259,115.966225 Z" id="Path" fill="#085A93" fill-rule="nonzero"></path> <path d="M209.651687,133 L206.555275,136.547419 C216.10262,146.765311 230.267439,159.781223 244,167 C219.61616,157.074638 204,136.568076 204,136.568076 L209.651687,133 Z" id="Path" fill="#085A93" fill-rule="nonzero"></path> <path d="M121,145.1131 C121,145.1131 126.066576,146.024768 129.046095,150.279934 C130.072064,151.651429 132.965675,150.850648 131.673853,149.651166 C128.965411,147.136708 126.188183,144.407233 121,145.1131 Z" id="Path" fill="#091526" fill-rule="nonzero" opacity="0.4"></path> <path d="M92.1906117,145.064273 C104.613052,143.235812 123.567236,143.118995 129,150 L129,150 C119.95784,143.419423 108.146574,147.014847 91.8930897,147.729872 C84.5572004,148.052662 73.3583044,148.961891 64.1578243,146.775623 C63.594743,146.64174 64.7594401,145.923773 64.2444522,145.774589 C75.7169729,146.41664 92.1906117,145.064273 92.1906117,145.064273 Z" id="Path" fill="#085A93" fill-rule="nonzero"></path> <path d="M109.136665,176.990907 C97.9710488,179.509014 83.5559013,177.363589 65,170 L65,170 C74.1865201,172.257732 90.9734655,178.171064 107.119498,175.630684 C114.503787,174.468722 119.597817,173.955502 129.023555,175.178322 C144.542164,177.191992 149.477614,176.125083 162,175.800085 C149.310342,179.236405 119.695543,174.609262 109.136665,176.990907 Z" id="Path" fill="#052542" fill-rule="nonzero" opacity="0.6"></path> <path d="M64,145.862428 C63.9677801,146.403817 63.8725983,148 63.8725983,148 C63.8725983,148 63.8725983,148 59,146.708128 L59.5453739,145 C61.5359149,145.099721 64,145.862428 64,145.862428 Z" id="Path" fill="#085A93" fill-rule="nonzero"></path> <path d="M64.3440979,146 C64.3440979,146 63.1584079,165.220771 63.1584079,170.276157 C62.4785224,170.215256 64.1557348,170.268885 65,171 C64.3440979,162.176631 65.0611708,152.368242 64.3440979,146 Z" id="Path" fill="#091526" fill-rule="nonzero" opacity="0.4"></path> <path d="M245.768536,112.955564 L247.046766,116.524255 L244,161 L252.555008,153.728229 C252.555008,153.728229 251.295473,136.41993 248.813191,120.80067 C248.10638,116.353787 249.175944,116.567247 250.274457,118.581889 C250.662238,119.292621 251.847896,121.712536 251.847896,121.712536 C251.847896,121.712536 271.622928,114.16928 277,101 C269.924651,109.977346 264.974862,113.445921 252.672308,118.033507 L247.154416,110.832088 L245.768536,112.955564 Z" id="Path" fill="#091526" fill-rule="nonzero" opacity="0.4"></path> <path d="M245,111 L246,113.927344 C241.600107,118.322337 239.159862,120.713561 238.679264,121.101018 C237.958368,121.682202 221.516437,114.47607 213.496435,101.050938 C220.571719,110.028285 226.479287,113.412414 238.78173,118 L245,111 Z" id="Path" fill="#091526" fill-rule="nonzero" opacity="0.4"></path> <path d="M318.957419,145 C319.93748,151.349763 319.444204,163.550941 317,174.216077 C326.592379,176.415368 329.436288,177.211328 339,178 C317.666896,174.30202 324.941094,163.892587 318.957419,145 Z" id="Path" fill="#091526" fill-rule="nonzero" opacity="0.6"></path> <path d="M281.084585,272.450938 C280.180192,270.900924 275.844328,277.455543 276.004316,275.698002 C277.177055,262.828033 276.674281,243.523228 292.422364,218.897887 C307.767927,194.902313 319.562556,176.444087 318.02902,145 C318.02902,145 326.822613,173.996286 291.483152,228.526481 C285.473877,240.57353 281.712527,257.23199 281.084585,272.450938 Z" id="Path" fill="#052542" fill-rule="nonzero"></path> <path d="M171.932612,145 C171.398033,151.22447 171.667093,163.184896 173,173.639589 C167.768089,175.795485 166.21657,175.226593 161,176 C172.636533,172.374988 168.668789,163.519801 171.932612,145 Z" id="Path" fill="#091526" fill-rule="nonzero" opacity="0.6"></path> <path d="M209.651682,273.139558 C210.557358,271.581165 212.14898,278.475005 211.988766,276.707964 C210.814362,263.768428 213.498627,245.792115 197.728197,221.033664 C182.361158,196.908385 171.922285,177.006061 172.98036,145 C172.98036,145 164.518163,174.010009 197.317291,224.445809 C206.628653,241.469503 209.022849,257.838346 209.651682,273.139558 Z" id="Path" fill="#052542" fill-rule="nonzero"></path> <circle id="Oval" stroke="#091526" stroke-width="0.9" fill="#091526" fill-rule="nonzero" stroke-linecap="round" stroke-linejoin="round" cx="247.5" cy="179.5" r="2.5"></circle> <circle id="Oval" stroke="#091526" stroke-width="0.9" fill="#091526" fill-rule="nonzero" stroke-linecap="round" stroke-linejoin="round" cx="252.5" cy="250.5" r="2.5"></circle> <circle id="Oval" stroke="#091526" stroke-width="0.9" fill="#091526" fill-rule="nonzero" stroke-linecap="round" stroke-linejoin="round" cx="252.5" cy="215.5" r="2.5"></circle> <polygon id="Path" stroke="#091526" stroke-width="1.5" fill="#043070" fill-rule="nonzero" points="243.977722 111 240 157.52419 246.643356 165 253 156.504024 247.778895 111"></polygon> <path d="M225.401142,87 C223.568131,94.725441 218.094669,98.5755861 214,101.402537 C223.681381,114.543391 238.78173,118 238.78173,118 L243,112.551151 C243,112.551151 234.226448,112.51594 230.802148,110.406231 C227.363235,108.287645 224.181874,98.4631471 224.056447,95.1337718 C225.933906,90.360444 225.808782,87.4512351 225.401142,87 Z" id="Path" fill="#F7CE54" fill-rule="nonzero"></path> <path d="M212.338625,94.6 C215.214751,96.9896592 217.413101,98.7229925 218.933676,99.8 C220.454251,100.877007 222.120917,101.881226 223.933676,102.812655 L223.157468,105 C220.212557,103.269025 218.054928,101.952671 216.684579,101.050938 C215.314231,100.149206 213.419371,98.6322263 211,96.5 L212.338625,94.6 Z" id="Path" fill="#FFEEBD" fill-rule="nonzero" transform="translate(217.466838, 99.800000) scale(-1, 1) translate(-217.466838, -99.800000) "></path> <path d="M265.598858,87 C267.431869,94.725441 272.905331,98.5755861 277,101.402537 C267.318619,114.543391 252.21827,118 252.21827,118 L248,112.551151 C248,112.551151 243.066871,107.647565 246.5,105.551763 C248.802148,104.146573 266.818126,98.4631471 266.943553,95.1337718 C265.066399,90.360444 265.191218,87.4512351 265.598858,87 Z" id="Path" stroke="#091526" stroke-width="1.5" stroke-linecap="round" stroke-linejoin="round"></path> <path d="M205.245946,138 L204,138.749319 C204,138.749319 218.227307,157.013081 241.49356,166.882124 L236.834672,171.589087 C236.834672,171.589087 244.836187,196.054248 246,272 L245.380815,227.387271 C245.380815,227.387271 244.836187,191.781386 239.255342,171.588787 L244.406122,166.235475 C244.406122,166.235475 231.903016,162.094404 221.17442,152.851296 C210.446128,143.608488 205.245946,138 205.245946,138 Z" id="Path" fill="#091526" fill-rule="nonzero" opacity="0.4"></path> <polygon id="Path" fill="#091526" fill-rule="nonzero" opacity="0.6" points="245.74855 164 247 165.051788 244.87854 167 243 166.327457"></polygon> <path d="M326,116 C302.131053,109.444543 265.068294,105.122934 265.068294,83.3861005 C264.867821,81.4657117 265.120146,79.3107461 265.675139,77" id="Path" stroke="#091526" stroke-width="1.5" stroke-linecap="round" stroke-linejoin="round"></path> <path d="M165,117 C188.855735,111.263891 226,105.122934 226,83.3861005 C225.875357,81.0783734 225.618526,78.9457485 225.22015,77" id="Path" stroke="#091526" stroke-width="1.5" stroke-linecap="round" stroke-linejoin="round"></path> <path d="M282,272 C285.231822,234.18704 292.700059,229.516205 304.046837,207.254554 C316.112917,183.581609 320.670174,169.64759 318.463091,145" id="Path" stroke="#091526" stroke-width="1.5" stroke-linecap="round" stroke-linejoin="round"></path> <path d="M209,272 C205.768169,234.18704 198.299912,229.516205 186.953103,207.254554 C174.886989,183.581609 170.330016,169.64759 172.53681,145" id="Path" stroke="#091526" stroke-width="1.5" stroke-linecap="round" stroke-linejoin="round"></path> <path d="M239,172 C246,195.324593 245.981756,248.079242 246,272" id="Path" stroke="#091526" stroke-width="1.5" stroke-linecap="round" stroke-linejoin="round"></path> <g id="Group-3" transform="translate(284.279801, 170.465629) rotate(4.000000) translate(-284.279801, -170.465629) translate(270.279801, 165.965629)" stroke="#091526" stroke-width="1.5"> <path d="M3.90656437,8.404425 L22.3238362,8.404425 L13.5941701,0.608096673 C13.2085082,0.263668067 12.6238701,0.270052224 12.2458215,0.622820429 L3.90656437,8.404425 L3.90656437,8.404425 Z" id="Path-18" fill="#F6CD52"></path> <line x1="-1.36424205e-12" y1="8.404425" x2="27.321702" y2="8.404425" id="Path-19" stroke-linecap="round" stroke-linejoin="round"></line> </g> <path d="M280,103 C280,103 274.23529,138.726703 240,172" id="Path" stroke="#091526" stroke-width="1.5" stroke-linecap="round" stroke-linejoin="round"></path> <path d="M240,174 C240,174 266.422671,164.583413 286.792852,136.197176 L281.122903,132.168397 L291.180878,128.83257 C294.990155,123.067337 297.698761,117.41503 300,110" id="Path" stroke="#091526" stroke-width="1.5" stroke-linecap="round" stroke-linejoin="round"></path> <path d="M34.108067,129.33872 C35.9859021,131.582119 37.8485485,133.134266 39.6960059,133.99516 C42.4671921,135.2865 48.6096767,137.503864 50,138.251932 C51.3903233,139 55.9996612,142.904623 57,144.452312 C57.6668925,145.484104 58.3335592,146.166667 59,146.5 L59,144.452312 L54.8498761,139.452343 L50.7868676,136.792992 L43.7804351,133.99516 L38.7366638,131.655662 L34.108067,128 L34.108067,129.33872 Z" id="Path-42" fill="#1683C3"></path> <path d="M211.026805,103.800756 C211.294192,108.670938 214.214958,135.100247 246,165" id="Path" stroke="#091526" stroke-width="1.5" stroke-linecap="round" stroke-linejoin="round"></path> <path d="M245,167 C245,167 228.153605,163.164199 204.322524,136.990286 L210.041875,132.993324 L199.895963,129.683841 C196.053496,123.964139 193.128201,117.687864 191,111" id="Path" stroke="#091526" stroke-width="1.5" stroke-linecap="round" stroke-linejoin="round"></path> <path d="M225.389729,87 C223.558297,94.725441 218.090765,98.5755861 214,101.402537 C223.671431,114.543391 238.756261,118 238.756261,118 L245,111.1" id="Path" stroke="#091526" stroke-width="1.5" stroke-linecap="round" stroke-linejoin="round"></path> <path d="M265.631082,87 C267.458913,94.725441 272.916904,98.5755861 277,101.402537 C267.345982,114.543391 252.288313,118 252.288313,118 L248,112.613288" id="Path" stroke="#091526" stroke-width="0.9" stroke-linecap="round" stroke-linejoin="round"></path> <path d="M165,117 C152.844645,128.748338 140.919387,139.050161 122.454862,145.504029" id="Path" stroke="#091526" stroke-width="1.5" stroke-linecap="round" stroke-linejoin="round"></path> <path d="M174,173.670257 C158.460849,178.018688 144.101652,178.04905 123.09273,176.533011 C107.717445,175.423643 102.259934,183.676174 63,170" id="Path" stroke="#091526" stroke-width="1.5" stroke-linecap="round" stroke-linejoin="round"></path> <path d="M129,150 C120.719342,137.936709 82.5247585,148.295887 64,145.383718" id="Path" stroke="#091526" stroke-width="1.5" stroke-linecap="round" stroke-linejoin="round"></path> <path d="M24.7311817,144.452312 L24.7311817,143.392251 C20.352536,141.613665 17.2193444,140.816248 15.3316066,141 C13.4438689,141.183752 13.4438689,141.376778 15.3316066,141.579078 L23.7385689,144.452312 L24.7311817,144.452312 Z" id="Path-41" fill="#1577B1"></path> <path d="M60,145 C60,145 55.2710143,139.068231 50.7868676,136.792992 C50.7868676,136.792992 41.3468633,134.290229 33.3229053,128 C33.3229053,128 31.0840295,135.779557 38.396919,137.24804 L42.2908942,140.322402" id="Path" stroke="#091526" stroke-width="1.5" stroke-linecap="round" stroke-linejoin="round"></path> <path d="M23,147.752395 C23,147.752395 5.14433102,141.331938 1,148.103097 C1,148.103097 5.93651116,148.579129 11.5855669,150" id="Path" stroke="#091526" stroke-width="1.5" stroke-linecap="round" stroke-linejoin="round"></path> <path d="M24,144.692478 C24,144.692478 3.49980447,135.252119 4.54747351e-13,143.151467 C4.54747351e-13,143.151467 3.85160143,143.3439 9.75979211,145" id="Path" stroke="#091526" stroke-width="1.5" stroke-linecap="round" stroke-linejoin="round"></path> <path d="M10,140.289748 C15.6947321,136.537678 26.0452965,142.16595 26.0452965,142.16595 C26.0452965,142.16595 29.8821896,141.962195 33.8065938,142.817634 C37.2742372,143.57354 40.9951981,141.815375 42.4671921,140.549493" id="Path" stroke="#091526" stroke-width="1.5" stroke-linecap="round" stroke-linejoin="round"></path> <polygon id="Path" stroke="#091526" stroke-width="1.5" stroke-linecap="round" stroke-linejoin="round" points="59.4116828 145 50 171.867873 61.9606803 177 64 145.809859"></polygon> <g id="Group-13" transform="translate(215.000000, 0.000000)"> <path d="M18.355913,89.148747 C16.121538,89.5563901 12.4683517,90.2015523 9.9,89.1 C9.97043505,91.8301616 15.6170343,96.0407283 23.1,94.1094948 C23.1,94.1094948 15.5937806,94.7422248 12.0959559,91.1473758 C15.3683211,91.646624 17.42644,90.0117987 18.355913,89.148747 Z" id="Path" fill="#1AA2EF" fill-rule="nonzero" opacity="0.4"></path> <path d="M40.1221463,93.7919657 C41.637158,94.3007875 43.1466123,94.1059445 44.0181995,93.7593941 C43.3003674,94.9070306 41.8001754,95.9572457 38.5,96.8 C42.4460699,96.2172319 44.0740823,94.6464576 44.7860483,93.8732481 C44.7860483,93.8732481 44.9836451,93.3720558 45.0923234,92.6616421 C45.2615156,91.5553803 42.5917976,94.3794289 41.2499918,93.3588511 L40.1221463,93.7919657 Z" id="Path" fill="#1AA2EF" fill-rule="nonzero" opacity="0.7"></path> <path d="M26.4,110.989387 L26.9452762,110.014789 L32.7191489,110 L33,111.109178 L32.7136736,111.811658 C30.7190513,112.322175 28.7508394,112.336669 26.8122584,111.811658 L26.4,110.989387 Z" id="Path" fill="#091526" fill-rule="nonzero" opacity="0.4"></path> <path d="M56.4268721,45.7178741 C52.1892434,35.8650962 42.5006324,29.7 30.2498344,29.7 C17.9990364,29.7 8.31042533,35.8650962 4.07279666,45.7178741 C2.56728409,49.2181468 4.0254285,57.6400411 3.3,66.9069195 C5.81515004,83.5593536 11.3688186,100.1 30.2501656,100.1 C44.0505319,100.1 51.0394889,89.1503867 54.6871687,76.5463142 C55.8054548,72.6820736 56.6097198,70.8145601 57.2,66.9069195 C56.4742403,57.6400411 57.9323847,49.2181468 56.4268721,45.7178741 Z" id="Path" fill="#1AA2EF" fill-rule="nonzero"></path> <g id="Group-4" transform="translate(13.200000, 60.500000)"> <g id="Group"> <path d="M6.05,9.9 C9.075,9.9 12.1,9.39132274 12.1,6.05 C12.1,2.70867726 9.39132274,0 6.05,0 C2.70867726,0 0,2.70867726 0,6.05 C0,9.39132274 3.025,9.9 6.05,9.9 Z" id="Oval" stroke="#091526" stroke-width="1.5" fill="#FFFFFF" stroke-linecap="round" stroke-linejoin="round"></path> <circle id="Oval" fill="#091526" fill-rule="nonzero" cx="6.6" cy="2.2" r="2.2"></circle> </g> </g> <g id="Group-4" transform="translate(35.200000, 60.500000)"> <g id="Group"> <path d="M6.05,9.9 C9.075,9.9 12.1,9.39132274 12.1,6.05 C12.1,2.70867726 9.39132274,0 6.05,0 C2.70867726,0 0,2.70867726 0,6.05 C0,9.39132274 3.025,9.9 6.05,9.9 Z" id="Oval" stroke="#091526" stroke-width="1.5" fill="#FFFFFF" stroke-linecap="round" stroke-linejoin="round"></path> <circle id="Oval" fill="#091526" fill-rule="nonzero" cx="6.6" cy="2.2" r="2.2"></circle> </g> </g> <path d="M18.9059341,87.122623 C18.9059341,87.122623 14.9212359,89.2583607 17.2079168,93.8455738 C19.6714607,98.787541 26.0408404,97.6580328 26.0408404,97.6580328 L26.3378119,98.1219672 C26.6882384,98.6688525 27.2953802,99 27.9477277,99 L31.096286,99 C31.7948291,99 32.4372775,98.6209836 32.7715355,98.0118033 L32.9658869,97.6580328 C32.9658869,97.6580328 39.1237568,98.1154098 42.0400174,93.7390164 C44.4633052,90.1016393 40.9956675,86.9819672 40.9956675,86.9819672 C36.0920073,88.3072131 32.1162183,87.8586885 29.5592933,84.7 C26.9228459,87.8704918 23.4020832,88.757377 18.9059341,87.122623 Z" id="Path" fill="#1AA2EF" fill-rule="nonzero"></path> <path d="M4.4,74.8 C4.4,74.8 1.51239299,74.641502 0.753153175,69.7290901 C-0.673297391,60.5 2.68225403,60.5 2.68225403,60.5" id="Path" fill="#1AA2EF" fill-rule="nonzero"></path> <path d="M57.717746,60.5 L56,74.8 C56,74.8 58.887607,74.641502 59.6468468,69.7290901 C61.0732974,60.5 57.717746,60.5 57.717746,60.5 Z" id="Path" fill="#1AA2EF" fill-rule="nonzero"></path> <path d="M18.1372441,0 C14.6983288,8.07551729 21.1788851,8.02816409 30.3161924,10.7171729 C36.7798017,12.6191388 33.5113331,20.3576319 31.1221474,25.215744 L28.1407982,25.3 C30.8959716,20.4396019 29.2808025,15.7617586 24.2798402,14.9613262 C16.1489175,13.6596029 9.98578958,7.73228821 18.1372441,0 L18.1372441,0 Z" id="Path" fill="#043070" fill-rule="nonzero"></path> <path d="M24.4134021,15.1826513 C16.173813,13.8619741 9.92806715,7.84684438 18.1884632,0 L18.1884632,0 C14.7034487,8.1951585 21.270878,8.14710375 30.5306727,10.875951 C30.5306727,10.875951 38.1883251,12.0216427 31.0709953,25.3 C32.7870809,20.745072 33.7716174,13.5829251 30.2152644,12.5717867 C23.7541821,10.734438 20.3177173,10.1239769 18.1934173,8.26773775 C15.9915037,6.34355908 16.3429115,4.55956772 16.3429115,4.55956772 C16.3429115,4.55956772 13.6730046,7.47102305 16.9212152,11.2766282 C19.6340573,14.4545389 24.4134021,15.1826513 24.4134021,15.1826513 Z" id="Path" fill="#1AA2EF" fill-rule="nonzero" opacity="0.5"></path> <path d="M24.4414736,29.6092723 L24.2,25.8423354 C26.2958625,25.4414898 28.4240281,25.2635118 30.5461169,25.3061886 C32.0758759,25.3368526 33.6027564,25.4825859 35.1117262,25.7418078 L35.2,29.7 C31.2369552,29.1395116 27.7590963,29.1553179 24.4414736,29.6092723 Z" id="Path" fill="#F6CD52" fill-rule="nonzero"></path> <polygon id="Path" fill="#FBE191" fill-rule="nonzero" points="31.9 25.3 32.0728209 29.4412314 34.1 29.7 34.0263911 25.8007219"></polygon> <polygon id="Path" fill="#FBE191" fill-rule="nonzero" points="29.7 25.3 29.746687 29.5850221 30.8 29.7 30.7072977 25.5024684"></polygon> <path d="M14.7482177,108.5047 C11,105.803469 8.82465649,97 6.6,91.3891097 C7.7,82.0819096 4.4,71.9634196 4.4,71.9634196 L8.82465649,74.3992569 C11.1628117,96.9305203 16.6794337,78.6411273 19.0885616,83.3865194 C19.3869097,85.7882648 41.1134189,85.7882648 41.4114384,83.3865194 C43.8205663,78.6411273 49.3371883,96.9305203 51.6753435,74.3992569 L56,71.9634196 C56,71.9634196 51.6753435,81.4 53.9,91.3891097 C52.8327813,97.1051502 48.760427,105 46.1025348,108.955608 C40.9465017,111.814797 19.3793344,111.842212 14.7482177,108.5047 Z" id="Path" fill="#043070" fill-rule="nonzero"></path> <path d="M18.9059341,87.122623 C18.9059341,87.122623 14.9212359,89.2583607 17.2079168,93.8455738 C19.6714607,98.787541 26.0408404,97.6580328 26.0408404,97.6580328 L26.3378119,98.1219672 C26.6882384,98.6688525 27.2953802,99 27.9477277,99 L31.096286,99 C31.7948291,99 32.4372775,98.6209836 32.7715355,98.0118033 L32.9658869,97.6580328 C32.9658869,97.6580328 39.1237568,98.1154098 42.0400174,93.7390164 C44.4633052,90.1016393 40.9956675,86.9819672 40.9956675,86.9819672 C36.0920073,88.3072131 32.1162183,87.8586885 29.5592933,84.7 C26.9228459,87.8704918 23.4020832,88.757377 18.9059341,87.122623 Z" id="Path" fill="#1AA2EF" fill-rule="nonzero"></path> <path d="M28.6,84.3740985 C33.0453933,91.7609238 46.9522061,86.6435574 43.4364553,79.8652026 C40.0361354,86.0713926 34.9398945,77.0790848 28.6,79.6885611" id="Path" fill="#043070" fill-rule="nonzero"></path> <path d="M29.7,84.3740985 C25.2546067,91.7609238 11.3477939,86.6435574 14.8635447,79.8652026 C18.2641907,86.0713926 23.3604316,77.0790848 29.7,79.6885611" id="Path" fill="#043070" fill-rule="nonzero"></path> <path d="M43.5840885,79.2 C44.9735754,83.1392543 42.8039206,85.2036364 38.2354467,86.9 C38.2354467,86.9 43.3814025,85.1422409 42.8537253,81.9727382 C39.7894781,83.6730055 36.3,80.2891506 36.3,80.2891506 C39.1770069,82.1139835 41.7763056,82.0100014 43.5840885,79.2 Z" id="Path" fill="#1AA2EF" fill-rule="nonzero" opacity="0.7"></path> <path d="M13.6423489,79.2 C12.1645394,83.1392543 14.472108,85.2036364 19.3309765,86.9 C19.3309765,86.9 13.6949841,85.1049776 14.2448043,81.5766834 C17.8233293,82.9259667 19.8,80.8090612 19.8,80.8090612 C16.7404517,82.634249 15.5650433,82.0100014 13.6423489,79.2 Z" id="Path" fill="#1AA2EF" fill-rule="nonzero" opacity="0.4"></path> <path d="M4.3,74.8 C4.3,74.8 0.951104004,74.641502 0.301948503,69.7290901 C-0.917676984,60.5 2.9513436,60.5 2.9513436,60.5" id="Path" stroke="#091526" stroke-width="1.5" stroke-linecap="round" stroke-linejoin="round"></path> <g id="Group" transform="translate(55.100000, 60.500000)"> <path d="M0.290786155,14.0338661 C0.290786155,13.8807461 4.13335,13.71645 4.77619,8.97072 C5.98333,0.05478 2.14368,0.05478 2.14368,0.05478" id="Path" stroke="#091526" stroke-width="1.5" stroke-linecap="round" stroke-linejoin="round"></path> <path d="M3.25753,10.2267 C3.49414,10.06434 3.77893,9.94422 4.09243,9.89472 C4.40725,9.84489 4.75507,9.87822 5.0755,9.99768 C5.72494,10.24848 6.17011,10.80321 6.39847,11.36586 C6.64498,11.93412 6.68656,12.54264 6.63838,13.11717 C6.57931,13.69335 6.40606,14.24214 6.1381,14.75001 C5.86618,15.25425 5.4946,15.7245 4.98937,16.08783 C4.73395,16.26669 4.44091,16.41024 4.13764,16.50924 C3.82777,16.60725 3.48358,16.64751 3.13609,16.60989 C2.78926,16.57557 2.43682,16.44588 2.15335,16.23897 C1.87054,16.03239 1.64383,15.76674 1.50028,15.48261 C1.2178,14.90841 1.18084,14.31936 1.264,13.79499 C1.30096,13.56003 1.52173,13.39965 1.75669,13.43694 C1.9372,13.46565 2.07382,13.6026 2.11045,13.77156 L2.1154,13.79499 C2.2045,14.21211 2.34541,14.5893 2.55595,14.82822 C2.76616,15.06813 2.99452,15.15162 3.23839,15.1404 C3.36313,15.12918 3.49414,15.0975 3.63274,15.04404 C3.77365,14.98002 3.904,14.90445 4.02907,14.80017 C4.27921,14.59029 4.50955,14.30253 4.68214,13.97253 C5.03128,13.31484 5.18671,12.51459 5.01214,11.86779 C4.82932,11.22033 4.42342,10.81938 3.62317,10.99461 L3.59215,11.00154 C3.36016,11.05236 3.13081,10.90551 3.07966,10.67352 C3.04171,10.49763 3.11728,10.32273 3.25753,10.2267 Z" id="Path" fill="#F6CD52" fill-rule="nonzero"></path> </g> <path d="M56,71.5 C57.2,61.8151097 57.9323892,49.2846755 56.4271986,45.7724719 C52.1895439,35.8861103 42.5008733,29.7 30.25,29.7 C17.9991267,29.7 8.31045613,35.8861103 4.07280141,45.7724719 C2.56727959,49.2846755 3,61.7098787 4.55254526,71.5" id="Path" stroke="#091526" stroke-width="1.5" stroke-linecap="round" stroke-linejoin="round"></path> <path d="M6.6,91.5549565 C6.6,92.1994277 6.03967436,89.6835853 6.6,86.0378055 C6.6,83.05 6.01211265,77.7497481 5.30882722,72.3819332 C5.30882722,72.3819332 8.69994185,74.0981832 8.74215817,74.8 C9.40706513,85.8953733 9.28873152,88.2372468 8.74215817,92.1994277 C11.8640923,102 15.4943283,109.444543 15.4943283,109.444543 C11,106.98995 6.6,90.9104853 6.6,91.5549565 Z" id="Path" fill="#085A93" fill-rule="nonzero" opacity="0.4"></path> <path d="M53.9,91.5549565 C53.9,91.5549565 53.8177621,88.9948541 53.2574365,85.3490743 C53.2574365,82.5952872 54.6875007,77.3312345 55.3907862,71.9634196 C55.3907862,71.9634196 51.8000581,73.8320493 51.7578418,74.5338661 C51.0929349,85.6292395 51.2112685,88.2372468 51.7578418,92.1994277 C49.2273815,102 45,109.444543 44,109.444543 C48.6246054,107.241406 53.9,91.5549565 53.9,91.5549565 Z" id="Path" fill="#085A93" fill-rule="nonzero" opacity="0.7"></path> <path d="M44.3114606,83.8987226 C46.5493998,86.2477117 50.1040874,89.5389677 51.6753435,74.3992569 L55.9474547,71.5 C55.9474547,71.5 51.6385656,83.05 53.9,91.3891097 C53.1885209,95.1998033 50.5893658,101.055303 46.1025348,108.955608 C39.6288634,110.318536 34.5946851,111 31,111 C27.4053149,111 21.8711366,110.318536 14.3974652,108.955608 C9.91063418,101.055303 7.31147913,95.1998033 6.6,91.3891097 C7.7,81.8048303 4.55254526,71.5 4.55254526,71.5 L8.82465649,74.3992569 C10.139951,87.0731134 13.1446004,86.8310357 15.0753199,85.0379907" id="Path" stroke="#091526" stroke-width="1.5" stroke-linecap="round" stroke-linejoin="round"></path> <path d="M31.3398753,60.5 C31.3398753,60.5 32.906353,67.1 30.8,73.7" id="Path" stroke="#091526" stroke-width="1.5" stroke-linecap="round" stroke-linejoin="round"></path> <path d="M9.12444979,54.4350449 C8.72547979,54.9531449 8.06085979,54.5792549 8.31957979,53.9789849 C10.1197298,49.8034949 8.84196979,49.4028749 11.6255198,48.0284249 C15.3551798,46.1866949 21.3869198,46.0381949 21.8908298,46.6678349 C22.2782498,47.1519449 24.0668498,49.9081049 22.5455498,49.7612549 C19.0531598,49.4243249 17.1916298,49.9417649 13.4817698,50.8941449 C11.3073998,51.4528349 11.0506598,51.9339749 9.12444979,54.4350449 Z" id="Path" fill="#091526" fill-rule="nonzero" transform="translate(15.705145, 50.505942) rotate(-9.000000) translate(-15.705145, -50.505942) "></path> <path d="M50.6787098,54.4350449 C51.0773498,54.9531449 51.7422998,54.5792549 51.4832498,53.9789849 C49.6830998,49.8034949 50.8314998,49.1675849 48.0479498,47.7931349 C44.3179598,45.9514049 38.2865498,45.8029049 37.7826398,46.4325449 C37.3952198,46.9166549 35.7359798,49.9081049 37.2569498,49.7612549 C40.7493398,49.4243249 42.6108698,49.9417649 46.3207298,50.8941449 C48.4954298,51.4528349 48.7521698,51.9339749 50.6787098,54.4350449 Z" id="Path" fill="#091526" fill-rule="nonzero" transform="translate(44.083999, 50.388297) rotate(8.000000) translate(-44.083999, -50.388297) "></path> <path d="M19.8,90.2 C19.8,90.2 28.1781056,95.15 38.5,90.2" id="Path" stroke="#091526" stroke-width="1.5" stroke-linecap="round" stroke-linejoin="round"></path> <path d="M29.1387693,85.1528608 C34.0640975,91.3748217 46.8205688,86.389404 43.4363663,79.8652028 C40.0360668,86.0713949 34.9398565,77.0790841 28.6,79.6885613" id="Path" stroke="#091526" stroke-width="1.5" stroke-linecap="round" stroke-linejoin="round"></path> <path d="M29.1162378,85.2091174 C24.1589409,91.344603 11.4896494,86.3696122 14.8636379,79.8651857 C18.2642625,86.0712186 23.3604714,77.0791385 29.7,79.6885487" id="Path" stroke="#091526" stroke-width="1.5" stroke-linecap="round" stroke-linejoin="round"></path> <path d="M23.3990948,77 C22.168297,79.5490511 25.0578572,79.5908018 26.2419564,79.9564028 C27.4993021,80.3445717 28.1770725,80.7248419 28.5369082,80.997538 C28.8842695,81.2608309 29.2863259,81.4 29.699897,81.4 L29.699897,81.4 C30.1131482,81.4 30.5152046,81.2608309 30.8628858,80.997538 C31.2227214,80.7248419 31.9008117,80.3445717 33.1578376,79.9564028 C34.3422566,79.5908018 37.231497,79.5490511 36.001019,77" id="Path" stroke="#091526" stroke-width="1.5" fill="#1AA2EF" stroke-linecap="round" stroke-linejoin="round"></path> <path d="M18.1372441,0 C14.6983288,8.07551729 21.1788851,8.02816409 30.3161924,10.7171729 C36.7798017,12.6191388 33.5113331,20.3576319 31.1221474,25.215744 L28.1407982,25.3 C30.8959716,20.4396019 29.2808025,15.7617586 24.2798402,14.9613262 C16.1489175,13.6596029 9.98578958,7.73228821 18.1372441,0 L18.1372441,0 Z" id="Path" stroke="#091526" stroke-width="1.65" stroke-linecap="round" stroke-linejoin="round"></path> <path d="M24.4414736,29.7 L24.2,25.8537537 C26.2958625,25.4444687 28.4240281,25.2627436 30.5461169,25.3063189 C32.0758759,25.3376285 33.6027564,25.4864301 35.1117262,25.7511097 L35.2,29.6357668 C31.2369552,29.0634779 27.7590963,29.2364879 24.4414736,29.7 Z" id="Path" stroke="#091526" stroke-width="1.65" stroke-linecap="round" stroke-linejoin="round"></path> </g> <path d="M42.4671921,140.97419 C42.5808382,142.306592 43.1380993,143.981861 44.1389755,146" id="Path-43" stroke="#091526" stroke-width="1.5" stroke-linecap="round" stroke-linejoin="round"></path> <path d="M492,145.176423 C492,145.176423 486.061706,137.64231 482.942181,136.978047 C475.451866,135.382736 465.865192,128 465.865192,128 C465.865192,128 463.764069,135.933391 470.826774,137.442671 C472.910328,139.261302 475.11627,141.186946 475.11627,141.186946 C475.11627,141.186946 472.165585,143.12578 467.963933,142.963011 C463.762282,142.800243 460.123729,141.85091 459.172923,142.241794 C458.222117,142.632678 450.824114,137.124329 443.33231,140.659373 C443.33231,140.659373 435.311653,139.224132 433,143.354495 L443.012199,145.421325 C443.012199,145.421325 436.815433,144.497772 434.610683,148.528615 L444.863784,150.538791 C444.863784,150.538791 441.377694,151.581049 440.548381,154.022277 C440.548381,154.022277 454.524307,155.780057 460.833335,159.997649 C460.833335,159.997649 465.494161,160.078884 466.428887,161.171201 C467.363613,162.263519 481.213875,163.323163 484.48229,166 L492,145.176423 Z" id="Path" fill="#1AA2EF" fill-rule="nonzero" transform="translate(462.500000, 147.000000) scale(-1, 1) translate(-462.500000, -147.000000) "></path> <path d="M440.45222,152.999894 C445.251,152.997205 449.106101,153.362452 452.017524,154.095634 C454.928947,154.828817 457.850106,155.938358 460.781,157.424258 C464.732288,157.908375 467.168586,158.410434 468.089895,158.930436 C469.471858,159.710438 478.813158,160.958632 480.598908,161.479376 C481.789409,161.826539 483.300788,162.389325 485.133048,163.167735 L484.384659,166 C480.591504,164.111823 478.249985,163.167735 477.360101,163.167735 C476.470217,163.167735 473.733894,162.754855 469.15113,161.929095 L464.219506,160.509549 L460.186236,159.880602 L452.017524,156.458253 C446.379008,154.834269 442.350847,154.022277 439.93304,154.022277 C439.478754,153.860931 439.251611,153.780258 439.251611,153.780258 L439.666721,153.150282 L440.45222,152.999894 Z" id="Path-20" fill="#1577B1" transform="translate(462.192329, 159.499947) scale(-1, 1) translate(-462.192329, -159.499947) "></path> <path d="M489.456448,145.394952 C489.456448,145.394952 484.351092,145.071231 480,148 C481.994798,144.148456 491,145.10547 491,145.10547 L489.456448,145.394952 Z" id="Path" fill="#1AA2EF" fill-rule="nonzero" opacity="0.4" transform="translate(485.500000, 146.500000) scale(-1, 1) translate(-485.500000, -146.500000) "></path> <path d="M468.707078,147.5 C477.622631,147.166667 484.859014,148.26592 490.41623,150.797759 C490.746465,151.472766 490.911583,151.81027 490.911583,151.81027 C487.32325,150.825249 485.529083,150.332739 485.529083,150.332739 C480.713738,150.167398 478.306065,150.084728 478.306065,150.084728 L467.504647,148.161439 L468.707078,147.5 Z" id="Path-40" fill="#1577B1" transform="translate(479.208115, 149.626050) scale(-1, 1) translate(-479.208115, -149.626050) "></path> <path d="M469.261431,143 C478.769621,142.892606 486.302323,144.104829 491.859538,146.636669 C491.953179,146.784259 492,147.191387 492,147.858054 C483.375233,145.714616 479.06285,144.642898 479.06285,144.642898 L468.261431,143.354495 L469.261431,143 Z" id="Path-40" fill="#1577B1" transform="translate(480.130716, 145.425749) scale(-1, 1) translate(-480.130716, -145.425749) "></path> <path d="M482.14743,150.000204 C482.14743,150.000204 478.351092,150.071231 474,153 C475.994798,149.148456 485,150.10547 485,150.10547 L482.14743,150.000204 Z" id="Path" fill="#1AA2EF" fill-rule="nonzero" opacity="0.4" transform="translate(479.500000, 151.500000) scale(-1, 1) translate(-479.500000, -151.500000) "></path> <path d="M458.221058,151.941564 C458.221058,151.941564 444.180964,146.506493 440,153.823388 C440,153.823388 452.753597,155.147064 460.801577,159.880602 C460.801577,159.880602 464.55692,160.099152 466.750045,161.196429 C469.272169,162.458223 478.929324,162.763106 485,166" id="Path" stroke="#091526" stroke-width="1.5" stroke-linecap="round" stroke-linejoin="round" transform="translate(462.500000, 158.000000) scale(-1, 1) translate(-462.500000, -158.000000) "></path> <path d="M360,145.1131 C360,145.1131 365.066576,146.024768 368.046095,150.279934 C369.072064,151.651429 371.965675,150.850648 370.673853,149.651166 C367.965411,147.136708 365.188183,144.407233 360,145.1131 Z" id="Path" fill="#091526" fill-rule="nonzero" opacity="0.4" transform="translate(365.500000, 148.000000) scale(-1, 1) translate(-365.500000, -148.000000) "></path> <path d="M391.190612,145.064273 C403.613052,143.235812 422.567236,143.118995 428,150 L428,150 C418.95784,143.419423 407.146574,147.014847 390.89309,147.729872 C383.5572,148.052662 372.358304,148.961891 363.157824,146.775623 C362.594743,146.64174 363.75944,145.923773 363.244452,145.774589 C374.716973,146.41664 391.190612,145.064273 391.190612,145.064273 Z" id="Path" fill="#085A93" fill-rule="nonzero" transform="translate(395.500000, 147.000000) scale(-1, 1) translate(-395.500000, -147.000000) "></path> <path d="M374.136665,176.990907 C362.971049,179.509014 348.555901,177.363589 330,170 L330,170 C339.18652,172.257732 355.973466,178.171064 372.119498,175.630684 C379.503787,174.468722 384.597817,173.955502 394.023555,175.178322 C409.542164,177.191992 414.477614,176.125083 427,175.800085 C414.310342,179.236405 384.695543,174.609262 374.136665,176.990907 Z" id="Path" fill="#052542" fill-rule="nonzero" opacity="0.6" transform="translate(378.500000, 174.000000) scale(-1, 1) translate(-378.500000, -174.000000) "></path> <path d="M433,145.862428 C432.96778,146.403817 432.872598,148 432.872598,148 C432.872598,148 432.872598,148 428,146.708128 L428.545374,145 C430.535915,145.099721 433,145.862428 433,145.862428 Z" id="Path" fill="#085A93" fill-rule="nonzero" transform="translate(430.500000, 146.500000) scale(-1, 1) translate(-430.500000, -146.500000) "></path> <path d="M428.344098,146 C428.344098,146 427.158408,165.220771 427.158408,170.276157 C426.478522,170.215256 428.155735,170.268885 429,171 C428.344098,162.176631 429.061171,152.368242 428.344098,146 Z" id="Path" fill="#091526" fill-rule="nonzero" opacity="0.4" transform="translate(428.000000, 158.500000) scale(-1, 1) translate(-428.000000, -158.500000) "></path> <path d="M433,129.33872 C434.877835,131.582119 436.740482,133.134266 438.587939,133.99516 C441.359125,135.2865 447.50161,137.503864 448.891933,138.251932 C450.282256,139 454.891594,142.904623 455.891933,144.452312 C456.558826,145.484104 457.225492,146.166667 457.891933,146.5 L457.891933,144.452312 L453.741809,139.452343 L449.678801,136.792992 L442.672368,133.99516 L437.628597,131.655662 L433,128 L433,129.33872 Z" id="Path-42" fill="#1683C3" transform="translate(445.445967, 137.250000) scale(-1, 1) translate(-445.445967, -137.250000) "></path> <path d="M369.545138,116 C357.389783,127.748338 344.464524,139.050161 326,145.504029" id="Path" stroke="#091526" stroke-width="1.5" stroke-linecap="round" stroke-linejoin="round" transform="translate(347.772569, 130.752014) scale(-1, 1) translate(-347.772569, -130.752014) "></path> <path d="M429,173.670257 C413.460849,178.018688 399.101652,178.04905 378.09273,176.533011 C362.717445,175.423643 357.259934,183.676174 318,170" id="Path" stroke="#091526" stroke-width="1.5" stroke-linecap="round" stroke-linejoin="round" transform="translate(373.500000, 174.000000) scale(-1, 1) translate(-373.500000, -174.000000) "></path> <path d="M428,150 C419.719342,137.936709 381.524759,148.295887 363,145.383718" id="Path" stroke="#091526" stroke-width="1.5" stroke-linecap="round" stroke-linejoin="round" transform="translate(395.500000, 147.000000) scale(-1, 1) translate(-395.500000, -147.000000) "></path> <path d="M478.084197,144.452312 L478.084197,143.392251 C473.705551,141.613665 470.572359,140.816248 468.684622,141 C466.796884,141.183752 466.796884,141.376778 468.684622,141.579078 L477.091584,144.452312 L478.084197,144.452312 Z" id="Path-41" fill="#1577B1" transform="translate(472.676507, 142.713251) scale(-1, 1) translate(-472.676507, -142.713251) "></path> <path d="M459,145 C459,145 454.271014,139.068231 449.786868,136.792992 C449.786868,136.792992 440.346863,134.290229 432.322905,128 C432.322905,128 430.084029,135.779557 437.396919,137.24804 L441.290894,140.322402" id="Path" stroke="#091526" stroke-width="1.5" stroke-linecap="round" stroke-linejoin="round" transform="translate(445.500000, 136.500000) scale(-1, 1) translate(-445.500000, -136.500000) "></path> <path d="M491,147.752395 C491,147.752395 473.144331,141.331938 469,148.103097 C469,148.103097 473.936511,148.579129 479.585567,150" id="Path" stroke="#091526" stroke-width="1.5" stroke-linecap="round" stroke-linejoin="round" transform="translate(480.000000, 147.500000) scale(-1, 1) translate(-480.000000, -147.500000) "></path> <path d="M492,144.692478 C492,144.692478 471.499804,135.252119 468,143.151467 C468,143.151467 471.851601,143.3439 477.759792,145" id="Path" stroke="#091526" stroke-width="1.5" stroke-linecap="round" stroke-linejoin="round" transform="translate(480.000000, 142.500000) scale(-1, 1) translate(-480.000000, -142.500000) "></path> <path d="M449.532808,140.289748 C455.22754,136.537678 465.578104,142.16595 465.578104,142.16595 C465.578104,142.16595 469.414997,141.962195 473.339402,142.817634 C476.807045,143.57354 480.528006,141.815375 482,140.549493" id="Path" stroke="#091526" stroke-width="1.5" stroke-linecap="round" stroke-linejoin="round" transform="translate(465.766404, 141.000000) scale(-1, 1) translate(-465.766404, -141.000000) "></path> <polygon id="Path" stroke="#091526" stroke-width="1.5" stroke-linecap="round" stroke-linejoin="round" transform="translate(435.000000, 161.000000) scale(-1, 1) translate(-435.000000, -161.000000) " points="437.411683 145 428 171.867873 439.96068 177 442 145.809859"></polygon> <path d="M447.861025,140.97419 C447.974671,142.306592 448.531932,143.981861 449.532808,146" id="Path-43" stroke="#091526" stroke-width="1.5" stroke-linecap="round" stroke-linejoin="round" transform="translate(448.696916, 143.487095) scale(-1, 1) translate(-448.696916, -143.487095) "></path> <g id="Group-14" transform="translate(0.000000, 88.000000)" fill="#FFFFFF"> <polygon id="Star" transform="translate(60.457662, 32.657408) rotate(-40.000000) translate(-60.457662, -32.657408) " points="60.457662 34.2589708 57.6292349 35.4858355 58.8560995 32.6574083 57.6292349 29.8289812 60.457662 31.0558458 63.2860891 29.8289812 62.0592245 32.6574083 63.2860891 35.4858355"></polygon> <polygon id="Star" transform="translate(43.000000, 5.000000) rotate(-7.000000) translate(-43.000000, -5.000000) " points="43 6.6015625 40.1715729 7.82842712 41.3984375 5 40.1715729 2.17157288 43 3.3984375 45.8284271 2.17157288 44.6015625 5 45.8284271 7.82842712"></polygon> <polygon id="Star" transform="translate(9.500000, 29.500000) rotate(-50.000000) translate(-9.500000, -29.500000) " points="9.5 32.1025391 4.90380592 34.0961941 6.89746094 29.5 4.90380592 24.9038059 9.5 26.8974609 14.0961941 24.9038059 12.1025391 29.5 14.0961941 34.0961941"></polygon> </g> <g id="Group-14" transform="translate(421.000000, 88.000000)" fill="#FFFFFF"> <polygon id="Star" transform="translate(60.457662, 32.657408) rotate(-40.000000) translate(-60.457662, -32.657408) " points="60.457662 34.2589708 57.6292349 35.4858355 58.8560995 32.6574083 57.6292349 29.8289812 60.457662 31.0558458 63.2860891 29.8289812 62.0592245 32.6574083 63.2860891 35.4858355"></polygon> <polygon id="Star" transform="translate(43.000000, 5.000000) rotate(-7.000000) translate(-43.000000, -5.000000) " points="43 6.6015625 40.1715729 7.82842712 41.3984375 5 40.1715729 2.17157288 43 3.3984375 45.8284271 2.17157288 44.6015625 5 45.8284271 7.82842712"></polygon> <polygon id="Star" transform="translate(9.500000, 29.500000) rotate(-50.000000) translate(-9.500000, -29.500000) " points="9.5 32.1025391 4.90380592 34.0961941 6.89746094 29.5 4.90380592 24.9038059 9.5 26.8974609 14.0961941 24.9038059 12.1025391 29.5 14.0961941 34.0961941"></polygon> </g> </g> <g id="Group-2" transform="translate(135.000000, 247.000000)"> <path d="M47.538183,33.479966 C51.7526879,27.8132993 58.1388712,26.0889045 66.6967328,28.3067816 C67.0050094,23.1796641 68.7727652,19.0960489 72,16.0559358 C75.2272348,13.0158227 78.7089237,11.1651069 82.4450664,10.5037883 C86.2041876,3.9413291 91.2062157,0.773399669 97.4511508,1 C107.255362,1.35575029 112.271645,5.31733437 112.5,12.8847522 C115.901893,9.96884671 120.33451,8.25174641 125.797852,7.73345132 C135.571874,6.80621155 140.458885,10.3913944 140.458885,18.489 C143.976016,14.5660253 148.474344,12.8970816 153.953872,13.482169 C159.433399,14.0672563 163.593072,17.0476172 166.432891,22.4232516 C180.543571,18.650296 189.209337,22.7059165 192.430187,34.590113 C204.08006,33.528989 234.82105,41.3515736 225.219321,68.4257868 C215.617593,95.5 196.166238,90.4482902 190.606198,87.264122 C191.930282,93.1014984 189.282114,100.796837 182.133491,101.857961 C174.984868,102.919881 169.160329,99.7357128 167.571746,92.5713344 C165.983163,97.0825047 163.33579,101.592879 156.451666,100.531755 C162.541498,109.023135 163.070497,120.167724 150.891626,127.066225 C138.712755,133.965521 126.004092,124.678098 120.444052,116.717678 C109.85297,119.105804 83.3768531,126.005101 66.6967328,93.8983365 C59.5481098,96.2864626 52.9292792,92.0411703 52.9292792,92.0411703 C52.9292792,92.0411703 34.396077,126.536061 12.4204156,110.085056 C-9.55524579,93.6332544 1.56483442,72.4059971 15.5975814,68.4257868 C13.7444994,59.9344062 15.8620804,50.1168196 25.1290787,49.0556955 C21.6866196,40.0325589 28.9597473,25.6574083 47.538183,33.479966 Z" id="XMLID_3_" fill="#1AA2EF" fill-rule="nonzero"></path> <path d="M97.7308023,142.516222 C97.7308023,142.516222 91.8765577,130.337913 105.448378,123.454106 C119.020198,116.5703 134.188703,129.278377 127.26947,137.220925 C120.350237,145.163473 108.109253,143.83945 108.109253,143.83945 C108.109253,143.83945 113.165155,153.900276 104.383389,158.665804 C106.778416,162.10731 103.585047,166.343866 103.585047,166.343866 C103.585047,166.343866 112.632661,166.873633 111.302623,175.080668 C118.221856,176.13941 119.286046,178.787455 118.753552,180.904939 C122.213568,181.964475 123.01191,188.318513 119.818541,189.907023 C116.625171,191.495532 110.50428,189.907023 107.843405,183.552984 C104.384188,184.877007 85.7556668,184.877007 89.2156826,174.021927 C79.3697262,174.286414 65.5312596,168.462143 73.2488352,159.460853 C80.9664109,150.459564 88.6831883,156.283834 88.6831883,156.283834 L90.545721,153.90107 C90.545721,153.90107 87.0865035,145.693241 97.7308023,142.516222 Z" id="XMLID_4_" fill="#1689C9" fill-rule="nonzero"></path> <path d="M61.6455033,117.040621 C54.0735264,118.415947 47.8534609,119.690309 49.1791139,127.375438 C50.5055625,135.060568 64.2976049,128.70068 65.6240535,124.990481 C66.9505022,121.280281 64.563372,116.510366 61.6455033,117.040621 Z" id="XMLID_6_" fill="#1AA2EF" fill-rule="nonzero"></path> <path d="M70.0143213,118.049155 C69.6544506,113.341806 76.2089968,114.928228 74.8016152,117.19807 C73.3933888,119.467913 70.2956287,121.737756 70.0143213,118.049155 Z" id="XMLID_5_" fill="#1689C9" fill-rule="nonzero"></path> <path d="M76.9450142,136.012122 C73.9484897,135.757401 74.4935352,139.582045 78.034288,141.366625 C81.5750407,143.151204 87.2951582,140.856417 84.0265196,138.306909 C80.7578811,135.756636 76.9450142,136.012122 76.9450142,136.012122 Z" id="XMLID_8_" fill="#1689C9" fill-rule="nonzero"></path> <path d="M117.003012,150.019941 C113.924721,151.62545 114.773443,156.479966 117.003012,156.479966 C119.232581,156.479966 122.452821,147.177933 117.003012,150.019941 Z" id="XMLID_7_" fill="#1689C9" fill-rule="nonzero"></path> <path d="M19.9882974,78.2999026 C25.6803799,76.7706425 9.87373958,63.6790198 28.1957207,50.9351496 C26.3372345,36.3330637 39.8096671,30 49.7288558,41.3960438 C44.4178711,30.7764174 70.1753901,28.6521735 79.4686175,38.475308 C74.1576328,24.669714 96.008879,-5.90479724 106.896119,8.16682503 C115.182434,18.876455 97.5253282,27.8556816 97.5253282,27.8556816 C97.5253282,27.8556816 108.146501,23.8732221 113.988823,26.5279296 C108.677838,20.6872546 113.723553,14.0492911 120.626957,12.4563073 C127.531157,10.8633235 137.355722,12.4563073 137.355722,18.0317506 C137.355722,23.6071938 134.700628,26.7931614 134.700628,26.7931614 C134.700628,26.7931614 145.05653,14.845783 155.147162,18.2969824 C165.237794,21.7481818 160.19208,31.5721128 160.19208,31.5721128 C160.19208,31.5721128 168.158159,23.341962 177.717453,27.3244215 C187.276747,31.306881 189.931842,39.2717999 189.931842,39.2717999 C189.931842,39.2717999 209.581768,36.3510641 217.28178,48.2984425 C224.982588,60.2458209 219.671603,67.945508 210.908917,75.6443987 C202.14623,83.3432893 181.965763,73.5201548 181.965763,73.5201548 C181.965763,73.5201548 145.05653,98.2114035 111.86427,98.4766353 C78.6720097,98.7418671 65.6610133,83.0780575 65.6610133,83.0780575 L19.9882974,78.2999026 Z" id="XMLID_15_" fill="#1CADFF" fill-rule="nonzero"></path> <path d="M221.321803,68.7409186 C223.661024,63.5774037 224.342536,59.1424439 223.848479,55.357298 C222.45289,63.2942535 215.525777,70.3380131 209.141967,72.9833998 C201.463444,76.1648631 190.343207,71.3926682 187.695797,62.6436442 C168.102735,74.3092746 160.689508,47.0011848 160.689508,47.0011848 C160.689508,47.0011848 169.69134,41.6984809 168.632534,33.479966 C165.719827,44.0845784 146.392062,44.3502305 138.449036,41.4336241 C142.420549,48.8567732 149.304769,49.3872822 159.100903,47.5316938 C162.807913,59.7270378 157.512298,68.4760618 140.037641,80.4065489 C122.562984,92.3370361 102.970716,84.6482348 98.999203,78.2853083 C89.9973717,93.132402 75.6999249,81.9972806 76.4942275,76.4297199 C54.2537548,77.4899425 55.0480574,60.2575468 55.0480574,60.2575468 C55.0480574,60.2575468 60.8726784,59.99269 68.0214017,56.2807177 C54.2537548,59.1973242 47.8993341,53.8946203 42.8682214,49.9177912 C43.3980212,52.8343977 47.3695342,57.3409404 50.5467446,58.931672 C38.0340958,85.2646433 21.6166555,74.0062402 15.5775728,68.4824247 C1.55416048,72.4735703 -9.5446297,93.6708646 12.42022,110.100736 C34.3961899,126.538561 52.9296524,92.0721793 52.9296524,92.0721793 C52.9296524,92.0721793 59.5485759,96.3138652 66.6972993,93.9277678 C83.3776538,126.007257 109.854142,119.114617 120.445373,116.72852 C126.005491,124.682178 138.714333,133.961711 150.893375,127.068275 C163.072416,120.17484 162.543411,109.039718 156.453493,100.556346 C163.337713,101.616569 165.985124,97.1100264 167.573729,92.6026883 C169.162334,99.7609806 174.986955,102.942444 182.135679,101.882221 C189.284402,100.821999 191.931812,93.1331973 190.608504,87.3007798 C196.168623,90.4806523 209.671767,94.4574814 221.321803,68.7409186 Z" id="XMLID_41_" fill="#1AA2EF" fill-rule="nonzero"></path> <path d="M51.1199148,121.289806 C51.1199148,121.289806 48.3630734,126.835479 51.5001688,129.279335 C54.6372643,131.723191 62.5275346,127.305451 63.8584236,125.613551 C65.1893126,123.921651 65.854757,120.067878 63.0028521,118 C64.1436141,120.349861 64.3337411,122.981706 59.3904392,124.861595 C54.4471373,126.741485 49.9791528,126.459501 51.1199148,121.289806 Z" id="XMLID_13_" fill="#1689C9" fill-rule="nonzero"></path> <path d="M70.6614183,35.9523295 C70.6614183,35.9523295 66.1706897,30.3102297 71.9824073,21.4440728 C77.7933324,12.5779159 84.1328117,14.1899444 84.1328117,14.1899444 C84.1328117,14.1899444 89.1513019,5.05538471 96.8117701,4.5177732 C104.472238,3.98016169 105,9.35385879 105,9.35385879 C105,9.35385879 93.3781497,1.56211889 87.8311054,18.4884185 C83.3403768,19.02603 82.5479419,25.2049353 85.9823547,28.6982012 C89.4159752,32.190661 83.3411692,38.3703723 83.3411692,38.3703723 C83.3411692,38.3703723 89.9445293,42.9380552 80.9638645,44.8184865 C71.9824073,46.6989177 65.9068089,44.8184865 70.6614183,35.9523295 Z" id="XMLID_16_" fill="#1CADFF" fill-rule="nonzero"></path> <path d="M2.80085431,85.7516848 C2.80085431,85.7516848 6.52385144,102.55248 24.0616142,101.364672 C41.599377,100.176864 42.34538,92.3854321 50,83.0738699 C59.026678,87.0921295 64.0763988,87.9861242 73.4410705,83.9678646 C72.6438995,90.3028398 60.3121955,93.8318742 52,88.133968 C47,97.9717127 38.3981334,108.6348 29.4299592,110.614479 C20.4617851,112.594159 1.80439052,105.548482 2.80085431,85.7516848 Z" id="XMLID_11_" fill="#1689C9" fill-rule="nonzero"></path> <path d="M72.5,93.6201173 C68.8746092,94.5228743 90,124 121.5,111.799224 C126.46349,121.133003 140.130582,128.979966 151.474262,122.67398 C162.817943,116.367994 157.473796,102.650378 152.907385,98.479966 C159.260652,98.678557 166.465211,97.5780653 166.465211,84.4759231 C168.254913,89.9927954 172,98.479966 178.657039,98.479966 C189.255007,98.479966 188.885065,89.9182316 186.44098,84.4759231 C182.704346,76.1554622 173.617313,78.4730376 173.617313,78.4730376 C173.617313,78.4730376 165.327386,67.3235982 162.150752,75.0686489 C160.165356,84.998201 156.239213,97.9859104 145.915153,96 C149.885945,105.53237 156.437753,113.070933 145.915153,115.056844 C135.392553,117.042754 127.053889,106.71602 127.053889,106.71602 C127.053889,106.71602 93.9422787,122.813001 72.5,93.6201173 Z" id="XMLID_18_" fill="#1689C9" fill-rule="nonzero"></path> <path d="M122.704981,125.479966 C122.837059,132.357021 116.715722,136.182194 108.015954,135.388718 C99.3161868,134.595242 106.905612,125.479966 106.905612,125.479966 C98.5602726,128.279183 97.9536097,136.914915 100.061716,142.065197 C104.310366,141.965219 105.826498,145.646153 104.217832,147.829798 C101.977246,150.871191 94.7584588,150.525039 93.4774824,148.530257 C92.8457367,147.54648 93.1437277,146.359273 93.4774824,145.622927 C90.9790674,148.010496 90.345613,151.634005 91.7446938,154.193757 C91.1842974,155.758931 90.1714026,156.57783 89.57509,156.979966 C94.4176969,159.097753 97.31338,161.917167 95.1234113,163.831031 C91.0368933,167.401672 78,167.969992 75,163.831031 C73.8573078,162.254511 74.6141051,159.979499 75.2800328,158.598058 C72.0721913,161.256202 70.0759901,165.027592 74.8236904,168.723602 C78.8564281,171.864179 86.1534592,173.320737 91.1842974,172.286045 C101.978037,174.470276 101.795342,166.078154 101.978037,165.945644 C104.350701,164.226182 104.55938,161.246866 103.135407,158.166077 C110.648835,153.501826 107.77529,147.845075 105.929358,142.554972 C129.494675,143.386633 127.710849,130 122.704981,125.479966 Z" id="XMLID_44_" fill="#1AA2EF" fill-rule="nonzero"></path> <path d="M80.5560041,157.258446 C78.4412186,158.137324 76.5157685,161.077017 79.6434569,162.539288 C82.7715516,164.001558 86.8772013,161.564144 85.8346385,159.045616 C84.7920757,156.527088 81.5335591,156.851988 80.5560041,157.258446 Z" id="XMLID_100_" fill="#1CADFF" fill-rule="nonzero"></path> <path d="M189.074591,82.2295473 C190.153429,85.1837283 190.739838,87.2838435 190.833816,88.529893" id="Path-10" stroke="#091526" stroke-width="1.5" stroke-linecap="round" stroke-linejoin="round"></path> </g> <polygon id="Star" fill="#FFFFFF" transform="translate(195.000000, 354.000000) rotate(-40.000000) translate(-195.000000, -354.000000) " points="195 355.601562 192.171573 356.828427 193.398438 354 192.171573 351.171573 195 352.398438 197.828427 351.171573 196.601562 354 197.828427 356.828427"></polygon> <polygon id="Star" fill="#FFFFFF" transform="translate(265.000000, 299.000000) rotate(-40.000000) translate(-265.000000, -299.000000) " points="265 300.601562 262.171573 301.828427 263.398438 299 262.171573 296.171573 265 297.398438 267.828427 296.171573 266.601562 299 267.828427 301.828427"></polygon> <polygon id="Star" fill="#FFFFFF" transform="translate(306.000000, 358.000000) rotate(-7.000000) translate(-306.000000, -358.000000) " points="306 359.601562 303.171573 360.828427 304.398438 358 303.171573 355.171573 306 356.398438 308.828427 355.171573 307.601562 358 308.828427 360.828427"></polygon> <polygon id="Star" fill="#FFFFFF" transform="translate(258.500000, 412.500000) rotate(43.000000) translate(-258.500000, -412.500000) " points="258.5 414.301758 255.318019 415.681981 256.698242 412.5 255.318019 409.318019 258.5 410.698242 261.681981 409.318019 260.301758 412.5 261.681981 415.681981"></polygon> <path d="M242,430 C243.380821,429.741219 244.380821,429.407886 245,429" id="Path-11" stroke="#091526" stroke-width="1.5" stroke-linecap="round" stroke-linejoin="round"></path> <path d="M246,421.643212 C245.186724,421.452263 244.520057,421.356788 244,421.356788" id="Path-12" stroke="#091526" stroke-width="1.5" stroke-linecap="round" stroke-linejoin="round"></path> <path d="M224,420.694713 C225.07375,420.657517 226.07375,420.527709 227,420.305287" id="Path-13" stroke="#091526" stroke-width="1.5" stroke-linecap="round" stroke-linejoin="round"></path> <path d="M223.849874,403 C223.383375,403.814536 223.150126,404.481202 223.150126,405" id="Path-14" stroke="#091526" stroke-width="1.5" stroke-linecap="round" stroke-linejoin="round"></path> <path d="M262.241584,383.827887 C255.323851,391.757472 243.085521,390.43561 243.085521,390.43561 L243.297418,390.904372 C244.159649,392.939695 247.007441,401.093918 239.360464,405.237765 C241.754972,408.673654 238.562295,412.903294 238.562295,412.903294 L238.854916,412.930855 C240.396851,413.107232 247.464191,414.317996 246.278198,421.625837 C253.195931,422.68285 254.259891,425.326574 253.727512,427.440601 C257.186778,428.498408 257.984947,434.842075 254.79227,436.427992 C251.599593,438.013909 245.480029,436.427992 242.81973,430.084324 C239.361262,431.406186 220.73678,431.406186 224.196045,420.568823 C214.352223,420.832878 200.516756,415.018114 208.232659,406.031516 C215.948562,397.044919 223.663666,402.859683 223.663666,402.859683 L225.525795,400.480807 L225.411853,400.165344 C224.909458,398.631741 223.312667,391.915203 232.709319,389.114541 L232.585517,388.831808 C231.813101,386.968839 228.077543,376.337578 240.425222,370.083539 C253.994101,363.210968 269.159318,375.898303 262.241584,383.827887 Z M251.977352,403.055494 C249.748266,403.055494 248.899728,398.208902 251.977352,396.606013 C257.42598,393.768644 254.206437,403.055494 251.977352,403.055494 Z M211.928037,382.621058 L212.12102,382.614698 C212.934908,382.602838 216.175801,382.70547 219.008007,384.912099 C222.275937,387.457446 216.55706,389.748487 213.017074,387.966821 C209.477089,386.185154 208.932162,382.366752 211.928037,382.621058 Z M200.60953,371.617406 C199.283369,375.321549 185.494316,381.671056 184.168155,373.998471 C182.842789,366.325885 189.061506,365.053603 196.631842,363.680522 C199.549078,363.151132 201.935691,367.913262 200.60953,371.617406 Z M284.903815,250.538017 C300.082869,250.924122 308.50415,258.85047 310.410078,261.038238 C313.380855,264.44832 315.239742,266.890362 316.32404,268.618123 C317.93923,269.09491 319.397741,269.79746 320.699643,270.724858 C323.897182,270.598068 327.728613,271.041026 331.085036,273.452489 C332.600057,274.540975 334.128766,277.320185 335.671163,281.790119 C349.243743,283.959442 367.948991,293.242068 360.170205,315.145036 C353.11702,335.004905 340.747828,337.550427 332.477052,336.242558 C329.782276,335.986569 327.493123,335.050816 325.837008,334.140572 L325.573392,333.992899 L325.62202,334.218774 C325.717739,334.686669 325.788279,335.165488 325.833374,335.650965 L325.872064,336.173243 C326.182133,341.575798 323.37675,347.616673 317.0959,348.546863 C309.948727,349.605355 304.125368,346.429085 302.537107,339.282476 L302.374589,339.732391 C300.794885,344.00264 298.163621,348.104863 291.754375,347.270753 L291.435793,347.224267 L291.598435,347.453714 C293.685843,350.432863 295.086345,353.726731 295.495509,357.041857 C296.252556,363.12314 293.669073,369.278276 285.860368,373.691809 C282.938032,375.343533 279.985186,376.065215 277.107954,376.098938 L276.748702,376.098938 C275.981884,376.092583 275.221795,376.03794 274.469617,375.939593 L273.848463,375.848197 L273.561064,375.799119 L273.118054,375.715056 L272.866045,375.662722 L272.37422,375.551055 L271.97598,375.451698 L271.34228,375.276525 C264.579939,373.300824 258.730934,368.099938 255.418967,363.36893 L253.346981,363.836941 C241.6888,366.436829 217.358678,370.710895 201.682543,340.605393 C194.535369,342.987596 187.91788,338.752833 187.91788,338.752833 L187.56984,339.369869 C184.931142,343.933198 167.630739,371.85008 147.417229,356.751964 C138.625742,350.185176 135.132267,342.855553 135.003415,336.170684 L135,335.675875 C135.037294,325.845412 142.307694,317.491986 150.593901,315.145036 C148.741221,306.667515 150.858343,296.865952 160.123333,295.80656 C156.962326,287.532877 162.8383,274.751967 178.208034,278.772688 C179.001451,272.991673 182.368917,268.12452 190.618664,266.299105 L190.614077,266.044911 C190.509079,262.883035 187.954948,252.698708 203.259619,240 M209.785102,363.837714 L209.627995,364.080244 C208.159552,366.258131 205.270048,368.238469 204.998846,364.68741 C204.639053,359.987744 211.192179,361.571576 209.785102,363.837714 Z" id="Shape" stroke="#091526" stroke-width="1.5" fill-rule="nonzero"></path> <path d="M215,258.456586 C215.488354,258.352805 216.273348,258.244347 217.354982,258.131213 C221.341882,249.335483 228.976572,246.433863 237.821787,248.779152 C243.718598,250.342678 246.909127,254.179502 247.393375,260.289623 C255.085782,254.237713 260.672079,253.144754 267.798394,255.145008 C272.54927,256.478511 275.032441,260.095127 275.247906,265.994856 C277.418142,264.157707 281.891557,260.813726 287.359721,260.909056" id="Path-6" stroke="#091526" stroke-width="1.5" stroke-linecap="round" stroke-linejoin="round"></path> <polygon id="Star" fill="#FFFFFF" transform="translate(207.500000, 262.500000) rotate(-50.000000) translate(-207.500000, -262.500000) " points="207.5 265.102539 202.903806 267.096194 204.897461 262.5 202.903806 257.903806 207.5 259.897461 212.096194 257.903806 210.102539 262.5 212.096194 267.096194"></polygon> <path d="M202,341 C202,341 205.866175,339.925913 209,337" id="Path-8" stroke="#091526" stroke-width="1.5" stroke-linecap="round" stroke-linejoin="round"></path> <path d="M154,322 C152.421249,319.593475 151.421249,317.260142 151,315" id="Path-9" stroke="#091526" stroke-width="1.5" stroke-linecap="round" stroke-linejoin="round"></path> <path d="M244,390.699295 C243.059583,390.569015 242.392916,390.436152 242,390.300705" id="Path-15" stroke="#091526" stroke-width="1.5" stroke-linecap="round" stroke-linejoin="round"></path> <line x1="254.9739" y1="364" x2="254.0261" y2="362" id="Path-16" stroke="#091526" stroke-width="1.5" stroke-linecap="round" stroke-linejoin="round"></line> <path d="M178,279 C180,279.375011 182,280.041677 184,281" id="Path-17" stroke="#091526" stroke-width="1.5" stroke-linecap="round" stroke-linejoin="round"></path> </g> </g> </svg> 