<?xml version="1.0" encoding="UTF-8"?> <svg xmlns="http://www.w3.org/2000/svg" xmlns:xlink="http://www.w3.org/1999/xlink" width="321px" height="580px" viewBox="0 0 321 580"> <!-- Generator: Sketch 59.1 (86144) - https://sketch.com --> <title>Jinn2</title> <desc>Created with Sketch.</desc> <g id="Jinn2" stroke="none" stroke-width="1" fill="none" fill-rule="evenodd"> <g id="XMLID_102_" transform="translate(114.000000, 310.975266)" fill-rule="nonzero"> <path d="M12.6310214,37.5 C12.6310214,33.478697 8.56371858,18.2705266 37.0766272,3.44424072 C65.5895359,-11.3820452 78.0608681,27 78.0608681,27 C78.0608681,27 115.23228,12.6906219 131.769647,31.4554332 C148.307015,50.2202445 133.263442,41.5331558 136.017695,42.595282 C137.278462,43.0814736 146.211443,39.6888589 153.127847,44.6650791 C155.23223,46.179142 157.363015,50.9591268 159.520203,59.0050335 C51.186799,71.4042658 0.346731358,77.2950734 7,76.6774563 C3.29271454,68.7997105 -9.32442301,42.3649511 12.6310214,37.5 Z" id="XMLID_3_" fill="#1689C9"></path> <path d="M16.5330368,40.0073565 C16.5330368,40.0073565 12.3665943,24.6328019 30.4903543,12.208591 C48.6141143,-0.215619971 66.1439492,-2.98598427 90.3558316,13.4562866 C100.610397,9.98261634 109.678669,36.7650327 101.133198,36.7650327 C92.587727,36.7650327 83.1877091,29.5863457 88.8849745,26.3440219 C79.4849566,20.0914154 68.0912804,18.0072132 51.5694671,24.4911662 C35.0485084,30.9751191 32.7694314,44.1750661 32.7694314,44.1750661 C32.7694314,44.1750661 33.6239784,42.090864 39.8903722,41.6274764 C46.1567659,41.1640887 42.7385776,53.6693017 30.4903543,55.290811 C18.242131,56.9116256 23.3694135,49.7329386 23.3694135,49.7329386 C23.3694135,49.7329386 13.9693956,56.4489327 10.2666431,50.6590191 C6.56303602,44.8704949 11.6903185,40.933437 16.5330368,40.0073565 Z" id="XMLID_14_" fill="#1CADFF"></path> </g> <g id="Group-12" transform="translate(9.000000, 59.000000)"> <path d="M48.2316,89.0595655 C48.2316,89.0595655 53.4849,92.0481655 55.2642,99.3156655 C56.6481,104.967666 63.9267,109.696866 63.9267,109.696866 L85.1571,109.768866 C86.8383,105.033966 90.6255,107.817366 93.8052,94.8033655 L98.8686,86.6331655 L51.9936,88.1214655 L48.2316,89.0595655 Z" id="Path" fill="#1AA2EF" fill-rule="nonzero"></path> <path d="M93.5811,94.8030655 C90.3579,108.124866 86.8902,105.033666 85.209,109.768566 C85.209,109.768566 84.696,109.740066 84.5034,109.486866 C84.3048,109.225566 84.2262,108.456966 84.7905,107.580666 C85.9905,105.717966 90.672,104.469966 93.5811,94.8030655 Z" id="Path" fill="#1AA2EF" fill-rule="nonzero"></path> <path d="M131.5716,107.154966 C121.2456,118.700766 114.0264,132.745866 114.0264,132.745866 C106.5798,148.713366 102.7539,158.236866 102.7539,158.236866 C93.5016,149.297166 86.3178,139.745766 84.3906,128.018166 L88.2396,129.276066 L93.5157,109.885266 L59.3283,109.286766 C59.3283,109.286766 50.5227,181.032966 93.0354,231.057966 C114.4332,228.378066 124.8012,218.308266 124.8012,218.308266 C124.8012,218.308266 135.4473,256.152966 157.3506,283.407066 C187.905,293.654466 207.0108,289.641066 222.3699,284.371566 C226.8204,270.997566 229.5366,260.800266 235.209,251.308866 C243.735,237.042966 242.7546,239.476566 242.7546,239.476566 C242.7546,239.476566 246.8877,240.741966 252.591,240.645366 C274.2246,242.104866 297.2448,222.820566 303.2472,214.707366 C287.5677,166.749066 279.255,137.762766 279.255,137.762766 C261.4572,134.548566 255.7275,129.198966 239.4291,120.278766 C239.4291,120.278766 212.5626,154.616466 172.6479,173.835366 C172.6479,173.835366 162.3192,133.100466 177.3222,105.795066 C163.3974,110.403366 131.6184,107.544966 131.5716,107.154966 Z" id="Path" fill="#013C6D" fill-rule="nonzero"></path> <g id="Group-3" transform="translate(216.000000, 184.475266) rotate(10.000000) translate(-216.000000, -184.475266) translate(202.000000, 179.975266)" stroke="#091526" stroke-width="1.5"> <path d="M3.90656437,8.404425 L22.3238362,8.404425 L13.5941701,0.608096673 C13.2085082,0.263668067 12.6238701,0.270052224 12.2458215,0.622820429 L3.90656437,8.404425 L3.90656437,8.404425 Z" id="Path-18" fill="#F6CD52"></path> <line x1="0" y1="8.404425" x2="27.321702" y2="8.404425" id="Path-19" stroke-linecap="round" stroke-linejoin="round"></line> </g> <path d="M177.3228,105.795666 L182.1774,104.526666 C182.1774,104.526666 212.3811,111.420666 222.5475,112.942566 C222.5475,112.942566 226.6485,112.013166 228.228,109.832466 C232.0875,114.584166 235.4346,117.538866 239.4297,120.279366 C239.4297,120.279366 212.4906,155.093166 172.6485,173.835966 C166.1802,146.997966 170.4945,126.451566 171.8766,118.716066 C172.7274,115.519566 177.3228,105.795666 177.3228,105.795666 Z" id="Path" fill="#F6CD52" fill-rule="nonzero"></path> <polygon id="Path" fill="#FFEEBD" fill-rule="nonzero" points="236.5299 118.472166 239.4297 120.279066 237.8229 122.459766 235.1805 120.191166"></polygon> <polygon id="Path" fill="#FFEEBD" fill-rule="nonzero" opacity="0.6" points="177.0528 106.459566 182.1774 104.526366 181.0725 108.369966 175.0659 109.991466"></polygon> <path d="M239.4297,120.279066 C239.4297,120.279066 231.2247,131.258766 224.2659,137.223666 C224.2659,137.223666 237.4821,126.407166 239.4297,123.559566 C244.1547,126.570666 250.8399,130.518966 255.0531,132.431166 C252.7089,138.177666 244.5594,146.244966 244.5594,146.244966 C244.5594,146.244966 245.2788,145.976766 245.4078,145.880166 C254.2998,139.212666 257.1897,133.340166 257.7123,133.610166 C261.1521,135.386466 270.099,139.230066 276.4284,141.119466 C284.3238,170.416266 290.4147,190.443066 298.7031,213.968466 C286.9437,229.929666 267.7584,238.675866 267.7584,238.675866 C267.7584,238.675866 288.7926,232.394166 303.2478,214.708266 C290.3451,174.361866 279.2556,137.763666 279.2556,137.763666 C260.6034,133.115766 254.154,128.904966 239.4297,120.279066 Z" id="Path" fill="#042C50" fill-rule="nonzero"></path> <path d="M230.0811,145.879866 L232.1106,153.534366 C232.1106,153.534366 206.6856,174.796866 165.9237,179.462466 C165.9237,179.462466 204.3231,177.709566 233.5191,153.873666 L230.0811,145.879866 Z" id="Path" fill="#085A93" fill-rule="nonzero"></path> <path d="M159.2976,279.217866 C146.4672,266.217066 121.2459,225.026466 119.2293,180.150066 C119.2293,180.150066 117.444,231.411666 156.8313,282.672966 C157.6299,280.560966 158.5161,279.851766 159.2976,279.217866 Z" id="Path" fill="#085A93" fill-rule="nonzero"></path> <path d="M165.9237,179.462466 C165.9237,179.462466 209.6484,175.911666 233.0763,153.737766 C230.6904,147.877266 230.0811,145.879866 230.0811,145.879866 L244.5591,146.244666 L231.1089,147.751866 L233.5194,153.873666 L232.6998,154.694466 L233.4183,155.811666 C233.6103,155.911866 233.7075,156.182766 233.5545,156.336066 C229.0719,160.829166 219.7443,166.515066 210.996,169.770666 C181.1784,180.865866 165.9237,179.462466 165.9237,179.462466 Z" id="Path" fill="#091526" fill-rule="nonzero" opacity="0.4"></path> <polygon id="Path" fill="#091526" fill-rule="nonzero" opacity="0.4" points="155.4747 126.257766 155.8125 128.804166 160.4517 129.841266 162.3495 128.278566"></polygon> <polygon id="Path" fill="#1AA2EF" fill-rule="nonzero" points="226.2 113.774466 229.1262 116.176866 230.2029 113.774466 227.5806 111.955866"></polygon> <path d="M131.3427,107.247666 C145.5231,108.645666 163.3974,110.049666 177.3228,105.795366 L175.0659,109.991166 C170.0235,111.380766 156.0024,112.063866 156.0024,112.063866 C156.0024,112.063866 155.4204,125.040666 156.3693,126.547866 L154.6017,125.974566 L153.9138,112.064166 C153.9138,112.064166 142.8174,110.932266 133.1856,110.136366 C133.1856,110.136366 115.5309,129.987966 106.5441,149.297466 C111.8976,130.689666 131.3427,107.247666 131.3427,107.247666 Z" id="Path" fill="#085A93" fill-rule="nonzero"></path> <path d="M162.3765,128.480766 L157.7481,133.659666 C159.0813,149.778666 163.3731,158.565066 168.7425,174.137766 C157.8573,155.364966 155.8971,133.178166 155.8971,133.178166 L162.3765,128.480766 Z" id="Path" fill="#085A93" fill-rule="nonzero"></path> <path d="M121.4448,160.828866 C121.4448,160.828866 112.9788,185.007666 121.4709,220.940766 L124.8012,218.078466 C121.1592,203.820066 117.0201,183.931566 121.4448,160.828866 Z" id="Path" fill="#091526" fill-rule="nonzero" opacity="0.6"></path> <path d="M97.7451,173.835666 C97.7451,173.835666 99.594,165.410766 102.7542,158.236866 L100.7949,156.136266 C99.3732,160.828866 98.6667,165.577866 97.7451,173.835666 Z" id="Path" fill="#091526" fill-rule="nonzero" opacity="0.6"></path> <polygon id="Path" fill="#091526" fill-rule="nonzero" opacity="0.4" points="58.6539 120.339066 84.3909 128.018466 84.7602 130.689666 61.9962 121.348866"></polygon> <path d="M60.0516,121.086366 C60.0516,121.086366 58.1112,181.602966 94.8414,227.976666 C94.8414,227.976666 106.1628,229.437666 119.223,222.560766 C119.223,222.560766 109.7973,228.710166 93.0354,231.058566 C64.0338,199.659066 56.6058,138.177666 58.6197,120.765666 L60.0516,121.086366 Z" id="Path" fill="#085A93" fill-rule="nonzero"></path> <path d="M84.4113,109.394466 C79.5381,109.279866 66.5769,109.696566 66.5769,109.696566 C66.5769,109.696566 58.9878,104.925366 58.0218,98.9817655 C57.015,92.7864655 54.3333,90.8115655 51.4443,88.8879655 C47.0118,85.9365655 80.8227,89.5065655 80.8227,89.5065655 C80.8227,89.5065655 88.659,88.5753655 91.0449,88.8879655 C92.3286,86.7147655 94.5939,88.7721655 97.4085,87.1008655 C97.4085,87.1008655 95.9883,92.6571655 93.5019,94.1853655 C92.916,98.3988655 90.2787,102.479466 88.101,104.563866 C85.9089,106.662066 84.072,107.245866 84.4113,109.394466 Z" id="Path" fill="#091526" fill-rule="nonzero" opacity="0.3"></path> <path d="M75.8364,90.4032655 C77.694,90.6861655 78.699,92.2191655 79.134,94.5894655 L82.8858,89.5068655 L75.8364,90.4032655 Z" id="Path" fill="#091526" fill-rule="nonzero" opacity="0.3"></path> <path d="M56.2731,99.0846655 C56.8578,101.745966 58.92,104.176866 64.9614,109.385766 C65.5482,109.891566 63.9264,109.696566 63.9264,109.696566 C63.9264,109.696566 61.4457,108.421866 58.3113,104.699466 C56.3856,102.412566 55.881,101.155866 55.2639,99.3153655 C52.8,92.0229655 51.9933,92.3400655 49.8837,90.0615655 C49.8837,90.0615655 54.5712,91.3371655 56.2731,99.0846655 Z" id="Path" fill="#1AA2EF" fill-rule="nonzero" opacity="0.7"></path> <path d="M189.1485,128.792466 L189.2565,132.572166 L172.6485,173.835966 L182.4537,166.273266 C182.4537,166.273266 184.809,152.448966 189.2565,137.310066 C190.5177,133.016466 191.2578,133.268766 191.6757,135.518166 C191.823,136.311966 192.1983,138.972966 192.1983,138.972966 C192.1983,138.972966 218.5788,138.177966 230.5524,124.759566 C221.7732,131.060166 216.1125,133.623966 194.1138,135.735966 L191.1156,127.205166 L189.1485,128.792466 Z" id="Path" fill="#091526" fill-rule="nonzero" opacity="0.4"></path> <path d="M264.5133,163.732266 C264.5133,163.732266 264.7428,214.426566 242.7549,239.477166 C247.0626,240.633366 255.639,241.100766 261.4419,240.170466 C252.4449,238.514766 253.6875,234.786666 254.6616,232.014366 C256.4586,226.900866 258.1317,220.860966 259.7208,214.502766 C259.9953,213.404766 266.1936,214.207266 269.8716,211.413066 C263.8755,212.603466 260.9355,211.263366 261.0105,210.931266 C264.4245,195.816366 265.1832,183.619566 264.5133,163.732266 Z" id="Path" fill="#091526" fill-rule="nonzero" opacity="0.6"></path> <path d="M188.757334,124.20132 C188.757334,124.20132 177.6336,146.658366 170.412,163.717866 L172.6488,173.835966 L182.0103,168.924966 C183.8844,157.892466 188.005834,136.73202 192.002134,125.69202 L188.757334,124.20132 Z" id="Path" stroke="#091526" stroke-width="1.5" fill="#043070" fill-rule="nonzero"></path> <path d="M180.33765,119.637474 C180.98805,124.691874 181.7163,131.746566 181.7163,131.746566 L181.7163,131.746566 L190.3686,124.702566" id="Path" stroke="#091526" stroke-width="1.5" fill="#F7CE55" fill-rule="nonzero" stroke-linecap="round" stroke-linejoin="round"></path> <path d="M222.3699,284.371866 C221.466,282.819066 218.1441,287.117766 218.6262,285.416766 C223.7856,267.212766 228.8484,253.267866 244.5879,232.616766 C261.2961,210.694866 263.82,177.356166 263.5749,158.565066 C263.5749,158.565066 269.1771,203.705466 242.7549,239.476866 C233.76,250.923966 228.5934,265.784766 222.3699,284.371866 Z" id="Path" fill="#052542" fill-rule="nonzero"></path> <polygon id="Path" fill="#091526" fill-rule="nonzero" opacity="0.6" points="172.3602 172.631466 172.6485 173.835666 169.4403 175.374066 168.7425 174.137766"></polygon> <circle id="Oval" fill="#091526" fill-rule="nonzero" cx="171.6799" cy="185.655166" r="2.6799"></circle> <circle id="Oval" fill="#091526" fill-rule="nonzero" cx="179.3652" cy="259.959966" r="2.6799"></circle> <circle id="Oval" fill="#091526" fill-rule="nonzero" cx="171.6799" cy="223.655166" r="2.6799"></circle> <path d="M228.2277,109.832466 C231.0075,113.975466 235.1124,117.267666 236.6541,118.308066 C222.8235,136.701666 194.1135,135.735366 194.1135,135.735366 L190.2558,124.758966 C190.2558,124.758966 202.2093,129.391266 211.0365,127.827666 C215.883,126.020766 220.3152,121.297566 223.9521,116.610366 C223.9521,116.610366 223.7625,115.799166 223.1799,112.881966 C223.1802,112.881666 226.8558,111.394266 228.2277,109.832466 Z" id="Path" fill="#F7CE54" fill-rule="nonzero"></path> <path d="M222.6132,113.271666 C222.6132,113.271666 226.398,111.584766 228.4179,110.111466 C232.8633,115.748766 236.6544,118.308066 236.6544,118.308066 C236.6544,118.308066 228.8406,126.763266 220.8948,130.142766 C230.0868,124.953366 233.9748,119.435766 233.9748,119.435766 C233.9748,119.435766 229.995,116.225466 227.6229,111.955566 C225.3624,112.866366 222.6132,113.271666 222.6132,113.271666 Z" id="Path" fill="#FFEEBD" fill-rule="nonzero"></path> <path d="M127.5576,144.141966 C101.6727,195.021366 144.024,267.943266 156.9435,282.616266" id="Path" stroke="#091526" stroke-width="1.5" stroke-linecap="round" stroke-linejoin="round"></path> <path d="M182.2899,104.469966 C182.2899,104.469966 172.761,109.230666 152.4783,108.930666 C143.88,108.803466 131.6841,107.098566 131.6841,107.098566 C131.6841,107.098566 111.0705,127.315266 97.8576,173.779266" id="Path" stroke="#091526" stroke-width="1.5" stroke-linecap="round" stroke-linejoin="round"></path> <path d="M262.9341,151.422066 C267.6315,186.605766 257.8026,220.732566 242.8677,239.420166 C234.2784,250.167666 222.298326,283.288796 221.200162,287.389996" id="Path" stroke="#091526" stroke-width="1.5" stroke-linecap="round" stroke-linejoin="round"></path> <path d="M167.4045,176.305866 C154.7667,201.239766 167.4045,265.263366 181.1325,284.458266" id="Path" stroke="#091526" stroke-width="1.5" stroke-linecap="round" stroke-linejoin="round"></path> <path d="M239.5422,120.222666 C239.5422,120.222666 214.4922,154.994166 167.4045,176.305866" id="Path" stroke="#091526" stroke-width="1.5" stroke-linecap="round" stroke-linejoin="round"></path> <path d="M166.0362,179.406066 C166.0362,179.406066 205.1703,177.390366 233.6316,153.817266 L230.1936,145.823466 L245.52,145.823466 C251.2689,141.072366 254.7294,138.002766 259.3155,131.511366" id="Path" stroke="#091526" stroke-width="1.5" stroke-linecap="round" stroke-linejoin="round"></path> <path d="M177.1425,106.363866 C166.9869,122.362266 167.8509,154.543566 172.7613,173.779266" id="Path" stroke="#091526" stroke-width="1.5" stroke-linecap="round" stroke-linejoin="round"></path> <path d="M169.5531,175.317666 C169.5531,175.317666 158.3778,157.542366 156.1443,132.894966 L162.3396,128.391666 L154.7145,125.918166 C153.8955,120.339966 153.9777,113.497266 154.425,109.072566" id="Path" stroke="#091526" stroke-width="1.5" stroke-linecap="round" stroke-linejoin="round"></path> <path d="M84.5163,128.139966 C85.4448,142.287966 102.8667,158.180466 102.8667,158.180466" id="Path" stroke="#091526" stroke-width="1.5" stroke-linecap="round" stroke-linejoin="round"></path> <path d="M58.7667,120.282666 L88.3524,129.219666 C88.8546,123.906366 93.6285,109.828866 93.6285,109.828866 L59.4411,109.230366 C59.4411,109.230366 50.7528,180.644166 93.1482,231.001566 C93.1482,231.001566 115.9719,227.950266 124.914,218.021766" id="Path" stroke="#091526" stroke-width="1.5" stroke-linecap="round" stroke-linejoin="round"></path> <path d="M224.0649,116.553666 C224.0649,116.553666 223.8753,115.742466 223.2927,112.825266 C223.2927,112.825266 226.9686,111.337866 228.3405,109.775766 L228.3405,109.775766 C231.1203,113.918766 235.2252,117.210966 236.7669,118.251366 C222.9363,136.644966 194.2263,135.678666 194.2263,135.678666 L190.3686,124.702266" id="Path" stroke="#091526" stroke-width="1.5" stroke-linecap="round" stroke-linejoin="round"></path> <g id="Group-3" transform="translate(172.000000, 24.975266)"> <path d="M7.77034944,71.4988347 C7.77034944,71.4988347 10.2819974,59.3785735 6.61367808,47.8758823 C7.63967808,45.5595847 8.31995712,44.0233755 8.31995712,44.0233755 C8.31995712,44.0233755 8.30354112,23.8504097 32.0706259,21.3331803 C56.9943821,21.0678977 61.1059334,37.8509595 63.3224218,43.4580084 C66.0957408,50.4742068 64.9364429,68.7140244 54.9354874,74.8237313 L56.3718874,84.4684596 L50.8669459,87.4824372 L40.5370138,91.9364263 L4.78460736,81.8218721 L7.77034944,71.4988347 Z" id="Path" fill="#1AA2EF" fill-rule="nonzero"></path> <path d="M50.6489414,69.061387 C50.6489414,69.061387 48.4488691,81.2253147 51.7120416,91.5627982 C51.7120416,91.5627982 45.8239507,99.4644756 38.5106227,103.477531 C31.1972947,107.490586 6.78703104,99.585954 0.20388672,91.2837262 C4.42017216,82.7526593 6.27813504,78.5449102 7.45417728,72.6627291 L7.3100448,71.5050727 C7.3100448,71.5050727 8.076672,73.0393121 10.7459136,73.2284244 C14.2842182,73.4789326 16.9091366,71.7480295 17.8284326,71.6774407 C17.8284326,71.6774407 20.4172358,71.7457313 21.4044941,72.1745172 C21.4044941,72.1745172 22.909513,71.3967271 24.1636954,71.7142126 C25.4178778,72.031698 27.2354573,71.7109294 31.7334413,73.8962273 C36.2314253,76.0815252 37.5919834,76.6311329 39.1905734,76.5907495 C40.7891635,76.5506945 43.3070496,75.9321396 43.6225651,73.8440244 C43.9380806,71.7559092 44.3195885,77.3429307 40.8807648,79.0666107 C40.8807648,79.0666107 43.7818003,80.7653383 45.2346163,78.0816507 C46.6874323,75.397963 48.1537094,68.9704423 48.1537094,68.9704423 L50.6489414,69.061387 Z" id="Path" fill="#043070" fill-rule="nonzero"></path> <path d="M12.2653786,76.5185191 C12.2653786,76.5185191 9.14732352,78.7543783 9.70218432,81.299515 C10.2570451,83.8446516 12.9765197,85.4698356 14.5202803,85.5657051 C16.064041,85.6615745 18.4483008,84.1979239 18.4483008,84.1979239 C18.4483008,84.1979239 21.890736,83.7523937 23.7995885,84.9133332 C25.708441,86.0742727 29.8331251,89.2714529 32.5276474,88.4332519 C35.2221696,87.595051 36.6608678,86.3825652 37.0131552,84.2038337 C37.3654426,82.0251022 35.2980115,80.3270311 35.2980115,80.3270311 C35.2980115,80.3270311 28.7861126,80.7410427 23.2079558,77.0822446 C16.1415245,78.4148955 12.2653786,76.5185191 12.2653786,76.5185191 Z" id="Path" fill="#1AA2EF" fill-rule="nonzero"></path> <path d="M56.371559,84.4684596 C56.371559,84.4684596 55.6088717,79.5292135 54.935159,74.8237313 C65.6617018,65.7424001 66.5944589,49.2919265 61.3114618,37.8995508 C57.9711341,30.6968667 50.1065568,23.0630983 38.7217325,21.5406785 C38.7217325,21.5406785 51.2340077,24.7086382 59.0930035,38.5243438 C66.4746221,51.5011918 60.4332058,63.8479937 60.4332058,63.8479937 C60.4332058,63.8479937 58.7170771,69.0617153 53.4114259,73.3991508 C53.4357216,75.9429742 54.4065638,81.8543758 54.7923398,85.4813268 L56.371559,84.4684596 Z" id="Path" fill="#1AA2EF" fill-rule="nonzero"></path> <path d="M33.931872,57.5452347 C33.931872,57.5452347 40.5531014,54.3536359 43.4771194,60.0706721 C43.4771194,60.0706721 43.4748211,62.7349889 41.9271206,64.2061908 C38.6452339,64.0932487 35.3479162,65.727954 35.3479162,65.727954 C33.6225946,63.3151303 33.5086675,60.3602503 34.0819142,57.1739047" id="Path" fill="#BBEBFC" fill-rule="nonzero"></path> <path d="M12.631127,53.6766401 C12.631127,53.6766401 17.1616147,52.6496551 21.1782816,57.1620852 C21.1782816,57.1620852 19.9730189,62.8837179 17.0545824,63.8417556 C14.841049,61.6820667 12.009289,61.0530055 12.009289,61.0530055 C10.9642464,58.1887419 11.0837549,57.3718817 11.6570016,54.1855361" id="Path" fill="#BBEBFC" fill-rule="nonzero"></path> <path d="M9.10562688,72.942786 C12.3770074,64.8408334 8.24477184,47.7438977 8.24477184,47.7438977 L10.5863501,44.1002023 C9.43821504,32.6388795 23.5060704,23.3750023 25.4070432,23.0332212 C8.30222784,29.5720423 8.32028544,44.0233755 8.32028544,44.0233755 L6.6140064,47.8758823 C6.6140064,47.8758823 9.56822976,59.3578894 7.77067776,71.4988347 L9.10562688,72.942786 Z" id="Path" fill="#1AA2EF" fill-rule="nonzero" opacity="0.7"></path> <path d="M26.9908589,52.6430887 C26.9908589,52.6430887 21.2370509,58.7065025 21.4041658,72.1745172 C21.4041658,72.1745172 25.9448314,71.1747828 26.626752,71.7815182 C27.3086726,72.3882535 25.3919405,70.4183335 23.3448653,70.1977025 C21.3227424,62.8929108 26.9908589,52.6430887 26.9908589,52.6430887 Z" id="Path" fill="#1AA2EF" fill-rule="nonzero" opacity="0.7"></path> <path d="M4.4408921e-15,91.2801147 C4.4408921e-15,91.2801147 2.93288256,85.9587041 4.02454656,83.7123387 C5.2596864,81.5956596 6.48727488,76.6163585 7.45352064,72.6630574 C7.45352064,72.6630574 8.8712064,74.395602 8.70638976,75.0680014 C6.90555456,82.4121915 3.56818176,88.3698862 1.99257408,90.9317671 C3.31373376,93.462786 7.26933312,96.8779707 7.26933312,96.8779707 C4.57087104,95.2688743 4.4408921e-15,91.2801147 4.4408921e-15,91.2801147 Z" id="Path" fill="#1AA2EF" fill-rule="nonzero" opacity="0.4"></path> <path d="M37.5768806,103.839011 C37.5768806,103.839011 44.4266208,99.2924359 50.0100307,90.6165799 C48.6163123,83.7931054 48.8192141,75.578539 50.6486131,69.061387 C50.6486131,69.061387 48.3319872,82.5448327 52.0666272,91.3838638 C43.8047827,101.664548 37.5768806,103.839011 37.5768806,103.839011 Z" id="Path" fill="#1AA2EF" fill-rule="nonzero" opacity="0.7"></path> <path d="M56.1460032,60.4081851 C56.1460032,60.4081851 58.4813434,59.8868129 59.0135501,62.2008123 C59.638343,64.9176603 56.5032154,71.7519694 52.4701325,67.9585601 C52.4701325,67.9585601 54.7424352,69.1621812 56.0448806,67.7681345 C57.3473261,66.3737595 58.4412883,62.4897339 57.9113798,61.255579 C57.381143,60.0217524 56.1460032,60.4081851 56.1460032,60.4081851 Z" id="Path" fill="#091526" fill-rule="nonzero" opacity="0.4"></path> <path d="M15.9589786,72.2001262 C13.782217,72.6092129 10.2232282,73.2566599 7.72110144,72.1512065 C7.78972032,74.8910369 13.2907219,79.1165153 20.5807392,77.1784423 C20.5807392,77.1784423 13.2680678,77.8134132 9.86043456,74.2058331 C13.0484218,74.7068494 15.053472,73.065906 15.9589786,72.2001262 Z" id="Path" fill="#1AA2EF" fill-rule="nonzero" opacity="0.4"></path> <path d="M37.8937094,76.7903681 C39.5047757,77.359675 41.1099322,77.1416705 42.0364512,76.7539246 C41.2734355,78.0379841 39.6778003,79.2130414 36.1687162,80.1559764 C40.3649741,79.5036046 42.0962054,77.7464359 42.8536397,76.8813127 C42.8536397,76.8813127 43.0637645,76.3205422 43.1790048,75.5256795 C43.3589242,74.2879131 40.5199411,77.4476647 39.0930624,76.3057678 L37.8937094,76.7903681 Z" id="Path" fill="#1AA2EF" fill-rule="nonzero" opacity="0.7"></path> <path d="M67.840105,0.0698637848 C59.6495059,3.36094346 64.2998304,7.94429066 68.8972954,16.3647137 C72.1496333,22.3217518 64.3201862,25.4943079 59.1645773,27.2458951 L56.9805926,25.1820756 C62.3985293,23.6895329 64.573321,19.213218 61.5800275,15.0816391 C56.7133402,8.36454026 56.5363757,-0.239741975 67.840105,0.0698637848 L67.840105,0.0698637848 Z" id="Path" fill="#043070" fill-rule="nonzero"></path> <path d="M58.0617782,25.2937342 C58.2367356,25.2937342 64.9083845,23.1429899 65.3317412,20.0046482 C65.7550978,16.8663065 64.6484842,15.9895074 62.5300562,12.6928991 C60.4116282,9.39629081 59.8781148,6.00604838 60.3866512,4.28228057 C60.8951875,2.55851275 63.5062898,0.96468877 65.4847992,0.482344385 C65.0764865,0.212292951 64.2540608,0.249817632 63.0175219,0.594918426 C61.1627136,1.11256962 59.5705219,3.14813557 59.172457,3.86335361 C58.774392,4.57857165 58.3469702,7.54136417 58.7597136,8.63348626 C59.0348758,9.36156766 59.5771884,10.8646462 60.3866512,13.1427218 L62.7454976,16.9040679 L63.0175219,19.4176296 L62.2819757,21.7589566 C61.3539779,22.8971658 60.8060911,23.4662704 60.6383151,23.4662704 C60.4705392,23.4662704 59.5330929,23.9474623 57.8259764,24.909846 C57.8665394,25.1657715 57.94514,25.2937342 58.0617782,25.2937342 Z" id="Path-2" fill="#1AA2EF" fill-rule="nonzero" opacity="0.5"></path> <path d="M51.5731622,25.9749684 L54.1642637,23.0332212 C55.9798733,24.2601531 57.6552902,25.6742273 59.1645773,27.2462235 C60.2523014,28.3792558 61.2536774,29.5943681 62.1585274,30.8803975 L59.3156045,33.8516935 C56.8505779,30.5629121 54.3146342,28.0499508 51.5731622,25.9749684 Z" id="Path" fill="#F6CD52" fill-rule="nonzero"></path> <polygon id="Path" fill="#FFEEBD" fill-rule="nonzero" opacity="0.6" points="59.901984 27.7876231 56.9651616 31.0258433 58.5368294 32.9832871 61.3797523 30.0123195"></polygon> <polygon id="Path" fill="#FFEEBD" fill-rule="nonzero" opacity="0.6" points="58.7144506 26.8243323 55.7786131 29.8245204 56.4273734 30.6321876 59.269968 27.6608916"></polygon> <path d="M67.963225,0.00813962483 C59.7726259,3.2992193 64.4229504,7.8825665 69.0204154,16.3029895 C72.2727533,22.2600276 64.4433062,25.4325838 59.2876973,27.184171 L57.1037126,25.1200231 C62.5216493,23.6274804 64.696441,19.1511655 61.7031475,15.0195867 C56.8364602,8.30248778 56.659824,-0.301794455 67.963225,0.00813962483 L67.963225,0.00813962483 Z" id="Path" stroke="#091526" stroke-width="1.5"></path> <path d="M51.6962822,25.9129159 L54.287712,22.9711687 C56.1033216,24.1981006 57.7787386,25.6121748 59.2880256,27.184171 C60.3757498,28.3172033 61.3771258,29.5323156 62.2819757,30.8183451 L59.4390528,33.7893127 C56.9740262,30.5008596 54.4380826,27.9878983 51.6962822,25.9129159 Z" id="Path" stroke="#091526" stroke-width="1.5"></path> <path d="M28.2560292,51.766636 C28.2560292,51.766636 20.8118765,55.5509818 21.4947821,71.8977063 C21.4947821,71.8977063 24.9217862,71.342226 27.0529114,71.7522977 C28.0286784,71.9400967 31.1766106,73.0869185 30.5475494,70.3477447" id="Path" stroke="#091526" stroke-width="1.5" stroke-linecap="round" stroke-linejoin="round"></path> <path d="M0.32700672,91.222002 C14.0773766,67.9437857 6.7371264,47.8141582 6.7371264,47.8141582 L8.44340544,43.9616513 C8.69752512,21.1719751 41.771497,13.615362 56.1446899,30.1012942 C72.4946976,48.8546043 61.9641619,70.8477761 55.0586074,74.7620071 C55.0586074,74.7620071 55.9605024,81.242059 56.4950074,84.4067355" id="Path" stroke="#091526" stroke-width="1.5" stroke-linecap="round" stroke-linejoin="round"></path> <path d="M21.2636448,72.0060891 C21.2636448,72.0060891 18.7723526,70.7295809 15.4733933,72.4217422 C12.1954464,74.1033972 8.71065792,73.4946919 6.98369472,70.8477761 C7.26637824,73.2829255 11.2708973,80.0082324 23.3757274,76.9088916" id="Path" stroke="#091526" stroke-width="1.5" stroke-linecap="round" stroke-linejoin="round"></path> <path d="M21.4947821,74.740338 C21.4947821,74.740338 22.7794982,77.6328372 29.6361331,79.6595566 C31.9576838,80.3457454 43.1366515,82.3445575 43.9279027,73.5918747 C43.9279027,73.5918747 42.5735827,79.0360769 33.9601075,74.9724603 C31.8243859,73.9648462 27.9649843,71.1764244 23.6797517,71.696155" id="Path" stroke="#091526" stroke-width="1.5" stroke-linecap="round" stroke-linejoin="round"></path> <path d="M34.0215034,83.7313812 C34.0215034,83.7313812 33.3028109,82.8495137 32.1937459,82.6361057" id="Path" stroke="#091526" stroke-width="1.5" stroke-linecap="round" stroke-linejoin="round"></path> <path d="M32.8763232,83.4897377 C29.2283597,86.9397243 26.363111,82.0444731 22.3973338,81.167202 C18.302855,80.2613671 15.6703853,84.0120948 13.8872794,79.8181351" id="Path" stroke="#091526" stroke-width="1.5" stroke-linecap="round" stroke-linejoin="round"></path> <path d="M40.8065645,78.968443 C46.7462016,82.2890715 48.2771578,68.9083899 48.2771578,68.9083899 L50.7723898,68.9996628 C49.7884147,75.9580769 49.5349517,81.5227726 51.8354899,91.501074 C50.6571494,94.4195105 40.5984096,103.103575 37.7006573,103.777287 C27.4340909,106.164174 5.52595392,98.7014599 0.32733504,91.222002" id="Path" stroke="#091526" stroke-width="1.5" stroke-linecap="round" stroke-linejoin="round"></path> <path d="M10.0600531,55.5214702 C15.3686592,50.0812078 21.3014016,57.1000327 21.3014016,57.1000327 C21.3014016,57.1000327 19.8498989,63.2974011 16.9560864,63.7859412 C15.8079514,62.5793652 14.2041082,61.4571675 12.261767,61.042171 C10.9964218,58.6680891 11.8057306,54.6671815 11.8057306,54.6671815" id="Path" stroke="#091526" stroke-width="1.5" stroke-linecap="round" stroke-linejoin="round"></path> <path d="M32.651424,58.4513979 C38.0782253,54.1395713 41.7373517,57.6834574 43.8927725,60.0299604 C43.8927725,60.0299604 43.4262298,62.5652475 41.8903488,64.5404206 C39.7368979,63.6703726 36.9537293,64.9458958 35.4076704,65.6402926 C33.2181043,62.7028135 34.0198618,57.9063867 34.0198618,57.9063867" id="Path" stroke="#091526" stroke-width="1.5" stroke-linecap="round" stroke-linejoin="round"></path> <path d="M41.8808275,64.5643879 C41.8808275,64.5643879 43.3287187,65.1484692 43.8238253,66.7963073" id="Path" stroke="#091526" stroke-width="1.5" stroke-linecap="round" stroke-linejoin="round"></path> <path d="M52.2196243,67.5983931 C52.2196243,67.5983931 55.0001664,69.8582196 56.7445306,66.7821895 C59.991287,60.8868756 56.2451558,60.2890049 56.2451558,60.2890049" id="Path" stroke="#091526" stroke-width="1.5" stroke-linecap="round" stroke-linejoin="round"></path> <path d="M55.1584166,65.7755604 C55.7536608,65.7916481 56.3443085,66.0355899 56.8246406,66.4361403 C57.3030029,66.8412871 57.6506938,67.410594 57.7994227,68.0389985 C57.9527482,68.667403 57.8854426,69.3516219 57.635591,69.9590139 C57.3778598,70.5611527 56.9280614,71.088763 56.3626944,71.4351406 C55.7943725,71.7710119 55.1262413,71.9433799 54.4689446,71.8872372 C53.8132896,71.8343777 53.1770054,71.5782881 52.6904352,71.1554119 C52.1963136,70.7381172 51.8505926,70.1645422 51.709415,69.5578068 C51.5725056,68.9504148 51.629305,68.3101908 51.8824397,67.7740443 C51.9865171,67.5534132 52.2498298,67.4588571 52.4707891,67.5629345 C52.6457837,67.6453428 52.7413248,67.8278887 52.7219539,68.009778 L52.718999,68.0340737 C52.628711,68.8617684 53.0043091,69.6178894 53.5916736,69.9954574 C54.181008,70.3805767 54.9436954,70.3914113 55.509719,70.0338708 C56.0813242,69.6989844 56.4247469,69.0059009 56.3495616,68.313474 C56.2763462,67.6177639 55.7868211,66.9394548 55.0060762,66.6380571 L54.9870336,66.630834 C54.7588512,66.5428443 54.6452525,66.2867547 54.7335706,66.0585723 C54.8025178,65.8793095 54.9765274,65.7709639 55.1584166,65.7755604 Z" id="Path" fill="#F6CD52" fill-rule="nonzero"></path> <path d="M52.2672307,67.5983931 C52.2672307,67.5983931 53.5082803,68.6069921 54.8520941,68.3594388" id="Path" stroke="#091526" stroke-width="1.6416" stroke-linecap="round" stroke-linejoin="round"></path> <circle id="Oval" fill="#091526" fill-rule="nonzero" cx="13.1795309" cy="56.6610689" r="1.90819584"></circle> <circle id="Oval" fill="#091526" fill-rule="nonzero" cx="36.3264192" cy="60.1087572" r="2.07268416"></circle> <path d="M48.1107872,52.0965527 C40.2288089,42.411441 32.1606733,47.4340803 32.1606733,47.4340803 C32.1606733,47.4340803 31.6662233,46.0502115 32.9246739,44.5011978 C34.1831245,42.952184 40.9721254,40.5715357 45.957008,46.6487389 C47.9220032,49.0441616 48.1107872,52.0965527 48.1107872,52.0965527 Z" id="Path" fill="#091526" fill-rule="nonzero"></path> <path d="M6.99223104,46.2885818 C16.6671648,40.3128295 21.8647987,46.414985 21.8647987,46.414985 C21.8647987,46.414985 23.1994195,44.1354593 22.4347622,43.3343585 C18.3343738,39.0376346 11.6156333,40.2648948 7.91973504,43.057913 L6.89373504,45.3742106 L6.99223104,46.2885818 Z" id="Path" fill="#091526" fill-rule="nonzero"></path> </g> <path d="M85.335,109.486866 C85.335,109.486866 85.7172,107.870466 87.0624,106.868766 C91.9473,103.231866 93.3909,97.5933655 93.8268,94.4118655 C97.2765,91.6959655 95.3058,87.3642655 101.6685,85.2573655" id="Path" stroke="#091526" stroke-width="1.5" stroke-linecap="round" stroke-linejoin="round"></path> <path d="M79.4739,94.9143655 C79.4739,94.9143655 80.4915,88.7532655 89.5332,86.5764655" id="Path" stroke="#091526" stroke-width="1.5" stroke-linecap="round" stroke-linejoin="round"></path> <path d="M43.845,84.9210655 C43.845,84.9210655 44.9115,87.6555655 48.3441,89.0028655 C51.7767,90.3498655 54.786,96.2112655 55.3767,99.2589655 C56.214,103.578066 61.6113,107.928666 64.0392,109.230666" id="Path" stroke="#091526" stroke-width="1.5" stroke-linecap="round" stroke-linejoin="round"></path> <path d="M79.785,89.7888655 C79.785,89.7888655 81.1356,89.5467655 81.6687,90.8916655" id="Path" stroke="#091526" stroke-width="0.9" stroke-linecap="round" stroke-linejoin="round"></path> <path d="M236.7669,118.251366 C248.3847,126.767766 267.0132,135.118266 279.3681,137.706666 C279.3681,137.706666 290.2749,174.137766 303.3603,214.651266 C303.3603,214.651266 277.4424,247.071966 242.8677,239.420466" id="Path" stroke="#091526" stroke-width="1.5" stroke-linecap="round" stroke-linejoin="round"></path> <path d="M0.0003,73.3041655 C0.0003,71.7483655 0.0003,68.5455655 0.0003,68.5455655 C24.0858,63.9135655 105.8601,68.5455655 137.403,68.5455655 C137.403,68.5455655 137.403,68.5455655 137.403,73.3041655 C137.403,82.5276655 106.6443,90.0048655 68.7015,90.0048655 C30.7587,90.0048655 0.0003,82.5279655 0.0003,73.3041655 Z" id="Path" stroke="#091526" stroke-width="1.5" fill="#091526" fill-rule="nonzero" stroke-linecap="round" stroke-linejoin="round"></path> <ellipse id="Oval" stroke="#091526" stroke-width="1.5" fill="#085A93" fill-rule="nonzero" cx="68.7015" cy="68.5458655" rx="68.7015" ry="16.7007"></ellipse> <ellipse id="Oval" fill="#052542" fill-rule="nonzero" cx="70" cy="68.2465655" rx="67" ry="16"></ellipse> <polygon id="Star" fill="#FFFFFF" points="50.1951814 19.5648902 47.5373541 21.1273086 48.4103753 18.1704469 46.847957 15.5126196 49.8048186 16.3856408 52.4626459 14.8232225 51.5896247 17.7800842 53.152043 20.4379114"></polygon> <polygon id="Star" fill="#FFFFFF" points="123.029465 378.202134 121.651377 380.960044 120.773132 378.00473 118.015221 376.626643 120.970535 375.748397 122.348623 372.990487 123.226868 375.945801 125.984779 377.323889"></polygon> <polygon id="Star" fill="#FFFFFF" points="193.029465 323.202134 191.651377 325.960044 190.773132 323.00473 188.015221 321.626643 190.970535 320.748397 192.348623 317.990487 193.226868 320.945801 195.984779 322.323889"></polygon> <polygon id="Star" fill="#FFFFFF" points="233.195181 382.56489 230.537354 384.127309 231.410375 381.170447 229.847957 378.51262 232.804819 379.385641 235.462646 377.823223 234.589625 380.780084 236.152043 383.437911"></polygon> <polygon id="Star" fill="#FFFFFF" points="184.271204 436.792988 181.002741 435.632313 184.182278 434.24647 185.342952 430.978007 186.728796 434.157543 189.997259 435.318218 186.817722 436.704061 185.657048 439.972524"></polygon> <path d="M169.604478,453.603467 C170.784465,453.234581 171.639019,452.759422 172.168142,452.17799" id="Path-11" stroke="#091526" stroke-width="1.5" stroke-linecap="round" stroke-linejoin="round"></path> <path d="M173.302623,445.055934 C172.320058,444.864984 171.514621,444.76951 170.88631,444.76951" id="Path-12" stroke="#091526" stroke-width="1.5" stroke-linecap="round" stroke-linejoin="round"></path> <path d="M151.215683,443.997192 C152.236846,443.959997 153.187871,443.830188 154.068757,443.607767" id="Path-13" stroke="#091526" stroke-width="1.5" stroke-linecap="round" stroke-linejoin="round"></path> <path d="M150.683188,426.2591 C150.216689,426.870711 149.98344,427.371292 149.98344,427.760842" id="Path-14" stroke="#091526" stroke-width="1.5" stroke-linecap="round" stroke-linejoin="round"></path> <path d="M189.26947,407.19619 C182.350237,415.138738 170.109253,413.814716 170.109253,413.814716 L170.321196,414.284244 C171.183614,416.322895 174.032024,424.490448 166.383389,428.64107 C168.778416,432.082576 165.585047,436.319131 165.585047,436.319131 L165.877731,436.346737 C167.42,436.523403 174.488873,437.736146 173.302623,445.055934 C180.221856,446.114676 181.286046,448.762721 180.753552,450.880204 C184.213568,451.93974 185.01191,458.293779 181.818541,459.882288 C178.625171,461.470798 172.50428,459.882288 169.843405,453.52825 C166.384188,454.852273 147.755667,454.852273 151.215683,443.997192 C141.369726,444.261679 127.53126,438.437409 135.248835,429.436119 C142.966411,420.434829 150.683188,426.2591 150.683188,426.2591 L152.545721,423.876335 L152.431754,423.560357 C151.92925,422.024246 150.332113,415.296727 159.730802,412.491487 L159.606974,412.208292 C158.834389,410.342277 155.098022,399.693636 167.448378,393.429372 C181.020198,386.545566 196.188703,399.253642 189.26947,407.19619 Z M179.003012,426.455232 C176.773443,426.455232 175.924721,421.600716 179.003012,419.995206 C184.452821,417.153198 181.232581,426.455232 179.003012,426.455232 Z M138.945014,405.987387 L139.138039,405.981018 C139.952103,405.969138 143.1937,406.071938 146.02652,408.282174 C149.295158,410.831683 143.575041,413.12647 140.034288,411.34189 C136.493535,409.557311 135.94849,405.732666 138.945014,405.987387 Z M127.624054,394.965746 C126.297605,398.675946 112.505563,405.035833 111.179114,397.350704 C109.853461,389.665575 116.073526,388.391212 123.645503,387.015887 C126.563372,386.485631 128.950502,391.255547 127.624054,394.965746 Z M225.416119,275.95542 C229.565673,278.384506 235.542066,282.014454 237.448407,284.205798 C240.419828,287.621455 242.279118,290.067489 243.363651,291.798075 C244.979191,292.275641 246.438018,292.979339 247.740203,293.908254 C250.938434,293.781257 254.770697,294.224939 258.127847,296.640345 C259.643197,297.73061 261.172237,300.514363 262.714969,304.991605 C276.290491,307.164475 294.999794,316.462276 287.219321,338.401052 C280.164607,358.29339 267.792734,360.843073 259.520165,359.533066 C256.824805,359.276659 254.535156,358.339375 252.878682,357.427643 L252.615008,357.279729 L252.663646,357.505973 C252.759386,357.974633 252.829942,358.454235 252.875046,358.940505 L252.913744,359.463638 C253.223881,364.875025 250.41789,370.925776 244.135679,371.857487 C236.986955,372.917709 231.162334,369.736246 229.573729,362.577954 L229.411175,363.028604 C227.831129,367.305834 225.199295,371.414764 218.788659,370.57929 L218.470008,370.532729 L218.632686,370.762551 C220.720546,373.74657 222.121351,377.045823 222.530604,380.366369 C223.287815,386.457594 220.703773,392.622793 212.893375,397.043541 C209.970405,398.697965 207.016918,399.420827 204.139063,399.454605 L203.779733,399.454605 C203.012749,399.44824 202.252495,399.393508 201.500154,399.295 L200.878865,399.203454 L200.591404,399.154296 L200.148298,399.070095 L199.896234,399.017676 L199.404303,398.905827 L199.005976,398.806307 L198.372138,398.630848 C191.608331,396.651917 185.758059,391.442528 182.445373,386.703785 L180.372938,387.172562 C168.71223,389.7767 144.376833,394.057753 128.697299,363.903033 C121.548576,366.289131 114.929652,362.047445 114.929652,362.047445 L114.581536,362.66549 C111.942266,367.236279 94.6381123,395.198801 74.42022,380.076002 C65.626827,373.498478 62.1325955,366.156872 62.0037154,359.461074 L62.0002994,358.965457 C62.0376012,349.118923 69.3095777,340.751839 77.5975814,338.401052 C75.7444994,329.909672 77.8620804,320.092085 87.1290787,319.030961 C83.9673865,310.743751 89.8446351,297.941947 105.217701,301.969241 C106.01129,296.178775 109.379486,291.303665 117.631021,289.475266 L117.626434,289.220656 C117.503077,285.500669 114,272.076197 140.034288,256.264722 M136.801615,387.173336 L136.644474,387.416262 C135.175713,389.59771 132.285582,391.581285 132.014321,388.024421 C131.654451,383.317072 138.208997,384.903493 136.801615,387.173336 Z" id="Shape" stroke="#091526" stroke-width="1.5" fill-rule="nonzero"></path> <path d="M141.985267,281.059426 C142.475451,280.957482 143.263386,280.850944 144.349072,280.739812 C148.350908,272.09977 156.014201,269.24951 164.892554,271.553287 C170.811456,273.089138 174.013938,276.858048 174.5,282.860018 C182.221226,276.915229 187.828451,275.841616 194.981464,277.806465 C199.750139,279.116364 202.242612,282.668964 202.458885,288.464266 C205.250209,286.151841 211.837398,281.409071 219.457244,284.458266 C224.537141,286.491062 227.529023,289.137813 228.432891,292.398517 C234.852396,291.084954 239.829316,290.884806 243.363651,291.798075" id="Path-6" stroke="#091526" stroke-width="1.5" stroke-linecap="round" stroke-linejoin="round"></path> <polygon id="Star" fill="#FFFFFF" points="136.493661 287.148145 135.066512 291.950531 132.82712 287.468926 128.024734 286.041778 132.506339 283.802386 133.933488 279 136.17288 283.481605 140.975266 284.908753"></polygon> <path d="M254.430187,305.000135 C254.867956,305.000135 262.173676,304.547904 265.864847,305.642206" id="Path-7" stroke="#091526" stroke-width="1.5" stroke-linecap="round" stroke-linejoin="round"></path> <path d="M128.697299,363.903033 C128.697299,363.903033 132.421956,362.844251 135.441071,359.960028" id="Path-8" stroke="#091526" stroke-width="1.5" stroke-linecap="round" stroke-linejoin="round"></path> <path d="M81.0305241,344.999992 C79.2296547,342.641976 78.0889625,340.355676 77.6084476,338.141093" id="Path-9" stroke="#091526" stroke-width="1.5" stroke-linecap="round" stroke-linejoin="round"></path> <path d="M170.480374,413.916184 C169.717038,413.785904 169.175905,413.653041 168.856975,413.517594" id="Path-15" stroke="#091526" stroke-width="1.5" stroke-linecap="round" stroke-linejoin="round"></path> <line x1="182.445373" y1="386.703785" x2="181.497572" y2="384.512917" id="Path-16" stroke="#091526" stroke-width="1.5" stroke-linecap="round" stroke-linejoin="round"></line> <path d="M105,301.942694 C106.876213,302.292662 108.752426,302.914809 110.628638,303.809135" id="Path-17" stroke="#091526" stroke-width="1.5" stroke-linecap="round" stroke-linejoin="round"></path> <g id="Group-11" transform="translate(9.000000, 22.975266)"> <g id="Group-6" transform="translate(0.000000, 26.394500)"> <path d="M0.1875,6.7116 L13.248,13.7301 L37.4712,5.0232 C37.4712,5.0232 28.3734,0.9348 23.8527,1.33226763e-14 C15.0339,4.3536 0.1875,6.7116 0.1875,6.7116 Z" id="Path" fill="#028E79" fill-rule="nonzero"></path> <g id="Group" opacity="0.5" transform="translate(0.000000, 0.805500)" fill="#8DFCE9" fill-rule="nonzero"> <path d="M13.3257,12.5397 L0.1872,5.8053 C0.1872,5.8053 13.1655,3.5283 22.4454,0.2718 C22.4454,0.2718 22.4454,0.2718 20.8113,1.479 C16.6692,3.8223 5.1252,6.5208 5.1252,6.5208 L13.3257,12.5397 Z" id="Path"></path> </g> <path d="M0.1875,6.7116 L13.248,13.7301 L37.4712,5.0232 C37.4712,5.0232 28.3734,0.9348 23.8527,1.33226763e-14 C15.0339,4.3536 0.1875,6.7116 0.1875,6.7116 Z" id="Path" stroke="#091526" stroke-width="1.5" stroke-linecap="round" stroke-linejoin="round"></path> <path d="M0.1875,6.7116 C0.702,10.3434 0.9372,13.6806 0.6786,16.4967 L13.2477,23.7891 L37.0272,13.3116 C37.0272,13.3116 36.522,7.521 37.4709,5.0232 L13.2477,13.7301 L0.1875,6.7116 Z" id="Path" stroke="#091526" stroke-width="1.5" fill="#046355" fill-rule="nonzero" stroke-linecap="round" stroke-linejoin="round"></path> <g id="Group" transform="translate(13.200000, 4.105500)"> <path d="M8.2503,2.0637 C7.9788,2.052 7.6818,2.0547 7.3596,2.0718 C7.0374,2.0889 6.7017,2.1114 6.3522,2.1393 C6.0027,2.1672 5.7282,2.1741 5.529,2.16 C5.3298,2.1459 5.1702,2.1006 5.0505,2.0238 C4.9326,1.9482 4.896,1.8753 4.941,1.8051 C4.986,1.7352 5.1099,1.6758 5.3127,1.6269 C5.5401,1.572 5.7603,1.5588 5.9739,1.5873 C6.1872,1.6158 6.378,1.6839 6.5463,1.7916 L8.1039,1.4163 C7.7967,1.2195 7.383,1.0956 6.8622,1.0449 C6.4017,0.9999 5.9064,1.0209 5.3793,1.0995 L4.836,0.7512 L4.6512,0.7956 L3.9186,0.972 L3.6699,1.0317 L4.203,1.3734 C3.7797,1.5138 3.486,1.6671 3.3384,1.8354 C3.1653,2.0334 3.2151,2.2197 3.4884,2.3949 C3.6516,2.4996 3.8397,2.577 4.053,2.6268 C4.266,2.6769 4.5084,2.7075 4.7799,2.7189 C5.0514,2.7306 5.3478,2.7267 5.6691,2.7078 C5.9904,2.6889 6.3339,2.664 6.6996,2.6328 C7.0653,2.6016 7.3443,2.595 7.5369,2.613 C7.7295,2.6307 7.8897,2.6805 8.0172,2.7624 C8.1321,2.8359 8.1621,2.9082 8.1078,2.979 C8.0535,3.0498 7.9218,3.1104 7.713,3.1608 C7.4274,3.2295 7.1589,3.252 6.9075,3.2277 C6.6561,3.2034 6.4383,3.1323 6.2541,3.0141 L4.7013,3.3882 C5.0358,3.6027 5.4843,3.7326 6.0468,3.7773 C6.5625,3.8184 7.1424,3.7791 7.7799,3.6669 L8.2839,3.9903 L8.4402,3.9525 L9.1728,3.7761 L9.4497,3.7095 L8.9382,3.3816 C9.3366,3.2463 9.6096,3.0993 9.7413,2.9397 C9.9,2.7474 9.8412,2.5626 9.5649,2.3856 C9.4017,2.2809 9.2097,2.2038 8.9889,2.1543 C8.7681,2.1057 8.5221,2.0751 8.2503,2.0637 Z" id="Path" fill="#091526" fill-rule="nonzero"></path> <path d="M0.8214,3.7539 C-0.8025,2.7126 0.3828,1.2657 3.4692,0.522 C6.5556,-0.2217 10.374,0.0198 11.9982,1.0611 C13.6224,2.1024 12.4368,3.5496 9.3504,4.293 C6.264,5.0367 2.4453,4.7952 0.8214,3.7539 Z" id="Path" fill="#47C5B1"></path> </g> <path d="M13.4001,13.7064 L13.4001,23.7654 L27.2007,17.80765 L27.2007,14.5782 C27.2007,14.5782 22.4946,12.2814 20.3568,11.175 L13.4001,13.7064 Z" id="Path" fill="#091526" fill-rule="nonzero" opacity="0.2"></path> <line x1="12.3231" y1="15.3897" x2="1.7106" y2="9.7365" id="Path" stroke="#091526" stroke-width="0.5" stroke-linecap="round" stroke-linejoin="round"></line> <line x1="22.4946" y1="12.2817" x2="14.5632" y2="15.393" id="Path" stroke="#091526" stroke-width="0.5" stroke-linecap="round" stroke-linejoin="round"></line> <line x1="24.1785" y1="14.5071" x2="14.5632" y2="18.2793" id="Path" stroke="#091526" stroke-width="0.5" stroke-linecap="round" stroke-linejoin="round"></line> <line x1="18.5289" y1="19.5387" x2="14.5632" y2="21.0945" id="Path" stroke="#091526" stroke-width="0.5" stroke-linecap="round" stroke-linejoin="round"></line> <line x1="24.1785" y1="17.3223" x2="20.6943" y2="18.6894" id="Path" stroke="#091526" stroke-width="0.5" stroke-linecap="round" stroke-linejoin="round"></line> <line x1="7.6173" y1="17.2572" x2="2.5881" y2="14.5782" id="Path" stroke="#091526" stroke-width="0.5" stroke-linecap="round" stroke-linejoin="round"></line> <line x1="12.3231" y1="19.764" x2="9.6474" y2="18.3387" id="Path" stroke="#091526" stroke-width="0.5" stroke-linecap="round" stroke-linejoin="round"></line> </g> <g id="Group-4" transform="translate(26.796600, 29.796000)"> <path d="M-2.48689958e-14,6.7116 L13.0605,13.7301 L37.2837,5.0232 C37.2837,5.0232 28.1859,0.9348 23.6652,-1.50990331e-14 C14.8464,4.3536 -2.48689958e-14,6.7116 -2.48689958e-14,6.7116 Z" id="Path" stroke="#091526" stroke-width="1.5" fill="#028E79" fill-rule="nonzero" stroke-linecap="round" stroke-linejoin="round"></path> <path d="M13.8339,7.8594 C12.21,6.8181 13.3953,5.3709 16.4817,4.6275 C19.5681,3.8838 23.3865,4.1253 25.0107,5.1666 C26.6346,6.2079 25.4493,7.6548 22.3629,8.3985 C19.2765,9.1422 15.4581,8.9007 13.8339,7.8594 Z" id="Path" fill="#47C5B1"></path> <path d="M-2.48689958e-14,6.7116 L13.0605,13.7301 L37.2837,5.0232 C37.2837,5.0232 28.1859,0.9348 23.6652,-1.50990331e-14 C14.8464,4.3536 -2.48689958e-14,6.7116 -2.48689958e-14,6.7116 Z" id="Path" fill="#091526" fill-rule="nonzero" opacity="0.5"></path> <path d="M1.27897692e-13,6.7116 C0.5145,10.3434 0.7497,13.6806 0.4911,16.4967 L13.0602,23.7891 L36.8397,13.3116 C36.8397,13.3116 36.3345,7.5207 37.2834,5.0232 L13.0602,13.7301 L1.27897692e-13,6.7116 Z" id="Path" stroke="#091526" stroke-width="1.5" fill="#046355" fill-rule="nonzero" stroke-linecap="round" stroke-linejoin="round"></path> <path d="M1.27897692e-13,6.7116 C0.5145,10.3434 0.7497,13.6806 0.4911,16.4967 L13.0602,23.7891 L36.8397,13.3116 C36.8397,13.3116 36.3345,7.5207 37.2834,5.0232 L13.0602,13.7301 L1.27897692e-13,6.7116 Z" id="Path" fill="#091526" fill-rule="nonzero" opacity="0.2"></path> <line x1="12.0543" y1="15.0687" x2="6.4161" y2="12.0816" id="Path" stroke="#091526" stroke-width="0.5" stroke-linecap="round" stroke-linejoin="round"></line> <line x1="6.5868" y1="15.3306" x2="2.0274" y2="12.915" id="Path" stroke="#091526" stroke-width="0.5" stroke-linecap="round" stroke-linejoin="round"></line> <line x1="11.2998" y1="17.8278" x2="8.8725" y2="16.5417" id="Path" stroke="#091526" stroke-width="0.5" stroke-linecap="round" stroke-linejoin="round"></line> <line x1="31.4025" y1="8.9943" x2="13.9206" y2="15.8778" id="Path" stroke="#091526" stroke-width="0.5" stroke-linecap="round" stroke-linejoin="round"></line> <line x1="27.1335" y1="13.3044" x2="13.9206" y2="18.693" id="Path" stroke="#091526" stroke-width="0.5" stroke-linecap="round" stroke-linejoin="round"></line> <line x1="11.2998" y1="20.0988" x2="2.0274" y2="15.186" id="Path" stroke="#091526" stroke-width="0.5" stroke-linecap="round" stroke-linejoin="round"></line> </g> <g id="Group-9" transform="translate(59.700000, 29.900000)"> <g id="Group"> <path d="M0.0699,8.403 L14.3526,13.2657 L34.5534,3.4266 C34.5534,3.4266 26.0178,1.1565 21.4968,0.2217 C12.6783,4.575 0.0699,8.403 0.0699,8.403 Z" id="Path" stroke="#091526" stroke-width="1.5" fill="#028E79" fill-rule="nonzero" stroke-linecap="round" stroke-linejoin="round"></path> <path d="M34.5534,3.4266 C33.6045,5.9241 34.1097,11.715 34.1097,11.715 L14.3526,23.3247 L0.561,18.1878 C0.8193,15.3717 0.5841,12.0345 0.0699,8.4027 L14.3526,13.2657 L34.5534,3.4266 Z" id="Path" stroke="#091526" stroke-width="1.5" fill="#046355" fill-rule="nonzero" stroke-linecap="round" stroke-linejoin="round"></path> <path d="M12.5793,7.17 C10.4952,6.2607 10.9236,5.0316 13.536,4.4244 C16.1484,3.8172 19.956,4.062 22.0398,4.9713 C24.1239,5.8806 23.6955,7.1097 21.0831,7.7172 C18.4707,8.3241 14.6634,8.0793 12.5793,7.17 Z" id="Path" fill="#47C5B1"></path> <polygon id="Path" fill="#091526" fill-rule="nonzero" opacity="0.3" points="19.1835 1.3149 27.7431 6.7437 14.3526 13.2657 0.0699 8.403"></polygon> <path d="M34.5534,3.4266 C33.6045,5.9241 34.1097,11.715 34.1097,11.715 L14.3526,23.3247 L0.561,18.1878 C0.8193,15.3717 0.5841,12.0345 0.0699,8.4027 L14.3526,13.2657 L34.5534,3.4266 Z" id="Path" fill="#091526" fill-rule="nonzero" opacity="0.2"></path> <line x1="2.3157" y1="11.3319" x2="13.1757" y2="15.1041" id="Path" stroke="#091526" stroke-width="0.5" stroke-linecap="round" stroke-linejoin="round"></line> <line x1="8.2041" y1="16.0395" x2="13.1757" y2="17.7663" id="Path" stroke="#091526" stroke-width="0.5" stroke-linecap="round" stroke-linejoin="round"></line> <line x1="2.3157" y1="13.9941" x2="5.1588" y2="14.9817" id="Path" stroke="#091526" stroke-width="0.5" stroke-linecap="round" stroke-linejoin="round"></line> <line x1="2.3157" y1="16.4256" x2="13.1757" y2="20.1975" id="Path" stroke="#091526" stroke-width="0.5" stroke-linecap="round" stroke-linejoin="round"></line> </g> <line x1="15.54" y1="14.9817" x2="22.9356" y2="11.1363" id="Path" stroke="#091526" stroke-width="0.5" stroke-linecap="round" stroke-linejoin="round"></line> <line x1="15.54" y1="19.9929" x2="23.2959" y2="15.5796" id="Path" stroke="#091526" stroke-width="0.5" stroke-linecap="round" stroke-linejoin="round"></line> </g> <g id="Group-10" transform="translate(81.000000, 30.000000)"> <path d="M0.2022,6.9237 L13.2627,13.9422 L37.4859,5.2353 C37.4859,5.2353 28.3881,1.1469 23.8674,0.2121 C15.0489,4.5657 0.2022,6.9237 0.2022,6.9237 Z" id="Path" fill="#04695F" fill-rule="nonzero"></path> <path d="M0.2022,6.9237 L13.2627,13.9422 L37.4859,5.2353 C37.4859,5.2353 28.3881,1.1469 23.8674,0.2121 C15.0489,4.5657 0.2022,6.9237 0.2022,6.9237 Z" id="Path" stroke="#091526" stroke-width="1.5" stroke-linecap="round" stroke-linejoin="round"></path> <path d="M0.2022,6.9237 C0.7167,10.5555 0.9519,13.8927 0.6933,16.7088 L13.2624,24.0012 L37.0419,13.5237 C37.0419,13.5237 36.5367,7.7328 37.4856,5.2353 L13.2624,13.9422 L0.2022,6.9237 Z" id="Path" stroke="#091526" stroke-width="1.5" fill="#046355" fill-rule="nonzero" stroke-linecap="round" stroke-linejoin="round"></path> <path d="M0.2022,6.9237 C0.7167,10.5555 0.9519,13.8927 0.6933,16.7088 L13.2624,24.0012 L37.0419,13.5237 C37.0419,13.5237 36.5367,7.7328 37.4856,5.2353 L13.2624,13.9422 L0.2022,6.9237 Z" id="Path" fill="#091526" fill-rule="nonzero" opacity="0.2"></path> <line x1="2.4132" y1="10.4319" x2="11.4882" y2="15.1395" id="Path" stroke="#091526" stroke-width="0.5" stroke-linecap="round" stroke-linejoin="round"></line> <line x1="34.8321" y1="8.1633" x2="14.2356" y2="16.125" id="Path" stroke="#091526" stroke-width="0.5" stroke-linecap="round" stroke-linejoin="round"></line> <line x1="34.8321" y1="12.6522" x2="14.2356" y2="21.2901" id="Path" stroke="#091526" stroke-width="0.5" stroke-linecap="round" stroke-linejoin="round"></line> <line x1="23.0436" y1="14.7801" x2="14.2356" y2="18.1848" id="Path" stroke="#091526" stroke-width="0.5" stroke-linecap="round" stroke-linejoin="round"></line> <line x1="34.8321" y1="10.2231" x2="26.1222" y2="13.59" id="Path" stroke="#091526" stroke-width="0.5" stroke-linecap="round" stroke-linejoin="round"></line> <line x1="2.4132" y1="13.0941" x2="6.51" y2="15.2193" id="Path" stroke="#091526" stroke-width="0.5" stroke-linecap="round" stroke-linejoin="round"></line> <line x1="8.0217" y1="15.8238" x2="12.1185" y2="17.9487" id="Path" stroke="#091526" stroke-width="0.5" stroke-linecap="round" stroke-linejoin="round"></line> <line x1="2.4132" y1="15.5256" x2="12.6033" y2="21.1761" id="Path" stroke="#091526" stroke-width="0.5" stroke-linecap="round" stroke-linejoin="round"></line> <path d="M14.0364,8.0715 C12.4125,7.0302 13.5978,5.5833 16.6842,4.8396 C19.7706,4.0959 23.589,4.3374 25.2132,5.3787 C26.8371,6.42 25.6518,7.8672 22.5654,8.6106 C19.479,9.3543 15.6603,9.1128 14.0364,8.0715 Z" id="Path" fill="#348F86"></path> </g> <g id="Group-8" transform="translate(14.884800, 19.431200)"> <g id="Group-7"> <path d="M0.6942,5.5335 L14.2851,12.0858 L35.5263,4.7583 C35.5263,4.7583 27.3273,1.4739 22.9524,-7.10542736e-15 C13.6722,3.2565 0.6942,5.5335 0.6942,5.5335 Z" id="Path" fill="#028E79" fill-rule="nonzero"></path> <path d="M15.8428643,6.23228972 C14.2189643,5.19098972 15.4042643,3.74408972 18.4906643,3.00038972 C21.5770643,2.25668972 25.3954643,2.49818972 27.0196643,3.53948972 C28.6438643,4.58078972 27.4582643,6.02798972 24.3718643,6.77138972 C21.2854643,7.51508972 17.4667643,7.27358972 15.8428643,6.23228972 Z" id="Path" fill="#47C5B1"></path> <path d="M14.2848,12.0858 L0.6939,5.5335 C0.6939,5.5335 13.6722,3.2565 22.9521,-7.10542736e-15 C22.9521,-7.10542736e-15 22.9521,-7.10542736e-15 21.318,1.2072 C17.763,2.7201 5.0409,5.8506 5.0409,5.8506 L14.2848,12.0858 Z" id="Path" fill="#8DFCE9" fill-rule="nonzero"></path> <path d="M35.5263,4.7583 C34.2828,7.1232 34.0848,12.9324 34.0848,12.9324 L13.0701,22.071 L-2.30926389e-13,15.306 C0.5967,12.5418 0.7662,9.2007 0.6942,5.5332 L14.2851,12.0855 L35.5263,4.7583 Z" id="Path" stroke="#091526" stroke-width="1.5" fill="#046355" fill-rule="nonzero" stroke-linecap="round" stroke-linejoin="round"></path> <line x1="32.6502" y1="7.7628" x2="17.3925" y2="13.3512" id="Path" stroke="#091526" stroke-width="0.5" stroke-linecap="round" stroke-linejoin="round"></line> <line x1="12.9159" y1="13.8954" x2="2.3034" y2="8.7003" id="Path" stroke="#091526" stroke-width="0.5" stroke-linecap="round" stroke-linejoin="round"></line> <line x1="25.437" y1="12.6459" x2="31.047" y2="10.4697" id="Path" stroke="#091526" stroke-width="0.5" stroke-linecap="round" stroke-linejoin="round"></line> <line x1="15.4416" y1="19.1325" x2="32.6502" y2="11.9007" id="Path" stroke="#091526" stroke-width="0.5" stroke-linecap="round" stroke-linejoin="round"></line> <line x1="1.8234" y1="13.4763" x2="12.3159" y2="18.7128" id="Path" stroke="#091526" stroke-width="0.5" stroke-linecap="round" stroke-linejoin="round"></line> <path d="M0.6942,5.5335 L14.2851,12.0858 L35.5263,4.7583 C35.5263,4.7583 27.3273,1.4739 22.9524,-7.10542736e-15 C13.6722,3.2565 0.6942,5.5335 0.6942,5.5335 Z" id="Path" stroke="#091526" stroke-width="1.5" stroke-linecap="round" stroke-linejoin="round"></path> <path d="M14.2848,12.0858 L13.0698,22.0713 L34.0845,12.9327 C34.0845,12.9327 34.4361,6.9288 35.526,4.7586 C26.8164,7.7628 14.2848,12.0858 14.2848,12.0858 Z" id="Path" fill="#091526" fill-rule="nonzero" opacity="0.2"></path> </g> <line x1="15.4416" y1="16.5228" x2="20.7312" y2="14.4711" id="Path" stroke="#091526" stroke-width="0.5" stroke-linecap="round" stroke-linejoin="round"></line> </g> <g id="Group" transform="translate(40.000000, 22.000000)"> <path d="M0.2595,4.3329 L14.5422,9.1956 L35.0319,3.5589 C35.0319,3.5589 24.6213,1.0797 20.1003,0.1449 C12.6714,3.5592 0.2595,4.3329 0.2595,4.3329 Z" id="Path" stroke="#091526" stroke-width="1.5" fill="#028E79" fill-rule="nonzero" stroke-linecap="round" stroke-linejoin="round"></path> <path d="M35.0319,3.5592 C34.083,6.057 34.5882,11.8476 34.5882,11.8476 L14.5419,19.2549 L0.7503,14.118 C1.0086,11.3019 0.7734,7.9647 0.2592,4.3329 L14.5419,9.1959 L35.0319,3.5592 Z" id="Path" stroke="#091526" stroke-width="1.5" fill="#046355" fill-rule="nonzero" stroke-linecap="round" stroke-linejoin="round"></path> <g transform="translate(13.200000, 2.400000)" fill="#47C5B1" id="Path"> <path d="M1.1859,2.8578 C-0.6534,2.0427 -0.2682,0.9573 2.0463,0.4332 C4.3608,-0.0906 7.728,0.1455 9.5673,0.9606 C11.4066,1.7757 11.0214,2.8611 8.7069,3.3852 C6.3924,3.9093 3.0249,3.6729 1.1859,2.8578 Z"></path> </g> <path d="M14.5422,9.1959 L14.5422,19.2549 L34.5555,11.4069 C34.5555,11.4069 34.3035,5.3316 35.0322,3.5589 C26.6103,6.174 14.5422,9.1959 14.5422,9.1959 Z" id="Path" fill="#091526" fill-rule="nonzero" opacity="0.2"></path> <path d="M0.4817,4.4406 L14.7644,9.3033 L32.9057,4.3791 L21.3758,2.4 C12.9542,5.0151 0.4817,4.4406 0.4817,4.4406 Z" id="Path" fill="#091526" fill-rule="nonzero" opacity="0.3"></path> <line x1="22.4535" y1="8.916" x2="15.3912" y2="10.9218" id="Path" stroke="#091526" stroke-width="0.5" stroke-linecap="round" stroke-linejoin="round"></line> <line x1="13.0509" y1="10.9413" x2="2.0382" y2="6.9528" id="Path" stroke="#091526" stroke-width="0.5" stroke-linecap="round" stroke-linejoin="round"></line> <line x1="4.5363" y1="13.4625" x2="2.0382" y2="12.5577" id="Path" stroke="#091526" stroke-width="0.5" stroke-linecap="round" stroke-linejoin="round"></line> <line x1="13.0509" y1="16.5462" x2="6.4629" y2="14.1603" id="Path" stroke="#091526" stroke-width="0.5" stroke-linecap="round" stroke-linejoin="round"></line> <line x1="32.8962" y1="5.9499" x2="25.1835" y2="8.1405" id="Path" stroke="#091526" stroke-width="0.5" stroke-linecap="round" stroke-linejoin="round"></line> <line x1="21.2661" y1="11.6424" x2="32.9244" y2="8.0532" id="Path" stroke="#091526" stroke-width="0.5" stroke-linecap="round" stroke-linejoin="round"></line> <line x1="15.363" y1="13.4598" x2="18.9054" y2="12.3693" id="Path" stroke="#091526" stroke-width="0.5" stroke-linecap="round" stroke-linejoin="round"></line> <line x1="30.5496" y1="11.3241" x2="33.0246" y2="10.4253" id="Path" stroke="#091526" stroke-width="0.5" stroke-linecap="round" stroke-linejoin="round"></line> <line x1="15.8157" y1="16.6752" x2="28.4592" y2="12.0834" id="Path" stroke="#091526" stroke-width="0.5" stroke-linecap="round" stroke-linejoin="round"></line> </g> <g id="Group" transform="translate(68.000000, 23.000000)"> <path d="M0.2595,4.3329 L14.5422,9.1956 L35.0319,3.5589 C35.0319,3.5589 24.6213,1.0797 20.1003,0.1449 C12.6714,3.5592 0.2595,4.3329 0.2595,4.3329 Z" id="Path" stroke="#091526" stroke-width="1.5" fill="#04695F" fill-rule="nonzero" stroke-linecap="round" stroke-linejoin="round"></path> <path d="M35.0319,3.5592 C34.083,6.057 34.5882,11.8476 34.5882,11.8476 L14.5419,19.2549 L0.7503,14.118 C1.0086,11.3019 0.7734,7.9647 0.2592,4.3329 L14.5419,9.1959 L35.0319,3.5592 Z" id="Path" stroke="#091526" stroke-width="1.5" fill="#046355" fill-rule="nonzero" stroke-linecap="round" stroke-linejoin="round"></path> <g transform="translate(13.200000, 2.400000)" fill="#348F86" id="Path"> <path d="M1.1859,2.8578 C-0.6534,2.0427 -0.2682,0.9573 2.0463,0.4332 C4.3608,-0.0906 7.728,0.1455 9.5673,0.9606 C11.4066,1.7757 11.0214,2.8611 8.7069,3.3852 C6.3924,3.9093 3.0249,3.6729 1.1859,2.8578 Z"></path> </g> <path d="M14.5422,9.1959 L14.5422,19.2549 L34.5555,11.4069 C34.5555,11.4069 34.3035,5.3316 35.0322,3.5589 C26.6103,6.174 14.5422,9.1959 14.5422,9.1959 Z" id="Path" fill="#091526" fill-rule="nonzero" opacity="0.2"></path> <line x1="22.4535" y1="8.916" x2="15.3912" y2="10.9218" id="Path" stroke="#091526" stroke-width="0.5" stroke-linecap="round" stroke-linejoin="round"></line> <line x1="13.0509" y1="10.9413" x2="2.0382" y2="6.9528" id="Path" stroke="#091526" stroke-width="0.5" stroke-linecap="round" stroke-linejoin="round"></line> <line x1="4.5363" y1="13.4625" x2="2.0382" y2="12.5577" id="Path" stroke="#091526" stroke-width="0.5" stroke-linecap="round" stroke-linejoin="round"></line> <line x1="13.0509" y1="16.5462" x2="6.4629" y2="14.1603" id="Path" stroke="#091526" stroke-width="0.5" stroke-linecap="round" stroke-linejoin="round"></line> <line x1="32.8962" y1="5.9499" x2="25.1835" y2="8.1405" id="Path" stroke="#091526" stroke-width="0.5" stroke-linecap="round" stroke-linejoin="round"></line> <line x1="21.2661" y1="11.6424" x2="32.9244" y2="8.0532" id="Path" stroke="#091526" stroke-width="0.5" stroke-linecap="round" stroke-linejoin="round"></line> <line x1="15.363" y1="13.4598" x2="18.9054" y2="12.3693" id="Path" stroke="#091526" stroke-width="0.5" stroke-linecap="round" stroke-linejoin="round"></line> <line x1="30.5496" y1="11.3241" x2="33.0246" y2="10.4253" id="Path" stroke="#091526" stroke-width="0.5" stroke-linecap="round" stroke-linejoin="round"></line> <line x1="15.8157" y1="16.6752" x2="28.4592" y2="12.0834" id="Path" stroke="#091526" stroke-width="0.5" stroke-linecap="round" stroke-linejoin="round"></line> </g> <g id="Group-5" transform="translate(30.000000, 9.000000)"> <path d="M-8.17124146e-14,4.188 L14.2827,9.051 L34.7724,3.4143 C34.7724,3.4143 24.3618,0.9351 19.8408,0.0003 C12.4122,3.4143 -8.17124146e-14,4.188 -8.17124146e-14,4.188 Z" id="Path" fill="#028E79" fill-rule="nonzero"></path> <path d="M14.2827,9.051 L-2.30926389e-14,4.188 C-2.30926389e-14,4.188 12.4119,3.414 19.8408,1.24344979e-14 C16.4259,2.079 10.1259,4.104 4.8759,4.7289 L14.2827,9.051 Z" id="Path" fill="#47C5B1" fill-rule="nonzero"></path> <path d="M34.7727,3.4143 C33.8238,5.9118 34.329,11.7027 34.329,11.7027 L14.2827,19.11 L0.4911,13.9731 C0.7494,11.157 0.5142,7.8198 2.34479103e-13,4.188 L14.2827,9.051 L34.7727,3.4143 Z" id="Path" stroke="#091526" stroke-width="1.5" fill="#046355" fill-rule="nonzero" stroke-linecap="round" stroke-linejoin="round"></path> <path d="M14.1738,5.2299 C12.3345,4.4148 12.7197,3.3294 15.0342,2.8053 C17.3487,2.2815 20.7159,2.5176 22.5552,3.333 C24.3945,4.1484 24.0093,5.2335 21.6948,5.7576 C19.3803,6.2814 16.0131,6.045 14.1738,5.2299 Z" id="Path" fill="#47C5B1"></path> <path d="M-8.17124146e-14,4.188 L14.2827,9.051 L34.7724,3.4143 C34.7724,3.4143 24.3618,0.9351 19.8408,0.0003 C12.4122,3.4143 -8.17124146e-14,4.188 -8.17124146e-14,4.188 Z" id="Path" stroke="#091526" stroke-width="1.5" stroke-linecap="round" stroke-linejoin="round"></path> <path d="M14.2827,9.051 L14.2827,19.11 L34.296,11.262 C34.296,11.262 34.044,5.1867 34.7727,3.414 C26.3511,6.0291 14.2827,9.051 14.2827,9.051 Z" id="Path" fill="#091526" fill-rule="nonzero" opacity="0.2"></path> <line x1="32.988" y1="5.7972" x2="14.8065" y2="10.9614" id="Path" stroke="#091526" stroke-width="0.5" stroke-linecap="round" stroke-linejoin="round"></line> <line x1="6.6522" y1="8.4354" x2="2.1819" y2="6.873" id="Path" stroke="#091526" stroke-width="0.5" stroke-linecap="round" stroke-linejoin="round"></line> <line x1="13.1424" y1="10.704" x2="8.1783" y2="8.9691" id="Path" stroke="#091526" stroke-width="0.5" stroke-linecap="round" stroke-linejoin="round"></line> <line x1="15.7791" y1="13.5042" x2="32.988" y2="7.9041" id="Path" stroke="#091526" stroke-width="0.5" stroke-linecap="round" stroke-linejoin="round"></line> <line x1="15.7791" y1="16.554" x2="32.988" y2="10.3041" id="Path" stroke="#091526" stroke-width="0.5" stroke-linecap="round" stroke-linejoin="round"></line> <line x1="1.8903" y1="11.4833" x2="13.4349" y2="15.6713" id="Path" stroke="#091526" stroke-width="0.5" stroke-linecap="round" stroke-linejoin="round"></line> </g> <g id="Group-5" transform="translate(56.000000, 11.000000)"> <path d="M-8.17124146e-14,4.188 L14.2827,9.051 L34.7724,3.4143 C34.7724,3.4143 24.3618,0.9351 19.8408,0.0003 C12.4122,3.4143 -8.17124146e-14,4.188 -8.17124146e-14,4.188 Z" id="Path" fill="#04695F" fill-rule="nonzero"></path> <path d="M14.2827,9.051 L-2.30926389e-14,4.188 C-2.30926389e-14,4.188 12.4119,3.414 19.8408,1.24344979e-14 C16.4259,2.079 10.1259,4.104 4.8759,4.7289 L14.2827,9.051 Z" id="Path" fill="#47C5B1" fill-rule="nonzero"></path> <path d="M34.7727,3.4143 C33.8238,5.9118 34.329,11.7027 34.329,11.7027 L14.2827,19.11 L0.4911,13.9731 C0.7494,11.157 0.5142,7.8198 2.34479103e-13,4.188 L14.2827,9.051 L34.7727,3.4143 Z" id="Path" stroke="#091526" stroke-width="1.5" fill="#046355" fill-rule="nonzero" stroke-linecap="round" stroke-linejoin="round"></path> <path d="M14.1738,5.2299 C12.3345,4.4148 12.7197,3.3294 15.0342,2.8053 C17.3487,2.2815 20.7159,2.5176 22.5552,3.333 C24.3945,4.1484 24.0093,5.2335 21.6948,5.7576 C19.3803,6.2814 16.0131,6.045 14.1738,5.2299 Z" id="Path" fill="#348F86"></path> <path d="M-8.17124146e-14,4.188 L14.2827,9.051 L34.7724,3.4143 C34.7724,3.4143 24.3618,0.9351 19.8408,0.0003 C12.4122,3.4143 -8.17124146e-14,4.188 -8.17124146e-14,4.188 Z" id="Path" stroke="#091526" stroke-width="1.5" stroke-linecap="round" stroke-linejoin="round"></path> <path d="M14.2827,9.051 L14.2827,19.11 L34.296,11.262 C34.296,11.262 34.044,5.1867 34.7727,3.414 C26.3511,6.0291 14.2827,9.051 14.2827,9.051 Z" id="Path" fill="#091526" fill-rule="nonzero" opacity="0.2"></path> <line x1="32.988" y1="5.7972" x2="14.8065" y2="10.9614" id="Path" stroke="#091526" stroke-width="0.5" stroke-linecap="round" stroke-linejoin="round"></line> <line x1="6.6522" y1="8.4354" x2="2.1819" y2="6.873" id="Path" stroke="#091526" stroke-width="0.5" stroke-linecap="round" stroke-linejoin="round"></line> <line x1="13.1424" y1="10.704" x2="8.1783" y2="8.9691" id="Path" stroke="#091526" stroke-width="0.5" stroke-linecap="round" stroke-linejoin="round"></line> <line x1="15.7791" y1="13.5042" x2="32.988" y2="7.9041" id="Path" stroke="#091526" stroke-width="0.5" stroke-linecap="round" stroke-linejoin="round"></line> <line x1="15.7791" y1="16.554" x2="32.988" y2="10.3041" id="Path" stroke="#091526" stroke-width="0.5" stroke-linecap="round" stroke-linejoin="round"></line> <line x1="1.8903" y1="11.4833" x2="13.4349" y2="15.6713" id="Path" stroke="#091526" stroke-width="0.5" stroke-linecap="round" stroke-linejoin="round"></line> </g> <g id="Group-5" transform="translate(44.000000, 0.000000)"> <path d="M-8.17124146e-14,4.188 L14.2827,9.051 L34.7724,3.4143 C34.7724,3.4143 24.3618,0.9351 19.8408,0.0003 C12.4122,3.4143 -8.17124146e-14,4.188 -8.17124146e-14,4.188 Z" id="Path" fill="#028E79" fill-rule="nonzero"></path> <path d="M14.2827,9.051 L-2.30926389e-14,4.188 C-2.30926389e-14,4.188 12.4119,3.414 19.8408,1.24344979e-14 C16.4259,2.079 10.1259,4.104 4.8759,4.7289 L14.2827,9.051 Z" id="Path" fill="#47C5B1" fill-rule="nonzero"></path> <path d="M34.7727,3.4143 C33.8238,5.9118 34.329,11.7027 34.329,11.7027 L14.2827,19.11 L0.4911,13.9731 C0.7494,11.157 0.5142,7.8198 2.34479103e-13,4.188 L14.2827,9.051 L34.7727,3.4143 Z" id="Path" stroke="#091526" stroke-width="1.5" fill="#046355" fill-rule="nonzero" stroke-linecap="round" stroke-linejoin="round"></path> <path d="M14.1738,5.2299 C12.3345,4.4148 12.7197,3.3294 15.0342,2.8053 C17.3487,2.2815 20.7159,2.5176 22.5552,3.333 C24.3945,4.1484 24.0093,5.2335 21.6948,5.7576 C19.3803,6.2814 16.0131,6.045 14.1738,5.2299 Z" id="Path" fill="#47C5B1"></path> <path d="M-8.17124146e-14,4.188 L14.2827,9.051 L34.7724,3.4143 C34.7724,3.4143 24.3618,0.9351 19.8408,0.0003 C12.4122,3.4143 -8.17124146e-14,4.188 -8.17124146e-14,4.188 Z" id="Path" stroke="#091526" stroke-width="1.5" stroke-linecap="round" stroke-linejoin="round"></path> <path d="M14.2827,9.051 L14.2827,19.11 L34.296,11.262 C34.296,11.262 34.044,5.1867 34.7727,3.414 C26.3511,6.0291 14.2827,9.051 14.2827,9.051 Z" id="Path" fill="#091526" fill-rule="nonzero" opacity="0.2"></path> <line x1="32.988" y1="5.7972" x2="14.8065" y2="10.9614" id="Path" stroke="#091526" stroke-width="0.5" stroke-linecap="round" stroke-linejoin="round"></line> <line x1="6.6522" y1="8.4354" x2="2.1819" y2="6.873" id="Path" stroke="#091526" stroke-width="0.5" stroke-linecap="round" stroke-linejoin="round"></line> <line x1="13.1424" y1="10.704" x2="8.1783" y2="8.9691" id="Path" stroke="#091526" stroke-width="0.5" stroke-linecap="round" stroke-linejoin="round"></line> <line x1="15.7791" y1="13.5042" x2="32.988" y2="7.9041" id="Path" stroke="#091526" stroke-width="0.5" stroke-linecap="round" stroke-linejoin="round"></line> <line x1="15.7791" y1="16.554" x2="32.988" y2="10.3041" id="Path" stroke="#091526" stroke-width="0.5" stroke-linecap="round" stroke-linejoin="round"></line> <line x1="1.8903" y1="11.4833" x2="13.4349" y2="15.6713" id="Path" stroke="#091526" stroke-width="0.5" stroke-linecap="round" stroke-linejoin="round"></line> </g> </g> <polygon id="Star" fill="#FFFFFF" points="88.4936606 8.1481454 87.0665123 12.9505311 84.8271201 8.46892612 80.0247345 7.04177787 84.5063394 4.80238567 85.9334877 9.23705556e-14 88.1728799 4.48160495 92.9752655 5.90875321"></polygon> <polygon id="Star" fill="#FFFFFF" points="113.029465 37.2021336 111.651377 39.9600443 110.773132 37.0047301 108.015221 35.6266426 110.970535 34.7483975 112.348623 31.9904867 113.226868 34.945801 115.984779 36.3238885"></polygon> </g> <g id="Group-2" transform="translate(71.000000, 328.975266)"> <path d="M47.538183,33.479966 C51.7526879,27.8132993 58.1388712,26.0889045 66.6967328,28.3067816 C67.0050094,23.1796641 68.7727652,19.0960489 72,16.0559358 C75.2272348,13.0158227 78.7089237,11.1651069 82.4450664,10.5037883 C85.7590618,3.42031214 90.538527,-0.00812576984 96.783462,0.218474561 C106.587673,0.574224854 111.826519,4.79631741 112.5,12.8847522 C114.661462,9.7618889 118.465499,7.91450205 123.912112,7.34259166 C135.642023,6.11091644 141.157614,9.82638589 140.458885,18.489 C143.976016,14.5660253 148.474344,12.8970816 153.953872,13.482169 C159.433399,14.0672563 163.593072,17.0476172 166.432891,22.4232516 C180.543571,18.650296 189.209337,22.7059165 192.430187,34.590113 C204.08006,33.528989 234.82105,41.3515736 225.219321,68.4257868 C215.617593,95.5 196.166238,90.4482902 190.606198,87.264122 C191.930282,93.1014984 189.282114,100.796837 182.133491,101.857961 C174.984868,102.919881 169.160329,99.7357128 167.571746,92.5713344 C165.983163,97.0825047 163.33579,101.592879 156.451666,100.531755 C162.541498,109.023135 163.070497,120.167724 150.891626,127.066225 C138.712755,133.965521 126.004092,124.678098 120.444052,116.717678 C109.85297,119.105804 83.3768531,126.005101 66.6967328,93.8983365 C59.5481098,96.2864626 52.9292792,92.0411703 52.9292792,92.0411703 C52.9292792,92.0411703 34.396077,126.536061 12.4204156,110.085056 C-9.55524579,93.6332544 1.56483442,72.4059971 15.5975814,68.4257868 C13.7444994,59.9344062 15.8620804,50.1168196 25.1290787,49.0556955 C21.6866196,40.0325589 28.9597473,25.6574083 47.538183,33.479966 Z" id="XMLID_3_" fill="#1AA2EF" fill-rule="nonzero"></path> <path d="M97.7308023,142.516222 C97.7308023,142.516222 91.8765577,130.337913 105.448378,123.454106 C119.020198,116.5703 134.188703,129.278377 127.26947,137.220925 C120.350237,145.163473 108.109253,143.83945 108.109253,143.83945 C108.109253,143.83945 113.165155,153.900276 104.383389,158.665804 C106.778416,162.10731 103.585047,166.343866 103.585047,166.343866 C103.585047,166.343866 112.632661,166.873633 111.302623,175.080668 C118.221856,176.13941 119.286046,178.787455 118.753552,180.904939 C122.213568,181.964475 123.01191,188.318513 119.818541,189.907023 C116.625171,191.495532 110.50428,189.907023 107.843405,183.552984 C104.384188,184.877007 85.7556668,184.877007 89.2156826,174.021927 C79.3697262,174.286414 65.5312596,168.462143 73.2488352,159.460853 C80.9664109,150.459564 88.6831883,156.283834 88.6831883,156.283834 L90.545721,153.90107 C90.545721,153.90107 87.0865035,145.693241 97.7308023,142.516222 Z" id="XMLID_4_" fill="#1689C9" fill-rule="nonzero"></path> <path d="M61.6455033,117.040621 C54.0735264,118.415947 47.8534609,119.690309 49.1791139,127.375438 C50.5055625,135.060568 64.2976049,128.70068 65.6240535,124.990481 C66.9505022,121.280281 64.563372,116.510366 61.6455033,117.040621 Z" id="XMLID_6_" fill="#1AA2EF" fill-rule="nonzero"></path> <path d="M70.0143213,118.049155 C69.6544506,113.341806 76.2089968,114.928228 74.8016152,117.19807 C73.3933888,119.467913 70.2956287,121.737756 70.0143213,118.049155 Z" id="XMLID_5_" fill="#1689C9" fill-rule="nonzero"></path> <path d="M76.9450142,136.012122 C73.9484897,135.757401 74.4935352,139.582045 78.034288,141.366625 C81.5750407,143.151204 87.2951582,140.856417 84.0265196,138.306909 C80.7578811,135.756636 76.9450142,136.012122 76.9450142,136.012122 Z" id="XMLID_8_" fill="#1689C9" fill-rule="nonzero"></path> <path d="M117.003012,150.019941 C113.924721,151.62545 114.773443,156.479966 117.003012,156.479966 C119.232581,156.479966 122.452821,147.177933 117.003012,150.019941 Z" id="XMLID_7_" fill="#1689C9" fill-rule="nonzero"></path> <path d="M19.9882974,78.2999026 C25.6803799,76.7706425 9.87373958,63.6790198 28.1957207,50.9351496 C26.3372345,36.3330637 39.8096671,30 49.7288558,41.3960438 C44.4178711,30.7764174 70.1753901,28.6521735 79.4686175,38.475308 C74.1576328,24.669714 96.008879,-5.90479724 106.896119,8.16682503 C115.182434,18.876455 97.5253282,27.8556816 97.5253282,27.8556816 C97.5253282,27.8556816 108.146501,23.8732221 113.988823,26.5279296 C108.677838,20.6872546 113.723553,14.0492911 120.626957,12.4563073 C127.531157,10.8633235 137.355722,12.4563073 137.355722,18.0317506 C137.355722,23.6071938 134.700628,26.7931614 134.700628,26.7931614 C134.700628,26.7931614 145.05653,14.845783 155.147162,18.2969824 C165.237794,21.7481818 160.19208,31.5721128 160.19208,31.5721128 C160.19208,31.5721128 168.158159,23.341962 177.717453,27.3244215 C187.276747,31.306881 189.931842,39.2717999 189.931842,39.2717999 C189.931842,39.2717999 209.581768,36.3510641 217.28178,48.2984425 C224.982588,60.2458209 219.671603,67.945508 210.908917,75.6443987 C202.14623,83.3432893 181.965763,73.5201548 181.965763,73.5201548 C181.965763,73.5201548 145.05653,98.2114035 111.86427,98.4766353 C78.6720097,98.7418671 65.6610133,83.0780575 65.6610133,83.0780575 L19.9882974,78.2999026 Z" id="XMLID_15_" fill="#1CADFF" fill-rule="nonzero"></path> <path d="M221.321803,68.7409186 C223.661024,63.5774037 224.342536,59.1424439 223.848479,55.357298 C222.45289,63.2942535 215.525777,70.3380131 209.141967,72.9833998 C201.463444,76.1648631 190.343207,71.3926682 187.695797,62.6436442 C168.102735,74.3092746 160.689508,47.0011848 160.689508,47.0011848 C160.689508,47.0011848 169.69134,41.6984809 168.632534,33.479966 C165.719827,44.0845784 146.392062,44.3502305 138.449036,41.4336241 C142.420549,48.8567732 149.304769,49.3872822 159.100903,47.5316938 C162.807913,59.7270378 157.512298,68.4760618 140.037641,80.4065489 C122.562984,92.3370361 102.970716,84.6482348 98.999203,78.2853083 C89.9973717,93.132402 75.6999249,81.9972806 76.4942275,76.4297199 C54.2537548,77.4899425 55.0480574,60.2575468 55.0480574,60.2575468 C55.0480574,60.2575468 60.8726784,59.99269 68.0214017,56.2807177 C54.2537548,59.1973242 47.8993341,53.8946203 42.8682214,49.9177912 C43.3980212,52.8343977 47.3695342,57.3409404 50.5467446,58.931672 C38.0340958,85.2646433 21.6166555,74.0062402 15.5775728,68.4824247 C1.55416048,72.4735703 -9.5446297,93.6708646 12.42022,110.100736 C34.3961899,126.538561 52.9296524,92.0721793 52.9296524,92.0721793 C52.9296524,92.0721793 59.5485759,96.3138652 66.6972993,93.9277678 C83.3776538,126.007257 109.854142,119.114617 120.445373,116.72852 C126.005491,124.682178 138.714333,133.961711 150.893375,127.068275 C163.072416,120.17484 162.543411,109.039718 156.453493,100.556346 C163.337713,101.616569 165.985124,97.1100264 167.573729,92.6026883 C169.162334,99.7609806 174.986955,102.942444 182.135679,101.882221 C189.284402,100.821999 191.931812,93.1331973 190.608504,87.3007798 C196.168623,90.4806523 209.671767,94.4574814 221.321803,68.7409186 Z" id="XMLID_41_" fill="#1AA2EF" fill-rule="nonzero"></path> <path d="M51.1199148,121.289806 C51.1199148,121.289806 48.3630734,126.835479 51.5001688,129.279335 C54.6372643,131.723191 62.5275346,127.305451 63.8584236,125.613551 C65.1893126,123.921651 65.854757,120.067878 63.0028521,118 C64.1436141,120.349861 64.3337411,122.981706 59.3904392,124.861595 C54.4471373,126.741485 49.9791528,126.459501 51.1199148,121.289806 Z" id="XMLID_13_" fill="#1689C9" fill-rule="nonzero"></path> <path d="M70.6614183,35.9523295 C70.6614183,35.9523295 66.1706897,30.3102297 71.9824073,21.4440728 C77.7933324,12.5779159 84.1328117,14.1899444 84.1328117,14.1899444 C84.1328117,14.1899444 89.1513019,5.05538471 96.8117701,4.5177732 C104.472238,3.98016169 105,9.35385879 105,9.35385879 C105,9.35385879 93.3781497,1.56211889 87.8311054,18.4884185 C83.3403768,19.02603 82.5479419,25.2049353 85.9823547,28.6982012 C89.4159752,32.190661 83.3411692,38.3703723 83.3411692,38.3703723 C83.3411692,38.3703723 89.9445293,42.9380552 80.9638645,44.8184865 C71.9824073,46.6989177 65.9068089,44.8184865 70.6614183,35.9523295 Z" id="XMLID_16_" fill="#1CADFF" fill-rule="nonzero"></path> <path d="M2.80085431,85.7516848 C2.80085431,85.7516848 6.52385144,102.55248 24.0616142,101.364672 C41.599377,100.176864 42.34538,92.3854321 50,83.0738699 C59.026678,87.0921295 64.0763988,87.9861242 73.4410705,83.9678646 C72.6438995,90.3028398 60.3121955,93.8318742 52,88.133968 C47,97.9717127 38.3981334,108.6348 29.4299592,110.614479 C20.4617851,112.594159 1.80439052,105.548482 2.80085431,85.7516848 Z" id="XMLID_11_" fill="#1689C9" fill-rule="nonzero"></path> <path d="M72.5,93.6201173 C68.8746092,94.5228743 90,124 121.5,111.799224 C126.46349,121.133003 140.130582,128.979966 151.474262,122.67398 C162.817943,116.367994 157.473796,102.650378 152.907385,98.479966 C159.260652,98.678557 166.465211,97.5780653 166.465211,84.4759231 C168.254913,89.9927954 172,98.479966 178.657039,98.479966 C189.255007,98.479966 188.885065,89.9182316 186.44098,84.4759231 C182.704346,76.1554622 173.617313,78.4730376 173.617313,78.4730376 C173.617313,78.4730376 165.327386,67.3235982 162.150752,75.0686489 C160.165356,84.998201 156.239213,97.9859104 145.915153,96 C149.885945,105.53237 156.437753,113.070933 145.915153,115.056844 C135.392553,117.042754 127.053889,106.71602 127.053889,106.71602 C127.053889,106.71602 93.9422787,122.813001 72.5,93.6201173 Z" id="XMLID_18_" fill="#1689C9" fill-rule="nonzero"></path> <path d="M122.704981,125.479966 C122.837059,132.357021 116.715722,136.182194 108.015954,135.388718 C99.3161868,134.595242 106.905612,125.479966 106.905612,125.479966 C98.5602726,128.279183 97.9536097,136.914915 100.061716,142.065197 C104.310366,141.965219 105.826498,145.646153 104.217832,147.829798 C101.977246,150.871191 94.7584588,150.525039 93.4774824,148.530257 C92.8457367,147.54648 93.1437277,146.359273 93.4774824,145.622927 C90.9790674,148.010496 90.345613,151.634005 91.7446938,154.193757 C91.1842974,155.758931 90.1714026,156.57783 89.57509,156.979966 C94.4176969,159.097753 97.31338,161.917167 95.1234113,163.831031 C91.0368933,167.401672 78,167.969992 75,163.831031 C73.8573078,162.254511 74.6141051,159.979499 75.2800328,158.598058 C72.0721913,161.256202 70.0759901,165.027592 74.8236904,168.723602 C78.8564281,171.864179 86.1534592,173.320737 91.1842974,172.286045 C101.978037,174.470276 101.795342,166.078154 101.978037,165.945644 C104.350701,164.226182 104.55938,161.246866 103.135407,158.166077 C110.648835,153.501826 107.77529,147.845075 105.929358,142.554972 C129.494675,143.386633 127.710849,130 122.704981,125.479966 Z" id="XMLID_44_" fill="#1AA2EF" fill-rule="nonzero"></path> <path d="M80.5560041,157.258446 C78.4412186,158.137324 76.5157685,161.077017 79.6434569,162.539288 C82.7715516,164.001558 86.8772013,161.564144 85.8346385,159.045616 C84.7920757,156.527088 81.5335591,156.851988 80.5560041,157.258446 Z" id="XMLID_100_" fill="#1CADFF" fill-rule="nonzero"></path> <path d="M189.074591,82.2295473 C190.153429,85.1837283 190.739838,87.2838435 190.833816,88.529893" id="Path-10" stroke="#091526" stroke-width="1.5" stroke-linecap="round" stroke-linejoin="round"></path> </g> </g> </svg> 