<?xml version="1.0" encoding="UTF-8"?> <svg xmlns="http://www.w3.org/2000/svg" xmlns:xlink="http://www.w3.org/1999/xlink" width="321px" height="580px" viewBox="0 0 321 580"> <!-- Generator: Sketch 59.1 (86144) - https://sketch.com --> <title>Jinn</title> <desc>Created with Sketch.</desc> <g id="Jinn" stroke="none" stroke-width="1" fill="none" fill-rule="evenodd"> <g id="Group-4" transform="translate(47.000000, 71.000000)"> <g id="XMLID_102_" transform="translate(43.000000, 230.000000)" fill-rule="nonzero"> <path d="M12.6310214,37.5 C12.6310214,33.478697 8.56371858,18.2705266 37.0766272,3.44424072 C65.5895359,-11.3820452 78.0608681,27 78.0608681,27 C78.0608681,27 115.23228,12.6906219 131.769647,31.4554332 C148.307015,50.2202445 133.263442,41.5331558 136.017695,42.595282 C137.278462,43.0814736 146.211443,39.6888589 153.127847,44.6650791 C155.23223,46.179142 157.363015,50.9591268 159.520203,59.0050335 C51.186799,71.4042658 0.346731358,77.2950734 7,76.6774563 C3.29271454,68.7997105 -9.32442301,42.3649511 12.6310214,37.5 Z" id="XMLID_3_" fill="#1689C9"></path> <path d="M16.5330368,40.0073565 C16.5330368,40.0073565 12.3665943,24.6328019 30.4903543,12.208591 C48.6141143,-0.215619971 66.1439492,-2.98598427 90.3558316,13.4562866 C100.610397,9.98261634 109.678669,36.7650327 101.133198,36.7650327 C92.587727,36.7650327 83.1877091,29.5863457 88.8849745,26.3440219 C79.4849566,20.0914154 68.0912804,18.0072132 51.5694671,24.4911662 C35.0485084,30.9751191 32.7694314,44.1750661 32.7694314,44.1750661 C32.7694314,44.1750661 33.6239784,42.090864 39.8903722,41.6274764 C46.1567659,41.1640887 42.7385776,53.6693017 30.4903543,55.290811 C18.242131,56.9116256 23.3694135,49.7329386 23.3694135,49.7329386 C23.3694135,49.7329386 13.9693956,56.4489327 10.2666431,50.6590191 C6.56303602,44.8704949 11.6903185,40.933437 16.5330368,40.0073565 Z" id="XMLID_14_" fill="#1CADFF"></path> </g> <g id="Group" transform="translate(9.000000, 0.000000)"> <path d="M68.3166668,103.92348 L59.3749445,108.088628 L48.306394,111.447878 L34.7731973,114.990855 L21.6943,118.474971 L18.1461729,125.73208 L12.6952566,137.962295 L8.51160862,149.507052 C3.96121549,163.456282 1.40501578,174.515979 0.843009465,182.686142 C4.47197834e-13,194.941388 0.34990664,206.997305 0.843009465,210.399814 C1.17174468,212.668153 2.46572536,220.255325 4.72495151,233.161331 L16.7540259,232.350097 L31.2230149,230.038463 L46.3518768,225.894774 L50.9168588,224.190623 L52.7960149,228.040666 L57.7758294,238.150902 L60.0134619,244.671743 C62.8459511,256.873207 64.3863971,266.429316 64.6348,273.340071 C64.7350989,273.910198 64.7852483,274.195262 64.7852483,274.195262 L104.540476,274.195262 L138.3652,274.195262 L140.468247,255.017701 L143.621417,243.205092 L147.64557,232 L152.5,224.190623 L160.487165,226.957798 L167.171526,229.152748 C172.845494,230.304975 175.682478,230.881088 175.682478,230.881088 C175.682478,230.881088 180.234242,231.504034 189.337769,232.749925 L198.210876,232.749925 C200.034097,223.265935 201.045171,217.956662 201.244099,216.822106 C201.443027,215.68755 202.083052,209.863824 203.164174,199.350927 L202.830782,185.486093 C201.985035,175.543196 201.272625,169.317319 200.693553,166.808464 C200.11448,164.299609 198.51827,158.274117 195.904925,148.731987 L190.416162,133.424321 L183.5733,118.474971 L169.877722,115.195371 L145.379215,108.088628 L136.9732,104.150871 L132.82443,117.957171 L127.17715,131.420123 L119.131825,145.735832 L112.834643,154.895815 L101.748912,163.726285 L90.5,153.388939 L82.3306,141.545144 L73.7846785,125.73208 L68.8854309,110.176756 L68.3166668,103.92348 Z" id="Path-31" fill="#013C6D"></path> <path d="M5.4643926,232.749925 C4.50787231,222.705704 3.89209792,215.759824 3.61706943,211.912283 C3.06016632,204.121428 2.93300461,198.225629 2.93300461,195.474971 C2.93300461,188.292533 3.71661891,175.776043 8.17036014,159.759342 C11.139521,149.081542 16.2171609,135.915918 23.4032798,120.262471 C37.3862705,117.555092 45.9120174,115.660294 48.9805204,114.578077 C53.583275,112.954752 66.6890454,107.958948 69.4933424,106.253109 L68.3094939,104.154963 L58.984481,108.012806 L41.9350803,113.463421 L21.6943,117.957171 L14.6345233,133.62329 L7.0308817,153.685994 L3.61706943,166.195371 L1.75590124,175.551471 L0.809639739,184.052418 L0.333650527,193.5 L0.35306215,203.551144 L0.809639739,210.255549 L2.93300461,223.6799 L4.47526619,232 L4.78912441,232.749925 L5.4643926,232.749925 Z" id="Path-35" fill="#085A93"></path> <path d="M142.66697,232.749925 C141.17155,223.052434 140.286326,216.279918 140.011298,212.432377 C139.454394,204.641522 139.153101,198.725629 139.153101,195.974971 C139.153101,188.792533 139.25265,175.776043 143.706392,159.759342 C146.675552,149.081542 151.753192,135.915918 158.939311,120.262471 C169.026918,117.76635 176.31383,116.009145 180.800048,114.990855 C185.286265,113.972566 192.740974,110.704671 203.164174,105.187171 L194.520512,108.012806 L177.471112,113.463421 L157.230331,117.957171 L150.170555,133.62329 L142.566913,153.685994 L139.153101,166.195371 L137.821933,175.612448 L136.8652,184.59273 L136.8652,194.085872 L137.315299,204.152375 L137.821933,211.124429 L140.011298,224.190623 L141.677844,232 L141.991702,232.749925 L142.66697,232.749925 Z" id="Path-35" fill="#042C50" transform="translate(170.014687, 168.968548) scale(-1, 1) translate(-170.014687, -168.968548) "></path> <g id="Group-15" transform="translate(68.316700, 79.454437)"> <path d="M1.32160949e-12,25.4708342 L2.4801,23.9801342 C2.4801,23.9801342 9.3225,23.9801342 15.9366,6.8738342 C19.6242,-2.6631658 44.7312,0.294234198 49.0491,0.940734198 C49.0491,0.940734198 56.5071,21.4673342 65.4648,23.9801342 C65.4648,23.9801342 66.5895,24.6779342 68.5485,25.4708342 C68.5485,25.4708342 63.504,58.3553342 34.968,87.7409342 C34.968,87.7409342 32.3928,86.5034342 17.0067,67.3673342 C1.6206,48.2312342 1.32160949e-12,25.4708342 1.32160949e-12,25.4708342 Z" id="Path" fill="#F6CD52" fill-rule="nonzero"></path> <path d="M13.9434,9.3776342 C12.1371,17.2103342 6.7434,21.1139342 2.7084,23.9801342 C12.2487,37.3034342 27.129,40.8080342 27.129,40.8080342 L31.2858,35.2835342 C31.2858,35.2835342 22.6401,35.2478342 19.2657,33.1088342 C15.8769,30.9608342 12.7419,20.9999342 12.6183,17.6243342 C14.4684,12.7847342 14.3451,9.8351342 13.9434,9.3776342 Z" id="Path" fill="#F7CE54" fill-rule="nonzero"></path> <path d="M14.0136,10.8359342 C14.0136,10.8359342 14.0136,10.1003342 13.7151,9.6326342 C10.6764,20.2022342 2.4798,24.2351342 2.4798,24.2351342 C2.4798,24.2351342 9.8097,33.9965342 17.7555,37.3760342 C8.5635,32.1866342 4.8288,24.3194342 4.8288,24.3194342 C8.9619,20.9999342 13.3599,16.0022342 14.0136,10.8359342 Z" id="Path" fill="#FFEEBD" fill-rule="nonzero"></path> <path d="M54.2298,9.3776342 C56.0361,17.2103342 61.4298,21.1139342 65.4648,23.9801342 C55.9245,37.3034342 41.0442,40.8080342 41.0442,40.8080342 L36.8874,35.2835342 C36.8874,35.2835342 45.5244,35.2337342 48.9075,33.1088342 C51.1761,31.6841342 55.4313,20.9999342 55.5549,17.6243342 C53.7051,12.7847342 53.8281,9.8351342 54.2298,9.3776342 Z" id="Path" fill="#F7CE54" fill-rule="nonzero"></path> <path d="M54.2298,9.3776342 C56.0361,17.2103342 61.4298,21.1139342 65.4648,23.9801342 C55.9245,37.3034342 41.0442,40.8080342 41.0442,40.8080342 L36.8064,35.3465342" id="Path" stroke="#091526" stroke-width="1.5" stroke-linecap="round" stroke-linejoin="round"></path> <polygon id="Path" fill="#FFEEBD" fill-rule="nonzero" points="-4.09894341e-13 25.0928342 2.4801 23.9801342 3.6012 25.4708342 0.1185 27.4853342"></polygon> <path d="M34.3926,35.9096342 L35.6643,39.4706342 C37.0765,39.4992342 38.1469,40.1836342 38.8755,41.5238342 C39.2613,42.2330342 40.4409,44.6477342 40.4409,44.6477342 C40.4409,44.6477342 60.1149,37.1207342 65.4645,23.9798342 C58.4253,32.9378342 53.5008,36.3989342 41.2611,40.9766342 L35.7714,33.7907342 L34.3926,35.9096342 Z" id="Path" fill="#091526" fill-rule="nonzero" opacity="0.4"></path> <path d="M33.2112,35.9096342 L33.9621,39.5435342 C31.5511,39.1169342 29.9813,39.5737342 29.2527,40.9139342 C28.8669,41.6231342 27.6873,44.0378342 27.6873,44.0378342 C27.6873,44.0378342 10.1181,37.3763342 2.139,23.9801342 C9.1782,32.9381342 14.1027,36.3992342 26.3424,40.9769342 L31.8321,33.7910342 L33.2112,35.9096342 Z" id="Path" fill="#091526" fill-rule="nonzero" opacity="0.4"></path> <path d="M13.7151,9.3776342 C11.9085,17.2103342 6.5151,21.1139342 2.4798,23.9801342 C12.0201,37.3034342 26.9004,40.8080342 26.9004,40.8080342 L31.0866,35.4131342" id="Path" stroke="#091526" stroke-width="1.5" stroke-linecap="round" stroke-linejoin="round"></path> <polygon id="Path" stroke="#091526" stroke-width="1.5" fill="#043070" fill-rule="nonzero" points="32.2098 35.7409342 28.0935 80.5420065 34.9683 87.7409342 41.5464 79.5596242 36.1434 35.7409342"></polygon> </g> <path d="M67.3449734,273.736671 C64.4811722,252.073705 62.1412147,239.305764 60.325101,235.432846 C58.5089873,231.559928 56.9315866,228.20197 55.592899,225.358973 C58.5458184,223.882742 60.7773609,222.713368 62.2875267,221.85085 C63.7976924,220.988332 65.9196062,219.671269 68.653268,217.899659 L69.1202754,219.525998 C69.2727,220.056837 69.8265977,220.363595 70.3574341,220.211164 C70.4492355,220.184803 70.5367868,220.145426 70.6174201,220.094234 C74.8914217,217.380759 78.0389204,215.247995 80.0599159,213.69594 C82.0369777,212.177624 84.5477422,210.123542 87.5922096,207.533694 C88.2129462,207.005637 88.4512059,206.153756 88.1944796,205.38029 L87.1571477,202.255012 L87.1571477,202.255012 C91.592687,199.73016 94.6064169,197.908658 96.1983374,196.790505 C97.7902578,195.672351 99.5938787,194.153922 101.6092,192.235216 C104.591821,194.555702 107.06006,196.361702 109.013918,197.653216 C110.967776,198.944731 113.938153,200.828985 117.925048,203.305977 L117.190564,205.101437 C116.674444,206.363101 117.073811,207.814133 118.162835,208.634014 L132.365472,219.326592 C132.806693,219.658769 133.433657,219.570372 133.765835,219.12915 C133.870251,218.990457 133.936762,218.82697 133.958824,218.654774 L134.231638,216.525463 L134.231638,216.525463 C142.447418,220.538868 147.132239,222.54557 148.2861,222.54557 C149.439961,222.54557 147.990266,221.750086 143.937015,220.159118 L132.4087,212.957368 L132.253372,215.78867 L125.772832,211.533746 L117.925048,205.182995 L118.572113,201.130349 L105.239063,192.235216 L102.764655,190.27695 L101.6092,187.974971 L99.8488,190.679533 L91.7465867,196.349331 L84.0176297,201.474971 L85.0749517,205.182995 L70.7466284,215.78867 L70.5913,212.957368 L59.934343,220.159118 L50.9168588,223.6799 L55,232 L59.934343,244.345276 L62.2875267,254.819614 L63.532617,263.3598 L64.6348,273.736671 L67.3449734,273.736671 Z" id="Path-34" fill="#052542"></path> <path d="M183.0343,117.957171 C159.3208,112.257171 122.3983,106.154871 122.3983,84.5548708 C122.1988,82.6465708 122.4499,80.5051708 123.0022,78.2089708" id="Path" stroke="#091526" stroke-width="1.5" stroke-linecap="round" stroke-linejoin="round"></path> <path d="M21.6943,117.957171 C45.4078,112.257171 82.3306,106.154871 82.3306,84.5548708 C82.2067,82.2616708 81.9514,80.1424708 81.5554,78.2089708" id="Path" stroke="#091526" stroke-width="1.5" stroke-linecap="round" stroke-linejoin="round"></path> <path d="M96.5107,173.395371 C103.1869,196.799571 103.1695,249.734271 103.1869,273.736671" id="Path" stroke="#091526" stroke-width="1.5" stroke-linecap="round" stroke-linejoin="round"></path> <path d="M136.8652,104.150871 C136.8652,104.150871 131.0494,140.004171 96.5107,173.395371" id="Path" stroke="#091526" stroke-width="1.5" stroke-linecap="round" stroke-linejoin="round"></path> <path d="M116.68795,167.195371 C127.108596,159.352777 133.675719,153.76872 136.389318,150.443198 C139.102918,147.117677 142.513954,142.803278 146.622426,137.5 L142.409432,134.431011 L150.016892,132.430845 C154.158814,125.430136 157.233933,119.431447 159.24225,114.434776 L157.148525,113.644161 L154.369878,120.262471 L148.669632,130.392042 L144.216735,132.430845 L138.782055,133.843478 L141.880653,136.365274 L144.216735,138.311921 C139.616712,143.69253 137.3167,146.382835 137.3167,146.382835 C137.3167,146.382835 134.616241,149.193946 129.215322,154.816167 C123.897834,159.153693 121.23909,161.322455 121.23909,161.322455 C121.23909,161.322455 119.573136,162.548304 116.241229,165 L116.68795,167.195371 Z" id="Path-38" fill="#042C50"></path> <path d="M97.0864,175.551471 C97.0864,175.551471 123.589,166.195371 144.0208,137.991471 L138.3337,133.988571 L148.4221,130.674171 C152.2429,124.945971 154.9597,119.329971 157.2679,111.962571" id="Path" stroke="#091526" stroke-width="1.5" stroke-linecap="round" stroke-linejoin="round"></path> <path d="M68.3166668,103.925271 C68.3166668,103.925271 68.0974,132.920571 103.285,166.195371" id="Path" stroke="#091526" stroke-width="1.5" stroke-linecap="round" stroke-linejoin="round"></path> <path d="M50.402137,113.463421 C53.125485,119.962198 54.8826986,123.990763 55.6737779,125.549115 C56.8603967,127.886642 57.9549559,129.417256 57.9549559,129.417256 C61.3976707,130.544643 64.8403855,131.67203 68.2831004,132.799416 C68.8079595,132.971292 69.0941091,133.536108 68.9222333,134.060967 C68.8579584,134.257244 68.7344868,134.428805 68.5687801,134.552082 L63.5804202,138.263168 L63.5804202,138.263168 C76.0459986,150.197282 84.3152641,157.345825 88.3882167,159.708797 L87.8795691,161.597166 L76.1572036,153 L64.2382696,141.195371 L61.1611,137.991471 L66.362848,134.05398 L59.6742755,131.420123 L56.7595,130.674171 L50.402137,118.84383 L48.3922235,113.768221 L50.402137,113.463421 Z" id="Path-2" fill="#085A93"></path> <path d="M101.6092,168.045771 C101.6092,168.045771 84.8578,164.204271 61.1611,137.991471 L66.8482,133.988571 L56.7595,130.674171 C52.9387,124.945971 50.0299,118.660371 47.9137,111.962571" id="Path" stroke="#091526" stroke-width="1.5" stroke-linecap="round" stroke-linejoin="round"></path> <path d="M165.930055,187.255967 L159.24225,188.118897 L162.428918,176.024757 L163.466881,163.38872 C164.279053,166.886449 164.927658,171.358094 165.412696,176.803656 C165.930055,182.611605 165.73733,186.42179 165.930055,187.255967 Z" id="Path-33" fill="#052542" transform="translate(162.586152, 175.753809) scale(-1, 1) translate(-162.586152, -175.753809) "></path> <g id="Group-22" transform="translate(104.500000, 59.500000) rotate(8.000000) translate(-104.500000, -59.500000) translate(73.000000, 4.000000)"> <path d="M19.4298374,89.07888 C17.2419374,89.49006 13.6647374,90.14082 11.1498074,89.02971 C11.2187774,91.78356 16.7479274,96.03066 24.0752474,94.08267 C24.0752474,94.08267 16.7251574,94.72089 13.3000874,91.09485 C16.5043874,91.59843 18.5196974,89.94942 19.4298374,89.07888 Z" id="Path" fill="#1AA2EF" fill-rule="nonzero" opacity="0.4"></path> <path d="M41.4764774,93.69294 C43.0957874,94.26516 44.7091574,94.04604 45.6407474,93.65631 C44.8734974,94.94694 43.2700274,96.12801 39.7426574,97.07577 C43.9603874,96.42039 45.7004774,94.6539 46.4614574,93.78435 C46.4614574,93.78435 46.6726574,93.22071 46.7888174,92.42178 C46.9696574,91.17768 44.1161474,94.3536 42.6819674,93.20586 L41.4764774,93.69294 Z" id="Path" fill="#1AA2EF" fill-rule="nonzero" opacity="0.7"></path> <path d="M57.1174874,45.57861 C52.8957974,35.6895 43.2436274,29.50167 31.0389074,29.50167 C18.8341874,29.50167 9.18201741,35.6895 4.96032741,45.57861 C3.46047741,49.09179 4.91313741,57.54474 4.19043741,66.84579 C6.69612741,83.55963 12.2289074,100.16127 31.0392374,100.16127 C44.7876974,100.16127 51.7503674,89.17128 55.3843274,76.52073 C56.4984074,72.64224 57.2996474,70.76784 57.8877074,66.84579 C57.1646774,57.54474 58.6173374,49.09179 57.1174874,45.57861 Z" id="Path" fill="#1AA2EF" fill-rule="nonzero"></path> <path d="M19.4374274,86.74248 C19.4374274,86.74248 15.4523474,88.8921 17.7392474,93.50913 C20.2030274,98.48322 26.5730174,97.34637 26.5730174,97.34637 L26.8700174,97.81332 C27.2204774,98.36376 27.8276774,98.69706 28.4800874,98.69706 L31.6289474,98.69706 C32.3275574,98.69706 32.9700674,98.31558 33.3043574,97.70244 L33.4987274,97.34637 C33.4987274,97.34637 39.6571874,97.80672 42.5737274,93.40188 C44.9972474,89.74086 41.5292774,86.60091 41.5292774,86.60091 C36.6251474,87.93477 32.6489774,87.48333 30.0918074,84.30411 C27.4551074,87.49521 23.9340074,88.38786 19.4374274,86.74248 Z" id="Path" fill="#1AA2EF" fill-rule="nonzero"></path> <g id="Group-21" transform="translate(0.000000, 61.793930)"> <path d="M4.51803178,13.00607 C4.51803178,13.00607 1.9575514,12.8719563 1.28432313,8.71530011 C0.0194700267,0.90607 2.99488308,0.90607 2.99488308,0.90607 L4.51803178,0.90607 C4.19708599,5.84510579 4.19708599,8.44818249 4.51803178,8.71530011 C4.83897757,8.98241773 5.12335944,10.2312347 5.37117741,12.4617511 L4.51803178,13.00607 Z" id="Path" fill="#1AA2EF" fill-rule="nonzero"></path> <path d="M5.5,13.00607 L4.27117741,13.00607 C4.27117741,13.00607 1.92228141,12.8719563 1.27312591,8.71530011 C0.0535004272,0.90607 2.92252102,0.90607 2.92252102,0.90607 L4.27117741,0.90607" id="Path" stroke="#091526" stroke-width="1.5" stroke-linecap="round" stroke-linejoin="round"></path> </g> <g id="Group-21" transform="translate(59.021177, 68.793930) scale(-1, 1) translate(-59.021177, -68.793930) translate(56.021177, 61.793930)"> <path d="M4.51803178,13.00607 C4.51803178,13.00607 1.9575514,12.8719563 1.28432313,8.71530011 C0.0194700267,0.90607 2.99488308,0.90607 2.99488308,0.90607 L4.51803178,0.90607 C4.19708599,5.84510579 4.19708599,8.44818249 4.51803178,8.71530011 C4.83897757,8.98241773 5.12335944,10.2312347 5.37117741,12.4617511 L4.51803178,13.00607 Z" id="Path" fill="#1AA2EF" fill-rule="nonzero"></path> <path d="M5.5,13.00607 L4.27117741,13.00607 C4.27117741,13.00607 1.92228141,12.8719563 1.27312591,8.71530011 C0.0535004272,0.90607 2.92252102,0.90607 2.92252102,0.90607 L4.27117741,0.90607" id="Path" stroke="#091526" stroke-width="1.5" stroke-linecap="round" stroke-linejoin="round"></path> </g> <path d="M18.6843674,7.10542736e-15 C15.2022074,8.16024 21.7642574,8.11239 31.0164674,10.82961 C37.5613574,12.75153 34.2517874,20.57121 31.8325574,25.48029 L28.8137174,25.56543 C31.6035374,20.65404 29.9680574,15.92712 24.9042074,15.11829 C16.6710374,13.80291 10.4304074,7.81341 18.6843674,7.10542736e-15 L18.6843674,7.10542736e-15 Z" id="Path" fill="#043070" fill-rule="nonzero"></path> <path d="M24.9038774,15.11796 C16.6710374,13.80291 10.4304074,7.81341 18.6840374,7.81597009e-14 L18.6840374,7.81597009e-14 C15.2018774,8.16024 21.7639274,8.11239 31.0161374,10.82961 C31.0161374,10.82961 38.6675174,11.97042 31.5560174,25.1922 C33.2706974,20.65668 34.2544274,13.52505 30.7009874,12.51822 C24.2451974,10.6887 20.8115474,10.08084 18.6889874,8.23251 C16.4888774,6.31653 16.8399974,4.54014 16.8399974,4.54014 C16.8399974,4.54014 14.1722774,7.43919 17.4178274,11.22858 C20.1284474,14.39295 24.9038774,15.11796 24.9038774,15.11796 Z" id="Path" fill="#1AA2EF" fill-rule="nonzero" opacity="0.5"></path> <path d="M25.5338474,29.97192 L25.2846974,26.03964 C27.4471874,25.6212 29.6430074,25.43541 31.8325574,25.47996 C33.4109474,25.51197 34.9863674,25.6641 36.5433074,25.9347 L36.6343874,30.06663 C32.5453574,29.48154 28.9569374,29.49804 25.5338474,29.97192 Z" id="Path" fill="#F6CD52" fill-rule="nonzero"></path> <polygon id="Path" fill="#FFEEBD" fill-rule="nonzero" opacity="0.6" points="32.7417074 25.3407 32.9555474 29.72937 35.4638774 30.0036 35.3727974 25.87134"></polygon> <polygon id="Path" fill="#FFEEBD" fill-rule="nonzero" opacity="0.6" points="31.2128174 25.50042 31.2586874 29.71881 32.2935674 29.832 32.2024874 25.69974"></polygon> <path d="M7.22511741,79.0383 C5.51637741,62.18916 6.28593741,60.69393 6.28593741,60.69393 L7.72737741,53.47353 C4.20924741,39.798 20.2469174,31.30545 22.1579474,30.96225 C4.96560741,37.5342 4.74912741,47.35764 4.74912741,47.35764 L4.19043741,66.84546 C4.19043741,66.84546 3.88353741,69.46005 6.20508741,76.98042 L7.22511741,79.0383 Z" id="Path" fill="#1AA2EF" fill-rule="nonzero" opacity="0.4"></path> <path d="M54.7698674,79.0383 C55.2331874,73.79328 56.7878174,67.4223 55.9086974,62.18916 C55.3071074,58.60998 53.9653274,57.89685 53.9653274,57.89685 L52.9604774,53.60454 C56.4789374,39.92901 41.7477374,31.30545 39.8370374,30.96225 C57.0293774,37.5342 57.2458574,47.35764 57.2458574,47.35764 L57.8045474,66.84546 C57.8045474,66.84546 58.1114474,69.46005 55.7898974,76.98042 L54.7698674,79.0383 Z" id="Path" fill="#1AA2EF" fill-rule="nonzero"></path> <path d="M15.0563474,108.22548 C11.0263874,106.02636 8.29695741,96.51345 7.22511741,90.86418 C10.6142174,81.71361 8.18178741,71.2074 8.18178741,71.2074 L10.4637374,74.07279 C12.8120174,96.34086 17.3481974,78.26511 19.7677574,82.95507 C20.0673974,85.32876 41.8879874,85.32876 42.1872974,82.95507 C44.6068574,78.26511 49.1430374,96.34086 51.4913174,74.07279 L53.7732674,71.2074 C53.7732674,71.2074 51.2058674,80.75826 54.7299374,90.86418 C53.6580974,96.51345 50.9286674,106.02669 46.8987074,108.22548 C41.7203474,111.05127 20.2350374,111.05127 15.0563474,108.22548 Z" id="Path" fill="#043070" fill-rule="nonzero"></path> <path d="M19.4374274,86.72829 C19.4374274,86.72829 15.4523474,88.87791 17.7392474,93.49494 C20.2030274,98.46903 26.5730174,97.33218 26.5730174,97.33218 L26.8700174,97.79913 C27.2204774,98.34957 27.8276774,98.68287 28.4800874,98.68287 L31.6289474,98.68287 C32.3275574,98.68287 32.9700674,98.30139 33.3043574,97.68825 L33.4987274,97.33218 C33.4987274,97.33218 39.6571874,97.79253 42.5737274,93.38769 C44.9972474,89.72667 41.5292774,86.58672 41.5292774,86.58672 C36.6251474,87.92058 32.6489774,87.46914 30.0918074,84.28992 C27.4551074,87.48102 23.9340074,88.37367 19.4374274,86.72829 Z" id="Path" fill="#1AA2EF" fill-rule="nonzero"></path> <path d="M29.9782874,83.92956 C34.4771774,90.91236 48.5513474,86.07489 44.9932874,79.66728 C41.5520474,85.53402 36.3944774,77.03355 29.9782874,79.5003" id="Path" fill="#043070" fill-rule="nonzero"></path> <path d="M30.3518474,83.92956 C25.8529574,90.91236 11.7787874,86.07489 15.3368474,79.66728 C18.7784174,85.53402 23.9359874,77.03355 30.3518474,79.5003" id="Path" fill="#043070" fill-rule="nonzero"></path> <path d="M44.9929574,79.66728 C46.4475974,83.33028 44.1762074,85.24989 39.3935174,86.82729 C39.3935174,86.82729 44.7807674,85.1928 44.2283474,82.24557 C41.0204174,83.8266 37.3673174,80.68005 37.3673174,80.68005 C40.3792274,82.37691 43.1004074,82.28022 44.9929574,79.66728 Z" id="Path" fill="#1AA2EF" fill-rule="nonzero" opacity="0.7"></path> <path d="M15.2018774,79.66728 C13.7472374,83.33028 16.0186274,85.24989 20.8013174,86.82729 C20.8013174,86.82729 15.2536874,85.15815 15.7948874,81.87729 C19.3173074,83.13195 21.2629874,81.1635 21.2629874,81.1635 C18.2514074,82.86069 17.0944274,82.28022 15.2018774,79.66728 Z" id="Path" fill="#1AA2EF" fill-rule="nonzero" opacity="0.4"></path> <path d="M56.9037334,72.9542946 C57.1403434,72.7919346 57.4251334,72.6718146 57.7386334,72.6223146 C58.0534534,72.5724846 58.4012734,72.6058146 58.7217034,72.7252746 C59.3711434,72.9760746 59.8163134,73.5308046 60.0446734,74.0934546 C60.2911834,74.6617146 60.3327634,75.2702346 60.2845834,75.8447646 C60.2255134,76.4209446 60.0522634,76.9697346 59.7843034,77.4776046 C59.5123834,77.9818446 59.1408034,78.4520946 58.6355734,78.8154246 C58.3801534,78.9942846 58.0871134,79.1378346 57.7838434,79.2368346 C57.4739734,79.3348446 57.1297834,79.3751046 56.7822934,79.3374846 C56.4354634,79.3031646 56.0830234,79.1734746 55.7995534,78.9665646 C55.5167434,78.7599846 55.2900334,78.4943346 55.1464834,78.2102046 C54.8640034,77.6360046 54.8270434,77.0469546 54.9102034,76.5225846 C54.9471634,76.2876246 55.1679334,76.1272446 55.4028934,76.1645346 C55.5834034,76.1932446 55.7200234,76.3301946 55.7566534,76.4991546 L55.7616034,76.5225846 C55.8507034,76.9397046 55.9916134,77.3168946 56.2021534,77.5558146 C56.4123634,77.7957246 56.6407234,77.8792146 56.8845934,77.8679946 C57.0093334,77.8567746 57.1403434,77.8250946 57.2789434,77.7716346 C57.4198534,77.7076146 57.5502034,77.6320446 57.6752734,77.5277646 C57.9254134,77.3178846 58.1557534,77.0301246 58.3283434,76.7001246 C58.6774834,76.0424346 58.8329134,75.2421846 58.6583434,74.5953846 C58.4755234,73.9479246 58.0696234,73.5469746 57.2693734,73.7222046 L57.2383534,73.7291346 C57.0063634,73.7799546 56.7770134,73.6331046 56.7258634,73.4011146 C56.6879134,73.2252246 56.7634834,73.0503246 56.9037334,72.9542946 Z" id="Path" fill="#F6CD52" fill-rule="nonzero"></path> <path d="M53.0202074,83.27319 C53.9349674,81.1173 54.7160774,78.8469 55.3843274,76.52073 C56.4984074,72.64224 57.2996474,70.76784 57.8877074,66.84579 C57.1650074,57.54474 58.6173374,49.09179 57.1178174,45.57861 C52.8961274,35.6895 43.2439574,29.50167 31.0392374,29.50167 C18.8345174,29.50167 9.18234741,35.6895 4.96065741,45.57861 C3.46080741,49.09179 4.91346741,57.54474 4.19076741,66.84579 C5.11773741,73.02999 6.45951741,79.19868 8.73453741,84.51696" id="Path" stroke="#091526" stroke-width="1.5" stroke-linecap="round" stroke-linejoin="round"></path> <path d="M7.17726741,91.05756 C7.17726741,91.05756 8.09565741,89.02971 8.67381741,85.42116 C9.91527741,83.29365 8.97345741,76.5204 8.24778741,71.2074 C8.24778741,71.2074 10.4861774,73.37814 10.5297374,74.07279 C11.2158074,85.05486 9.95157741,87.77373 9.38760741,91.69545 C10.3505474,101.71128 15.1223474,108.22548 15.1223474,108.22548 C10.3505474,106.04484 7.17726741,91.05756 7.17726741,91.05756 Z" id="Path" fill="#1AA2EF" fill-rule="nonzero" opacity="0.4"></path> <path d="M55.0569674,91.05756 C55.0569674,91.05756 54.1385774,89.02971 53.5604174,85.42116 C52.3189574,83.29365 53.2607774,76.5204 53.9864474,71.2074 C53.9864474,71.2074 51.7480574,73.37814 51.7044974,74.07279 C51.0184274,85.05486 52.2826574,87.77373 52.8466274,91.69545 C51.8836874,101.71128 47.1118874,108.22548 47.1118874,108.22548 C51.8836874,106.04484 55.0569674,91.05756 55.0569674,91.05756 Z" id="Path" fill="#1AA2EF" fill-rule="nonzero" opacity="0.7"></path> <path d="M45.0998774,83.46129 C47.3475074,85.78284 49.9132574,89.03565 51.4913174,74.07279 L53.7732674,71.2074 C53.7732674,71.2074 51.2058674,80.75826 54.7299374,90.86418 C53.6580974,96.51345 50.9286674,106.02669 46.8987074,108.22548 C41.7203474,111.05127 20.2350374,111.05127 15.0563474,108.22548 C11.0263874,106.02636 8.29695741,96.51345 7.22511741,90.86418 C10.6142174,81.71361 8.18178741,71.2074 8.18178741,71.2074 L10.4637374,74.07279 C11.7847274,86.5986 13.7980574,86.35935 15.7371374,84.58725" id="Path" stroke="#091526" stroke-width="1.5" stroke-linecap="round" stroke-linejoin="round"></path> <path d="M30.3518474,60.63915 C30.3518474,60.63915 32.120336,66.535881 30.877886,72.906861" id="Path" stroke="#091526" stroke-width="1.5" stroke-linecap="round" stroke-linejoin="round" fill-rule="nonzero"></path> <path d="M9.53423125,56.5036364 C9.13526125,57.0217364 8.47064125,56.6478464 8.72936125,56.0475764 C10.5295113,51.8720864 9.25175125,51.4714664 12.0353013,50.0970164 C15.7649613,48.2552864 21.7967013,48.1067864 22.3006113,48.7364264 C22.6880313,49.2205364 24.4766313,51.9766964 22.9553313,51.8298464 C19.4629413,51.4929164 17.6014113,52.0103564 13.8915513,52.9627364 C11.7171813,53.5214264 11.4604413,54.0025664 9.53423125,56.5036364 Z" id="Path" fill="#091526" fill-rule="nonzero" transform="translate(16.114926, 52.574533) rotate(-4.000000) translate(-16.114926, -52.574533) "></path> <path d="M20.5152074,91.3 C20.5152074,91.3 29.1895874,95.36593 39.4898774,91.3" id="Path" stroke="#091526" stroke-width="1.5" stroke-linecap="round" stroke-linejoin="round"></path> <path d="M23.3703674,64.33053 C23.3703674,64.33053 18.7001249,63.2839657 14.0298824,66.19305" id="Path" stroke="#091526" stroke-width="1.5" stroke-linecap="round" stroke-linejoin="round" transform="translate(18.700125, 65.170167) rotate(-5.000000) translate(-18.700125, -65.170167) "></path> <path d="M38.4072994,56.5036364 C38.0083294,57.0217364 37.3437094,56.6478464 37.6024294,56.0475764 C39.4025794,51.8720864 38.1248194,51.4714664 40.9083694,50.0970164 C44.6380294,48.2552864 50.6697694,48.1067864 51.1736794,48.7364264 C51.5610994,49.2205364 53.3496994,51.9766964 51.8283994,51.8298464 C48.3360094,51.4929164 46.4744794,52.0103564 42.7646194,52.9627364 C40.5902494,53.5214264 40.3335094,54.0025664 38.4072994,56.5036364 Z" id="Path" fill="#091526" fill-rule="nonzero" transform="translate(44.987994, 52.574533) scale(-1, 1) rotate(-4.000000) translate(-44.987994, -52.574533) "></path> <path d="M47.8434355,64.33053 C47.8434355,64.33053 43.173193,63.2839657 38.5029505,66.19305" id="Path" stroke="#091526" stroke-width="1.5" stroke-linecap="round" stroke-linejoin="round" transform="translate(43.173193, 65.170167) scale(-1, 1) rotate(-5.000000) translate(-43.173193, -65.170167) "></path> <path d="M30.1647374,84.20478 C34.8523874,90.78201 48.5034974,85.98876 44.9929574,79.66728 C41.5517174,85.53402 36.3941474,77.03355 29.9779574,79.5003" id="Path" stroke="#091526" stroke-width="1.5" stroke-linecap="round" stroke-linejoin="round"></path> <path d="M30.0927974,84.30444 C25.3391474,90.7335 11.8441274,85.95675 15.3368474,79.66728 C18.7784174,85.53402 23.9359874,77.03355 30.3518474,79.5003" id="Path" stroke="#091526" stroke-width="1.5" stroke-linecap="round" stroke-linejoin="round"></path> <path d="M23.6789174,76.63381 C23.6789174,79.2020331 29.0380349,81.0988244 30.1796287,81.0988244 C31.3212224,81.0988244 36.6805874,79.2020331 36.6805874,76.63381" id="Path" stroke="#091526" stroke-width="1.5" fill="#1AA2EF" fill-rule="nonzero" stroke-linecap="round" stroke-linejoin="round"></path> <path d="M18.6843674,7.10542736e-15 C15.2022074,8.16024 21.7642574,8.11239 31.0164674,10.82961 C37.5613574,12.75153 34.2517874,20.57121 31.8325574,25.48029 L28.8137174,25.56543 C31.6035374,20.65404 29.9680574,15.92712 24.9042074,15.11829 C16.6710374,13.80291 10.4304074,7.81341 18.6843674,7.10542736e-15 L18.6843674,7.10542736e-15 Z" id="Path" stroke="#091526" stroke-width="1.5"></path> <path d="M25.5338474,29.97192 L25.2846974,26.03964 C27.4471874,25.6212 29.6430074,25.43541 31.8325574,25.47996 C33.4109474,25.51197 34.9863674,25.6641 36.5433074,25.9347 L36.6343874,29.90625 C32.5453574,29.32116 28.9569374,29.49804 25.5338474,29.97192 Z" id="Path" stroke="#091526" stroke-width="1.5"></path> </g> <g id="Group-24" transform="translate(101.000000, 118.474971)"> <path d="M37.3652,154.8651 C39.734755,127.552987 44.353253,117.573148 51.0831412,105.715652" id="Shape" stroke="#091526" stroke-width="1.5" stroke-linecap="round" stroke-linejoin="round"></path> <g id="Group-23"> <path d="M65.7280973,68.7809957 C67.6070852,68.7809957 81.8626402,72.4891762 82.4781529,79.3581654 C82.8884947,83.9374916 82.8884947,86.160975 82.4781529,86.0286159 L77.5760779,78.54129 L72.9635473,73.5974493 L69.0146869,71.4758447 C65.5709685,69.6792787 64.4754386,68.7809957 65.7280973,68.7809957 Z" id="Path-36" fill="#042C50"></path> <path d="M24.3355281,64.5393277 C25.8484065,65.1909629 27.1416709,65.6337273 28.2153215,65.8676208 C29.2889721,66.1015143 30.8936211,66.290057 33.0292685,66.4332489 C32.7083077,67.3494613 32.7083077,67.8075675 33.0292685,67.8075675 C33.5107096,67.8075675 37.7406422,68.2563195 38.4209912,68.2563195 C38.8745572,68.2563195 48.1646442,68.9510098 66.2912522,70.3403905 L47.2849809,66.7696638 L37.3652,66.4332489 L33.5215768,65.5774476 L33.0292685,63.6285067 L24.9113618,62.0992602 L24.3355281,64.5393277 Z" id="Path-39" fill="#085A93"></path> <path d="M97.4260063,74.0444614 C97.4260063,74.0444614 79.4466306,104.68073 44.2211236,117.52908 C43.3376236,117.22758 37.8038236,112.58538 21.5483236,99.7888801 C21.5483236,99.7888801 32.298611,85.4270997 42.177611,75.8828997 C49.056011,69.2375997 58.1376556,70.3129505 65.2987034,70.6805798" id="Path" stroke="#091526" stroke-width="1.5" stroke-linecap="round" stroke-linejoin="round" transform="translate(59.487165, 93.957407) rotate(56.000000) translate(-59.487165, -93.957407) "></path> <path d="M82.5733,1.42108547e-14 C101.348477,38.963212 107.5,69.5 97.2108756,114.274954" id="Path" stroke="#091526" stroke-width="1.5" stroke-linecap="round" stroke-linejoin="round"></path> <g id="Group-20" transform="translate(0.000000, 8.000000)"> <g id="Group-19" transform="translate(11.500000, 37.500000) scale(-1, 1) translate(-11.500000, -37.500000) "> <polygon id="Path-30" fill="#1AA2EF" points="0.0198956205 57.5774476 2.19839218 56.8039567 5.56758785 53.7209603 7.08670375 50.1941229 7.5 40.6525379 9.28289358 34.2079518 12.8321261 22.9555454 15.4976456 16.1704904 15.4976456 13.3451801 14.5133155 9.39801671 16.9841802 10.1101964 16.3896163 4.94515179 18.0020038 5.55316545 18.0020038 0.413590591 20.9071781 2.2145167 22.2382153 4.94515179 22.3108177 16.1704904 22.2382153 42.8824317 22.2382153 56.325984 22.2382153 61.8002949 20.9071781 64.1945752 17.6996725 66.7935947 11.4598246 70.498619 7.08670375 73.4566774 5.42788662 74.0890377"></polygon> <g id="Group-17" stroke="#091526" stroke-linecap="round" stroke-linejoin="round" stroke-width="1.5"> <path d="M10.7545241,10.1101964 C10.7545241,8.97745797 11.0856383,7.13843087 11.7478668,4.59311506 C7.58294827,6.50797605 5.50048902,8.5218284 5.50048902,10.6346721 C5.50048902,12.7475158 5.50048902,28.7348114 5.50048902,58.5965589 C5.1707842,61.4063252 5.96403051,63.5814912 7.88022794,65.1220569 C10.2695567,67.043006 18.0619357,71.1275691 22.3108177,74.6553778" id="Path-21" transform="translate(13.869352, 39.624246) scale(-1, 1) translate(-13.869352, -39.624246) "></path> <path d="M17.3108177,9.89030359 C17.3215733,6.15496345 17.7202027,3.71246432 18.5067058,2.56280621 C19.2932089,1.4131481 20.5370454,0.558879362 22.2382153,0 L21.1732676,5.41941093" id="Path-28" transform="translate(19.774516, 4.945152) scale(-1, 1) translate(-19.774516, -4.945152) "></path> <path d="M22.2382153,32.1037107 C21.1723524,28.8751925 20.4306707,25.7554279 20.0131701,22.7444167 C19.5956695,19.7334055 20.0881768,15.2846055 21.4906921,9.39801671 C16.3407589,10.9195167 13.7657923,13.4722127 13.7657923,17.0561045 C13.7657923,20.6399964 13.7657923,22.6523005 13.7657923,23.0930167" id="Path-29" transform="translate(18.002004, 20.750864) scale(-1, 1) translate(-18.002004, -20.750864) "></path> <path d="M15.4976456,57.5774476 C14.9209456,57.2637777 14.4446924,56.983316 14.0688861,56.7360626 C11.7953759,55.2402568 8.01754124,54.9825483 8.01754124,43.9481947 C8.01754124,32.913841 0.0198956205,20.7508637 0.0198956205,13.8544979" id="Path-21" transform="translate(7.758771, 35.715973) scale(-1, 1) translate(-7.758771, -35.715973) "></path> </g> </g> </g> <path d="M17.8954773,66.2913781 L44.5855715,86.9941231 C44.5855715,86.9941231 39.3901715,89.5933231 27.7807715,92.9422231 L11.8450715,72.5602231 C11.8450715,72.5602231 14.9164773,70.2873781 17.8954773,66.2913781 Z" id="Path" stroke="#091526" stroke-width="1.5" stroke-linecap="round" stroke-linejoin="round" transform="translate(28.215322, 79.616801) rotate(56.000000) translate(-28.215322, -79.616801) "></path> <path d="M64.2078257,30.2570162 C58.2504675,52.5042741 62.8243871,58.7740213 64.7922306,69.5" id="Path-32" stroke="#091526" stroke-width="1.5" stroke-linecap="round" stroke-linejoin="round"></path> </g> </g> <path d="M38.26171,148.408448 C41.4308986,156.739589 43.0154929,163.088252 43.0154929,167.454437 C43.0154929,185.842693 44.7481015,184.906273 45.2299777,186.991994 L37.0504655,188.118897 L40.2371342,176.024757 L40.7452759,166.779271 L39.7877394,158.578682 L38.26171,148.408448 Z" id="Path-33" fill="#052542"></path> <g id="Group-3" transform="translate(137.000000, 167.500000) rotate(4.000000) translate(-137.000000, -167.500000) translate(123.000000, 163.000000)" stroke="#091526" stroke-width="1.5"> <path d="M3.90656437,8.404425 L22.3238362,8.404425 L13.5941701,0.608096673 C13.2085082,0.263668067 12.6238701,0.270052224 12.2458215,0.622820429 L3.90656437,8.404425 L3.90656437,8.404425 Z" id="Path-18" fill="#F6CD52"></path> <line x1="-1.36424205e-12" y1="8.404425" x2="27.321702" y2="8.404425" id="Path-19" stroke-linecap="round" stroke-linejoin="round"></line> </g> <circle id="Oval" fill="#091526" fill-rule="nonzero" cx="109.6799" cy="223.6799" r="2.6799"></circle> <circle id="Oval" fill="#091526" fill-rule="nonzero" cx="109.6799" cy="252.6799" r="2.6799"></circle> <g id="Group-24" transform="translate(51.000000, 195.474971) scale(-1, 1) translate(-51.000000, -195.474971) translate(0.000000, 117.474971)"> <path d="M37.3652,155.8651 C39.734755,128.552987 44.353253,118.573148 51.0831412,106.715652" id="Shape" stroke="#091526" stroke-width="1.5" stroke-linecap="round" stroke-linejoin="round"></path> <g id="Group-23"> <path d="M24.39709,87.0305384 C27.6750472,83.3912921 29.9649218,80.8578285 31.2667137,79.4301477 C33.2194016,77.2886266 36.3161505,74.2204735 42.0627117,72.8203813 C47.8092728,71.420289 64.174621,69.5435759 64.4412578,69.5435759 C64.6190156,69.5435759 67.4935157,69.3393804 73.0647581,68.9309894 L73.3061429,67.0641974 L81.8470998,65.7553831 L81.3328281,63.0992602 C78.2817654,63.8134692 76.5166474,64.1705738 76.0374741,64.1705738 C75.5583007,64.1705738 74.463268,64.3169759 72.7523761,64.6097803 L72.7523761,66.5774476 L64.4412578,67.4542638 L52.1578899,68.7290692 L41.8044565,70.5 L37.3695496,72.0440188 L30.4487929,77.1109459 L26.6330714,82.7633147 L24.39709,86.024233 L24.39709,87.0305384 Z" id="Path-37" fill="#085A93" transform="translate(53.122095, 75.064899) scale(-1, 1) translate(-53.122095, -75.064899) "></path> <path d="M97.4260063,75.0444614 C97.4260063,75.0444614 79.4466306,105.68073 44.2211236,118.52908 C43.3376236,118.22758 37.8038236,113.58538 21.5483236,100.78888 C21.5483236,100.78888 32.298611,86.4270997 42.177611,76.8828997 C49.056011,70.2375997 58.1376556,71.3129505 65.2987034,71.6805798" id="Path" stroke="#091526" stroke-width="1.5" stroke-linecap="round" stroke-linejoin="round" transform="translate(59.487165, 94.957407) rotate(56.000000) translate(-59.487165, -94.957407) "></path> <path d="M80.3057,0.4822 C99.0808775,39.445412 107.5,70.5 97.2108756,115.274954" id="Path" stroke="#091526" stroke-width="1.5" stroke-linecap="round" stroke-linejoin="round"></path> <g id="Group-20" transform="translate(0.000000, 9.000000)"> <g id="Group-19" transform="translate(11.500000, 37.500000) scale(-1, 1) translate(-11.500000, -37.500000) "> <polygon id="Path-30" fill="#1AA2EF" points="0.0198956205 57.5774476 2.19839218 56.8039567 5.56758785 53.7209603 7.08670375 50.1941229 7.5 40.6525379 9.28289358 34.2079518 12.8321261 22.9555454 15.4976456 16.1704904 15.4976456 13.3451801 14.5133155 9.39801671 16.9841802 10.1101964 16.3896163 4.94515179 18.0020038 5.55316545 18.0020038 0.413590591 20.9071781 2.2145167 22.2382153 4.94515179 22.3108177 16.1704904 22.2382153 42.8824317 22.2382153 56.325984 22.2382153 61.8002949 20.9071781 64.1945752 17.6996725 66.7935947 11.4598246 70.498619 7.08670375 73.4566774 5.42788662 74.0890377"></polygon> <g id="Group-17" stroke="#091526" stroke-linecap="round" stroke-linejoin="round" stroke-width="1.5"> <path d="M10.7545241,10.1101964 C10.7545241,8.97745797 11.0856383,7.13843087 11.7478668,4.59311506 C7.58294827,6.50797605 5.50048902,8.5218284 5.50048902,10.6346721 C5.50048902,12.7475158 5.50048902,28.7348114 5.50048902,58.5965589 C5.1707842,61.4063252 5.96403051,63.5814912 7.88022794,65.1220569 C10.2695567,67.043006 18.0619357,71.1275691 22.3108177,74.6553778" id="Path-21" transform="translate(13.869352, 39.624246) scale(-1, 1) translate(-13.869352, -39.624246) "></path> <path d="M17.3108177,9.89030359 C17.3215733,6.15496345 17.7202027,3.71246432 18.5067058,2.56280621 C19.2932089,1.4131481 20.5370454,0.558879362 22.2382153,0 L21.1732676,5.41941093" id="Path-28" transform="translate(19.774516, 4.945152) scale(-1, 1) translate(-19.774516, -4.945152) "></path> <path d="M22.2382153,32.1037107 C21.1723524,28.8751925 20.4306707,25.7554279 20.0131701,22.7444167 C19.5956695,19.7334055 20.0881768,15.2846055 21.4906921,9.39801671 C16.3407589,10.9195167 13.7657923,13.4722127 13.7657923,17.0561045 C13.7657923,20.6399964 13.7657923,22.6523005 13.7657923,23.0930167" id="Path-29" transform="translate(18.002004, 20.750864) scale(-1, 1) translate(-18.002004, -20.750864) "></path> <path d="M15.4976456,57.5774476 C14.9209456,57.2637777 14.4446924,56.983316 14.0688861,56.7360626 C11.7953759,55.2402568 8.01754124,54.9825483 8.01754124,43.9481947 C8.01754124,32.913841 0.0198956205,20.7508637 0.0198956205,13.8544979" id="Path-21" transform="translate(7.758771, 35.715973) scale(-1, 1) translate(-7.758771, -35.715973) "></path> </g> </g> </g> <path d="M17.8954773,67.2913781 L44.5855715,87.9941231 C44.5855715,87.9941231 39.3901715,90.5933231 27.7807715,93.9422231 L11.8450715,73.5602231 C11.8450715,73.5602231 14.9164773,71.2873781 17.8954773,67.2913781 Z" id="Path" stroke="#091526" stroke-width="1.5" stroke-linecap="round" stroke-linejoin="round" transform="translate(28.215322, 80.616801) rotate(56.000000) translate(-28.215322, -80.616801) "></path> <path d="M64.2078257,31.2570162 C58.2504675,53.5042741 62.8243871,59.7740213 64.7922306,70.5" id="Path-32" stroke="#091526" stroke-width="1.5" stroke-linecap="round" stroke-linejoin="round"></path> </g> </g> </g> <polygon id="Star" fill="#FFFFFF" transform="translate(88.000000, 165.000000) rotate(-7.000000) translate(-88.000000, -165.000000) " points="88 166.601562 85.1715729 167.828427 86.3984375 165 85.1715729 162.171573 88 163.398438 90.8284271 162.171573 89.6015625 165 90.8284271 167.828427"></polygon> <g id="Group-2" transform="translate(0.000000, 248.000000)"> <path d="M47.538183,33.479966 C51.7526879,27.8132993 58.1388712,26.0889045 66.6967328,28.3067816 C67.0050094,23.1796641 68.7727652,19.0960489 72,16.0559358 C75.2272348,13.0158227 78.7089237,11.1651069 82.4450664,10.5037883 C85.7590618,3.42031214 90.538527,-0.00812576984 96.783462,0.218474561 C106.587673,0.574224854 111.826519,4.79631741 112.5,12.8847522 C114.661462,9.7618889 118.465499,7.91450205 123.912112,7.34259166 C135.642023,6.11091644 141.157614,9.82638589 140.458885,18.489 C143.976016,14.5660253 148.474344,12.8970816 153.953872,13.482169 C159.433399,14.0672563 163.593072,17.0476172 166.432891,22.4232516 C180.543571,18.650296 189.209337,22.7059165 192.430187,34.590113 C204.08006,33.528989 234.82105,41.3515736 225.219321,68.4257868 C215.617593,95.5 196.166238,90.4482902 190.606198,87.264122 C191.930282,93.1014984 189.282114,100.796837 182.133491,101.857961 C174.984868,102.919881 169.160329,99.7357128 167.571746,92.5713344 C165.983163,97.0825047 163.33579,101.592879 156.451666,100.531755 C162.541498,109.023135 163.070497,120.167724 150.891626,127.066225 C138.712755,133.965521 126.004092,124.678098 120.444052,116.717678 C109.85297,119.105804 83.3768531,126.005101 66.6967328,93.8983365 C59.5481098,96.2864626 52.9292792,92.0411703 52.9292792,92.0411703 C52.9292792,92.0411703 34.396077,126.536061 12.4204156,110.085056 C-9.55524579,93.6332544 1.56483442,72.4059971 15.5975814,68.4257868 C13.7444994,59.9344062 15.8620804,50.1168196 25.1290787,49.0556955 C21.6866196,40.0325589 28.9597473,25.6574083 47.538183,33.479966 Z" id="XMLID_3_" fill="#1AA2EF" fill-rule="nonzero"></path> <path d="M97.7308023,142.516222 C97.7308023,142.516222 91.8765577,130.337913 105.448378,123.454106 C119.020198,116.5703 134.188703,129.278377 127.26947,137.220925 C120.350237,145.163473 108.109253,143.83945 108.109253,143.83945 C108.109253,143.83945 113.165155,153.900276 104.383389,158.665804 C106.778416,162.10731 103.585047,166.343866 103.585047,166.343866 C103.585047,166.343866 112.632661,166.873633 111.302623,175.080668 C118.221856,176.13941 119.286046,178.787455 118.753552,180.904939 C122.213568,181.964475 123.01191,188.318513 119.818541,189.907023 C116.625171,191.495532 110.50428,189.907023 107.843405,183.552984 C104.384188,184.877007 85.7556668,184.877007 89.2156826,174.021927 C79.3697262,174.286414 65.5312596,168.462143 73.2488352,159.460853 C80.9664109,150.459564 88.6831883,156.283834 88.6831883,156.283834 L90.545721,153.90107 C90.545721,153.90107 87.0865035,145.693241 97.7308023,142.516222 Z" id="XMLID_4_" fill="#1689C9" fill-rule="nonzero"></path> <path d="M61.6455033,117.040621 C54.0735264,118.415947 47.8534609,119.690309 49.1791139,127.375438 C50.5055625,135.060568 64.2976049,128.70068 65.6240535,124.990481 C66.9505022,121.280281 64.563372,116.510366 61.6455033,117.040621 Z" id="XMLID_6_" fill="#1AA2EF" fill-rule="nonzero"></path> <path d="M70.0143213,118.049155 C69.6544506,113.341806 76.2089968,114.928228 74.8016152,117.19807 C73.3933888,119.467913 70.2956287,121.737756 70.0143213,118.049155 Z" id="XMLID_5_" fill="#1689C9" fill-rule="nonzero"></path> <path d="M76.9450142,136.012122 C73.9484897,135.757401 74.4935352,139.582045 78.034288,141.366625 C81.5750407,143.151204 87.2951582,140.856417 84.0265196,138.306909 C80.7578811,135.756636 76.9450142,136.012122 76.9450142,136.012122 Z" id="XMLID_8_" fill="#1689C9" fill-rule="nonzero"></path> <path d="M117.003012,150.019941 C113.924721,151.62545 114.773443,156.479966 117.003012,156.479966 C119.232581,156.479966 122.452821,147.177933 117.003012,150.019941 Z" id="XMLID_7_" fill="#1689C9" fill-rule="nonzero"></path> <path d="M19.9882974,78.2999026 C25.6803799,76.7706425 9.87373958,63.6790198 28.1957207,50.9351496 C26.3372345,36.3330637 39.8096671,30 49.7288558,41.3960438 C44.4178711,30.7764174 70.1753901,28.6521735 79.4686175,38.475308 C74.1576328,24.669714 96.008879,-5.90479724 106.896119,8.16682503 C115.182434,18.876455 97.5253282,27.8556816 97.5253282,27.8556816 C97.5253282,27.8556816 108.146501,23.8732221 113.988823,26.5279296 C108.677838,20.6872546 113.723553,14.0492911 120.626957,12.4563073 C127.531157,10.8633235 137.355722,12.4563073 137.355722,18.0317506 C137.355722,23.6071938 134.700628,26.7931614 134.700628,26.7931614 C134.700628,26.7931614 145.05653,14.845783 155.147162,18.2969824 C165.237794,21.7481818 160.19208,31.5721128 160.19208,31.5721128 C160.19208,31.5721128 168.158159,23.341962 177.717453,27.3244215 C187.276747,31.306881 189.931842,39.2717999 189.931842,39.2717999 C189.931842,39.2717999 209.581768,36.3510641 217.28178,48.2984425 C224.982588,60.2458209 219.671603,67.945508 210.908917,75.6443987 C202.14623,83.3432893 181.965763,73.5201548 181.965763,73.5201548 C181.965763,73.5201548 145.05653,98.2114035 111.86427,98.4766353 C78.6720097,98.7418671 65.6610133,83.0780575 65.6610133,83.0780575 L19.9882974,78.2999026 Z" id="XMLID_15_" fill="#1CADFF" fill-rule="nonzero"></path> <path d="M221.321803,68.7409186 C223.661024,63.5774037 224.342536,59.1424439 223.848479,55.357298 C222.45289,63.2942535 215.525777,70.3380131 209.141967,72.9833998 C201.463444,76.1648631 190.343207,71.3926682 187.695797,62.6436442 C168.102735,74.3092746 160.689508,47.0011848 160.689508,47.0011848 C160.689508,47.0011848 169.69134,41.6984809 168.632534,33.479966 C165.719827,44.0845784 146.392062,44.3502305 138.449036,41.4336241 C142.420549,48.8567732 149.304769,49.3872822 159.100903,47.5316938 C162.807913,59.7270378 157.512298,68.4760618 140.037641,80.4065489 C122.562984,92.3370361 102.970716,84.6482348 98.999203,78.2853083 C89.9973717,93.132402 75.6999249,81.9972806 76.4942275,76.4297199 C54.2537548,77.4899425 55.0480574,60.2575468 55.0480574,60.2575468 C55.0480574,60.2575468 60.8726784,59.99269 68.0214017,56.2807177 C54.2537548,59.1973242 47.8993341,53.8946203 42.8682214,49.9177912 C43.3980212,52.8343977 47.3695342,57.3409404 50.5467446,58.931672 C38.0340958,85.2646433 21.6166555,74.0062402 15.5775728,68.4824247 C1.55416048,72.4735703 -9.5446297,93.6708646 12.42022,110.100736 C34.3961899,126.538561 52.9296524,92.0721793 52.9296524,92.0721793 C52.9296524,92.0721793 59.5485759,96.3138652 66.6972993,93.9277678 C83.3776538,126.007257 109.854142,119.114617 120.445373,116.72852 C126.005491,124.682178 138.714333,133.961711 150.893375,127.068275 C163.072416,120.17484 162.543411,109.039718 156.453493,100.556346 C163.337713,101.616569 165.985124,97.1100264 167.573729,92.6026883 C169.162334,99.7609806 174.986955,102.942444 182.135679,101.882221 C189.284402,100.821999 191.931812,93.1331973 190.608504,87.3007798 C196.168623,90.4806523 209.671767,94.4574814 221.321803,68.7409186 Z" id="XMLID_41_" fill="#1AA2EF" fill-rule="nonzero"></path> <path d="M51.1199148,121.289806 C51.1199148,121.289806 48.3630734,126.835479 51.5001688,129.279335 C54.6372643,131.723191 62.5275346,127.305451 63.8584236,125.613551 C65.1893126,123.921651 65.854757,120.067878 63.0028521,118 C64.1436141,120.349861 64.3337411,122.981706 59.3904392,124.861595 C54.4471373,126.741485 49.9791528,126.459501 51.1199148,121.289806 Z" id="XMLID_13_" fill="#1689C9" fill-rule="nonzero"></path> <path d="M70.6614183,35.9523295 C70.6614183,35.9523295 66.1706897,30.3102297 71.9824073,21.4440728 C77.7933324,12.5779159 84.1328117,14.1899444 84.1328117,14.1899444 C84.1328117,14.1899444 89.1513019,5.05538471 96.8117701,4.5177732 C104.472238,3.98016169 105,9.35385879 105,9.35385879 C105,9.35385879 93.3781497,1.56211889 87.8311054,18.4884185 C83.3403768,19.02603 82.5479419,25.2049353 85.9823547,28.6982012 C89.4159752,32.190661 83.3411692,38.3703723 83.3411692,38.3703723 C83.3411692,38.3703723 89.9445293,42.9380552 80.9638645,44.8184865 C71.9824073,46.6989177 65.9068089,44.8184865 70.6614183,35.9523295 Z" id="XMLID_16_" fill="#1CADFF" fill-rule="nonzero"></path> <path d="M2.80085431,85.7516848 C2.80085431,85.7516848 6.52385144,102.55248 24.0616142,101.364672 C41.599377,100.176864 42.34538,92.3854321 50,83.0738699 C59.026678,87.0921295 64.0763988,87.9861242 73.4410705,83.9678646 C72.6438995,90.3028398 60.3121955,93.8318742 52,88.133968 C47,97.9717127 38.3981334,108.6348 29.4299592,110.614479 C20.4617851,112.594159 1.80439052,105.548482 2.80085431,85.7516848 Z" id="XMLID_11_" fill="#1689C9" fill-rule="nonzero"></path> <path d="M72.5,93.6201173 C68.8746092,94.5228743 90,124 121.5,111.799224 C126.46349,121.133003 140.130582,128.979966 151.474262,122.67398 C162.817943,116.367994 157.473796,102.650378 152.907385,98.479966 C159.260652,98.678557 166.465211,97.5780653 166.465211,84.4759231 C168.254913,89.9927954 172,98.479966 178.657039,98.479966 C189.255007,98.479966 188.885065,89.9182316 186.44098,84.4759231 C182.704346,76.1554622 173.617313,78.4730376 173.617313,78.4730376 C173.617313,78.4730376 165.327386,67.3235982 162.150752,75.0686489 C160.165356,84.998201 156.239213,97.9859104 145.915153,96 C149.885945,105.53237 156.437753,113.070933 145.915153,115.056844 C135.392553,117.042754 127.053889,106.71602 127.053889,106.71602 C127.053889,106.71602 93.9422787,122.813001 72.5,93.6201173 Z" id="XMLID_18_" fill="#1689C9" fill-rule="nonzero"></path> <path d="M122.704981,125.479966 C122.837059,132.357021 116.715722,136.182194 108.015954,135.388718 C99.3161868,134.595242 106.905612,125.479966 106.905612,125.479966 C98.5602726,128.279183 97.9536097,136.914915 100.061716,142.065197 C104.310366,141.965219 105.826498,145.646153 104.217832,147.829798 C101.977246,150.871191 94.7584588,150.525039 93.4774824,148.530257 C92.8457367,147.54648 93.1437277,146.359273 93.4774824,145.622927 C90.9790674,148.010496 90.345613,151.634005 91.7446938,154.193757 C91.1842974,155.758931 90.1714026,156.57783 89.57509,156.979966 C94.4176969,159.097753 97.31338,161.917167 95.1234113,163.831031 C91.0368933,167.401672 78,167.969992 75,163.831031 C73.8573078,162.254511 74.6141051,159.979499 75.2800328,158.598058 C72.0721913,161.256202 70.0759901,165.027592 74.8236904,168.723602 C78.8564281,171.864179 86.1534592,173.320737 91.1842974,172.286045 C101.978037,174.470276 101.795342,166.078154 101.978037,165.945644 C104.350701,164.226182 104.55938,161.246866 103.135407,158.166077 C110.648835,153.501826 107.77529,147.845075 105.929358,142.554972 C129.494675,143.386633 127.710849,130 122.704981,125.479966 Z" id="XMLID_44_" fill="#1AA2EF" fill-rule="nonzero"></path> <path d="M80.5560041,157.258446 C78.4412186,158.137324 76.5157685,161.077017 79.6434569,162.539288 C82.7715516,164.001558 86.8772013,161.564144 85.8346385,159.045616 C84.7920757,156.527088 81.5335591,156.851988 80.5560041,157.258446 Z" id="XMLID_100_" fill="#1CADFF" fill-rule="nonzero"></path> <path d="M189.074591,82.2295473 C190.153429,85.1837283 190.739838,87.2838435 190.833816,88.529893" id="Path-10" stroke="#091526" stroke-width="1.5" stroke-linecap="round" stroke-linejoin="round"></path> </g> <polygon id="Star" fill="#FFFFFF" transform="translate(60.000000, 355.000000) rotate(-40.000000) translate(-60.000000, -355.000000) " points="60 356.601562 57.1715729 357.828427 58.3984375 355 57.1715729 352.171573 60 353.398438 62.8284271 352.171573 61.6015625 355 62.8284271 357.828427"></polygon> <polygon id="Star" fill="#FFFFFF" transform="translate(130.000000, 300.000000) rotate(-40.000000) translate(-130.000000, -300.000000) " points="130 301.601562 127.171573 302.828427 128.398438 300 127.171573 297.171573 130 298.398438 132.828427 297.171573 131.601562 300 132.828427 302.828427"></polygon> <polygon id="Star" fill="#FFFFFF" transform="translate(171.000000, 359.000000) rotate(-7.000000) translate(-171.000000, -359.000000) " points="171 360.601562 168.171573 361.828427 169.398438 359 168.171573 356.171573 171 357.398438 173.828427 356.171573 172.601562 359 173.828427 361.828427"></polygon> <polygon id="Star" fill="#FFFFFF" transform="translate(123.500000, 413.500000) rotate(43.000000) translate(-123.500000, -413.500000) " points="123.5 415.301758 120.318019 416.681981 121.698242 413.5 120.318019 410.318019 123.5 411.698242 126.681981 410.318019 125.301758 413.5 126.681981 416.681981"></polygon> <path d="M107.604478,431.628202 C108.784465,431.259316 109.639019,430.784156 110.168142,430.202724" id="Path-11" stroke="#091526" stroke-width="1.5" stroke-linecap="round" stroke-linejoin="round"></path> <path d="M111.302623,423.080668 C110.320058,422.889719 109.514621,422.794244 108.88631,422.794244" id="Path-12" stroke="#091526" stroke-width="1.5" stroke-linecap="round" stroke-linejoin="round"></path> <path d="M89.2156826,422.021927 C90.236846,421.984731 91.1878709,421.854923 92.0687574,421.632501" id="Path-13" stroke="#091526" stroke-width="1.5" stroke-linecap="round" stroke-linejoin="round"></path> <path d="M88.6831883,404.283834 C88.2166891,404.895446 87.9834395,405.396027 87.9834395,405.785577" id="Path-14" stroke="#091526" stroke-width="1.5" stroke-linecap="round" stroke-linejoin="round"></path> <path d="M127.26947,385.220925 C120.350237,393.163473 108.109253,391.83945 108.109253,391.83945 L108.321196,392.308978 C109.183614,394.347629 112.032024,402.515183 104.383389,406.665804 C106.778416,410.10731 103.585047,414.343866 103.585047,414.343866 L103.877731,414.371471 C105.42,414.548137 112.488873,415.760881 111.302623,423.080668 C118.221856,424.13941 119.286046,426.787455 118.753552,428.904939 C122.213568,429.964475 123.01191,436.318513 119.818541,437.907023 C116.625171,439.495532 110.50428,437.907023 107.843405,431.552984 C104.384188,432.877007 85.7556668,432.877007 89.2156826,422.021927 C79.3697262,422.286414 65.5312596,416.462143 73.2488352,407.460853 C80.9664109,398.459564 88.6831883,404.283834 88.6831883,404.283834 L90.545721,401.90107 L90.4317537,401.585091 C89.9292502,400.04898 88.3321129,393.321462 97.7308023,390.516222 L97.6069735,390.233026 C96.8343894,388.367011 93.0980215,377.71837 105.448378,371.454106 C119.020198,364.5703 134.188703,377.278377 127.26947,385.220925 Z M117.003012,404.479966 C114.773443,404.479966 113.924721,399.62545 117.003012,398.019941 C122.452821,395.177933 119.232581,404.479966 117.003012,404.479966 Z M76.9450142,384.012122 L77.1380391,384.005752 C77.9521035,383.993872 81.1936995,384.096672 84.0265196,386.306909 C87.2951582,388.856417 81.5750407,391.151204 78.034288,389.366625 C74.4935352,387.582045 73.9484897,383.757401 76.9450142,384.012122 Z M65.6240535,372.990481 C64.2976049,376.70068 50.5055625,383.060568 49.1791139,375.375438 C47.8534609,367.690309 54.0735264,366.415947 61.6455033,365.040621 C64.563372,364.510366 66.9505022,369.280281 65.6240535,372.990481 Z M149.936614,251.713145 C165.118958,252.099882 173.542066,260.039188 175.448407,262.230532 C178.419828,265.646189 180.279118,268.092224 181.363651,269.822809 C182.979191,270.300376 184.438018,271.004074 185.740203,271.932989 C188.938434,271.805991 192.770697,272.249674 196.127847,274.665079 C197.643197,275.755344 199.172237,278.539098 200.714969,283.016339 C214.290491,285.189209 232.999794,294.48701 225.219321,316.425787 C218.164607,336.318124 205.792734,338.867808 197.520165,337.5578 C194.824805,337.301393 192.535156,336.36411 190.878682,335.452377 L190.615008,335.304463 L190.663646,335.530707 C190.759386,335.999368 190.829942,336.47897 190.875046,336.96524 L190.913744,337.488372 C191.223881,342.89976 188.41789,348.95051 182.135679,349.882221 C174.986955,350.942444 169.162334,347.760981 167.573729,340.602688 L167.411175,341.053338 C165.831129,345.330569 163.199295,349.439499 156.788659,348.604025 L156.470008,348.557463 L156.632686,348.787285 C158.720546,351.771304 160.121351,355.070558 160.530604,358.391103 C161.287815,364.482329 158.703773,370.647527 150.893375,375.068275 C147.970405,376.7227 145.016918,377.445561 142.139063,377.47934 L141.779733,377.47934 C141.012749,377.472974 140.252495,377.418242 139.500154,377.319734 L138.878865,377.228188 L138.591404,377.179031 L138.148298,377.09483 L137.896234,377.042411 L137.404303,376.930561 L137.005976,376.831042 L136.372138,376.655582 C129.608331,374.676652 123.758059,369.467262 120.445373,364.72852 L118.372938,365.197296 C106.71223,367.801434 82.3768326,372.082488 66.6972993,341.927768 C59.5485759,344.313865 52.9296524,340.072179 52.9296524,340.072179 L52.5815365,340.690224 C49.9422664,345.261014 32.6381123,373.223535 12.42022,358.100736 C3.62682697,351.523213 0.132595499,344.181607 0.0037154013,337.485809 L0.00029935386,336.990191 C0.0376011518,327.143657 7.30957773,318.776574 15.5975814,316.425787 C13.7444994,307.934406 15.8620804,298.11682 25.1290787,297.055696 C21.9673865,288.768486 27.8446351,275.966681 43.2177012,279.993975 C44.0112901,274.203509 47.3794865,269.328399 55.6310214,267.5 L55.6264338,267.24539 C55.5214132,264.078345 52.9667286,253.877368 68.2747171,241.1579 M74.8016152,365.19807 L74.644474,365.440996 C73.1757126,367.622445 70.285582,369.60602 70.0143213,366.049155 C69.6544506,361.341806 76.2089968,362.928228 74.8016152,365.19807 Z" id="Shape" stroke="#091526" stroke-width="1.5" fill-rule="nonzero"></path> <path d="M79.9852673,259.084161 C80.4754513,258.982216 81.2633862,258.875678 82.3490721,258.764547 C86.3509084,250.124504 94.0142007,247.274245 102.892554,249.578021 C108.811456,251.113872 112.013938,254.882783 112.5,260.884752 C120.221226,254.939963 125.828451,253.86635 132.981464,255.831199 C137.750139,257.141098 140.242612,260.693699 140.458885,266.489 C143.250209,264.176575 149.837398,259.433805 157.457244,262.483 C162.537141,264.515796 165.529023,267.162547 166.432891,270.423252 C172.852396,269.109688 177.829316,268.909541 181.363651,269.822809" id="Path-6" stroke="#091526" stroke-width="1.5" stroke-linecap="round" stroke-linejoin="round"></path> <polygon id="Star" fill="#FFFFFF" transform="translate(72.500000, 263.500000) rotate(-50.000000) translate(-72.500000, -263.500000) " points="72.5 266.102539 67.9038059 268.096194 69.8974609 263.5 67.9038059 258.903806 72.5 260.897461 77.0961941 258.903806 75.1025391 263.5 77.0961941 268.096194"></polygon> <path d="M192.430187,283.024869 C192.867956,283.024869 200.173676,282.572639 203.864847,283.666941" id="Path-7" stroke="#091526" stroke-width="1.5" stroke-linecap="round" stroke-linejoin="round"></path> <path d="M66.6972993,341.927768 C66.6972993,341.927768 70.4219562,340.868985 73.4410705,337.984763" id="Path-8" stroke="#091526" stroke-width="1.5" stroke-linecap="round" stroke-linejoin="round"></path> <path d="M19.0305241,323.024727 C17.2296547,320.66671 16.0889625,318.380411 15.6084476,316.165827" id="Path-9" stroke="#091526" stroke-width="1.5" stroke-linecap="round" stroke-linejoin="round"></path> <path d="M108.480374,391.940918 C107.717038,391.810639 107.175905,391.677775 106.856975,391.542328" id="Path-15" stroke="#091526" stroke-width="1.5" stroke-linecap="round" stroke-linejoin="round"></path> <line x1="120.445373" y1="364.72852" x2="119.497572" y2="362.537651" id="Path-16" stroke="#091526" stroke-width="1.5" stroke-linecap="round" stroke-linejoin="round"></line> <path d="M43,279.967428 C44.8762128,280.317396 46.7524255,280.939543 48.6286383,281.833869" id="Path-17" stroke="#091526" stroke-width="1.5" stroke-linecap="round" stroke-linejoin="round"></path> <polygon id="Star" fill="#FFFFFF" transform="translate(115.500000, 193.500000) rotate(-50.000000) translate(-115.500000, -193.500000) " points="115.5 196.102539 110.903806 198.096194 112.897461 193.5 110.903806 188.903806 115.5 190.897461 120.096194 188.903806 118.102539 193.5 120.096194 198.096194"></polygon> <polygon id="Star" fill="#FFFFFF" transform="translate(131.000000, 153.000000) rotate(-40.000000) translate(-131.000000, -153.000000) " points="131 154.601562 128.171573 155.828427 129.398438 153 128.171573 150.171573 131 151.398438 133.828427 150.171573 132.601562 153 133.828427 155.828427"></polygon> </g> </g> </svg> 